<?xml version="1.0" encoding="UTF-8"?>
<svg id="Layer_1" xmlns="http://www.w3.org/2000/svg" viewBox="0 0 281.56 247.27">
  <defs>
    <style>
      .cls-1 {
        fill: #9f613d;
      }

      .cls-2 {
        fill: #292929;
      }

      .cls-3 {
        fill: #713f2e;
      }

      .cls-4 {
        fill: #f6f6f6;
      }

      .cls-5 {
        fill: #454545;
      }

      .cls-6 {
        fill: #5d5d5d;
      }

      .cls-7 {
        fill: #141414;
      }

      .cls-8 {
        fill: #888;
      }

      .cls-9 {
        fill: #a76945;
      }
    </style>
  </defs>
  <g>
    <g>
      <path class="cls-8" d="M46.92,64.06c1.81-17.56.61-26.65-.93-31.75-.52-1.72-2.45-7.53.03-9.78.66-.6,1.39-.81,2.76-.91,6.01-.45,12.02-.42,18.03-.14,1.06.05,1.78.19,2.43.74,2.58,2.19.4,8.63-.15,10.4-1.67,5.43-2.64,14.73.52,31.68-7.56-.08-15.12-.16-22.69-.24Z"/>
      <path class="cls-2" d="M29.46,97.45c.73-7.18,3.89-12.36,5.05-14.12,0-.01.01-.02.04-.06.61-.93,6.43-9.78,9.45-12.69,0,0,.01-.01.02-.02,0,0,0,0,0,0,.46-.42,1.52-1.51,2.22-3.23.51-1.25.65-2.42.68-3.28,7.56.08,15.12.16,22.69.24.03.71.14,1.83.64,3.04.92,2.21,2.57,3.35,3.1,3.74,3.48,2.53,8.72,8.26,11.55,12.6,0,0,4.3,6.59,4.96,13.62.1,1.04.12,2.09.12,2.09.01.74,0,1.28,0,1.33-.09,3.32.43,58.43-1.69,106.63-.03.79-.15,2.71-1.36,4.14,0,0-.65.78-1.65,1.24-5.53,2.57-41.79,3.58-51.77.23-.69-.23-2.01-.74-2.94-2.08-1.12-1.62-1.08-3.58-1.08-4.2.39-35.39-.26-70.79-.18-106.18,0-.36,0-1.51.15-3.05Z"/>
      <path class="cls-6" d="M46.92,64.06c1.62-19.41.55-27.67-.93-31.46,0,0-2.56-6.54-.43-9.57.31-.44.72-.76.72-.76.41-.32.85-.5,1.25-.61.39-.1.7-.13.86-.14.56-.03,3.11-.12,6.58-.2-.27,14.25-.55,28.5-.82,42.75-2.41,0-4.81,0-7.22-.01Z"/>
      <path class="cls-7" d="M29.46,97.45s.75-7.58,5.05-14.12c0-.01.01-.02.04-.06.61-.93,6.43-9.78,9.45-12.69,0,0,.01-.01.02-.02,0,0,0,0,0,0,.46-.42,1.52-1.51,2.22-3.23.51-1.25.65-2.42.68-3.28,2.41,0,4.81,0,7.22.01-.36,50.33-.73,100.65-1.09,150.98-.69,0-14.57-.18-19.54-2.08-1.93-.74-2.76-1.82-2.94-2.08-1.12-1.62-1.08-3.58-1.08-4.2.39-35.39-.23-70.79-.18-106.18,0-.37,0-1.51.15-3.05Z"/>
      <path class="cls-4" d="M89.97,116.86H29.29c-.08,2.15-.19,5.42-.27,9.41-.13,6.13-.28,13.92.04,23.79.08,2.42.22,5.91.48,10.14,20.02,0,40.05,0,60.07,0,.06-1.07.15-2.85.25-5.05.32-7.13.78-17.82.39-31.15-.05-1.63-.13-4.11-.29-7.15Z"/>
      <path class="cls-5" d="M70.1,77.26c.31-.02,1.79-.09,3.46.53,5.38,2.02,8.06,9.58,8.93,12.14,2.63,7.71,2.93,16.11,1.66,16.39-1.41.31-1.71-10.23-10.29-17.89-4.82-4.31-10.01-5.7-9.6-8.03.3-1.7,3.44-2.99,5.84-3.14Z"/>
      <path class="cls-5" d="M86.14,201.3c.09,3.48.11,5.26-1,6.88-.91,1.34-2.44,2.35-6.24,3.18-7.56,1.65-15.41.66-15.43-.43-.03-1.32,11.6.45,17.23-6.66,3.55-4.48,3.08-10.44,4.12-10.36,1.12.09,1.31,6.92,1.32,7.39Z"/>
    </g>
    <g>
      <path class="cls-8" d="M217.47,64.06c1.81-17.56.61-26.65-.93-31.75-.52-1.72-2.45-7.53.03-9.78.66-.6,1.39-.81,2.76-.91,6.01-.45,12.02-.42,18.03-.14,1.06.05,1.78.19,2.43.74,2.58,2.19.4,8.63-.15,10.4-1.67,5.43-2.64,14.73.52,31.68-7.56-.08-15.12-.16-22.69-.24Z"/>
      <path class="cls-2" d="M200.01,97.45c.73-7.18,3.89-12.36,5.05-14.12,0-.01.01-.02.04-.06.61-.93,6.43-9.78,9.45-12.69,0,0,.01-.01.02-.02,0,0,0,0,0,0,.46-.42,1.52-1.51,2.22-3.23.51-1.25.65-2.42.68-3.28,7.56.08,15.12.16,22.69.24.03.71.14,1.83.64,3.04.92,2.21,2.57,3.35,3.1,3.74,3.48,2.53,8.72,8.26,11.55,12.6,0,0,4.3,6.59,4.96,13.62.1,1.04.12,2.09.12,2.09.01.74,0,1.28,0,1.33-.09,3.32.43,58.43-1.69,106.63-.03.79-.15,2.71-1.36,4.14,0,0-.65.78-1.65,1.24-5.53,2.57-41.79,3.58-51.77.23-.69-.23-2.01-.74-2.94-2.08-1.12-1.62-1.08-3.58-1.08-4.2.39-35.39-.26-70.79-.18-106.18,0-.36,0-1.51.15-3.05Z"/>
      <path class="cls-6" d="M217.47,64.06c1.62-19.41.55-27.67-.93-31.46,0,0-2.56-6.54-.43-9.57.31-.44.72-.76.72-.76.41-.32.85-.5,1.25-.61.39-.1.7-.13.86-.14.56-.03,3.11-.12,6.58-.2-.27,14.25-.55,28.5-.82,42.75-2.41,0-4.81,0-7.22-.01Z"/>
      <path class="cls-7" d="M200.01,97.45s.75-7.58,5.05-14.12c0-.01.01-.02.04-.06.61-.93,6.43-9.78,9.45-12.69,0,0,.01-.01.02-.02,0,0,0,0,0,0,.46-.42,1.52-1.51,2.22-3.23.51-1.25.65-2.42.68-3.28,2.41,0,4.81,0,7.22.01-.36,50.33-.73,100.65-1.09,150.98-.69,0-14.57-.18-19.54-2.08-1.93-.74-2.76-1.82-2.94-2.08-1.12-1.62-1.08-3.58-1.08-4.2.39-35.39-.23-70.79-.18-106.18,0-.37,0-1.51.15-3.05Z"/>
      <path class="cls-4" d="M260.53,116.86h-60.68c-.08,2.15-.19,5.42-.27,9.41-.13,6.13-.28,13.92.04,23.79.08,2.42.22,5.91.48,10.14,20.02,0,40.05,0,60.07,0,.06-1.07.15-2.85.25-5.05.32-7.13.78-17.82.39-31.15-.05-1.63-.13-4.11-.29-7.15Z"/>
      <path class="cls-5" d="M240.65,77.26c.31-.02,1.79-.09,3.46.53,5.38,2.02,8.06,9.58,8.93,12.14,2.63,7.71,2.93,16.11,1.66,16.39-1.41.31-1.71-10.23-10.29-17.89-4.82-4.31-10.01-5.7-9.6-8.03.3-1.7,3.44-2.99,5.84-3.14Z"/>
      <path class="cls-5" d="M256.69,201.3c.09,3.48.11,5.26-1,6.88-.91,1.34-2.44,2.35-6.24,3.18-7.56,1.65-15.41.66-15.43-.43-.03-1.32,11.6.45,17.23-6.66,3.55-4.48,3.08-10.44,4.12-10.36,1.12.09,1.31,6.92,1.32,7.39Z"/>
    </g>
    <g>
      <path class="cls-8" d="M132.74,64.06c1.81-17.56.61-26.65-.93-31.75-.52-1.72-2.45-7.53.03-9.78.66-.6,1.39-.81,2.76-.91,6.01-.45,12.02-.42,18.03-.14,1.06.05,1.78.19,2.43.74,2.58,2.19.4,8.63-.15,10.4-1.67,5.43-2.64,14.73.52,31.68-7.56-.08-15.12-.16-22.69-.24Z"/>
      <path class="cls-2" d="M115.28,97.45c.73-7.18,3.89-12.36,5.05-14.12,0-.01.01-.02.04-.06.61-.93,6.43-9.78,9.45-12.69,0,0,.01-.01.02-.02,0,0,0,0,0,0,.46-.42,1.52-1.51,2.22-3.23.51-1.25.65-2.42.68-3.28,7.56.08,15.12.16,22.69.24.03.71.14,1.83.64,3.04.92,2.21,2.57,3.35,3.1,3.74,3.48,2.53,8.72,8.26,11.55,12.6,0,0,4.3,6.59,4.96,13.62.1,1.04.12,2.09.12,2.09.01.74,0,1.28,0,1.33-.09,3.32.43,58.43-1.69,106.63-.03.79-.15,2.71-1.36,4.14,0,0-.65.78-1.65,1.24-5.53,2.57-41.79,3.58-51.77.23-.69-.23-2.01-.74-2.94-2.08-1.12-1.62-1.08-3.58-1.08-4.2.39-35.39-.26-70.79-.18-106.18,0-.36,0-1.51.15-3.05Z"/>
      <path class="cls-6" d="M132.74,64.06c1.62-19.41.55-27.67-.93-31.46,0,0-2.56-6.54-.43-9.57.31-.44.72-.76.72-.76.41-.32.85-.5,1.25-.61.39-.1.7-.13.86-.14.56-.03,3.11-.12,6.58-.2-.27,14.25-.55,28.5-.82,42.75-2.41,0-4.81,0-7.22-.01Z"/>
      <path class="cls-7" d="M115.28,97.45s.75-7.58,5.05-14.12c0-.01.01-.02.04-.06.61-.93,6.43-9.78,9.45-12.69,0,0,.01-.01.02-.02,0,0,0,0,0,0,.46-.42,1.52-1.51,2.22-3.23.51-1.25.65-2.42.68-3.28,2.41,0,4.81,0,7.22.01-.36,50.33-.73,100.65-1.09,150.98-.69,0-14.57-.18-19.54-2.08-1.93-.74-2.76-1.82-2.94-2.08-1.12-1.62-1.08-3.58-1.08-4.2.39-35.39-.23-70.79-.18-106.18,0-.37,0-1.51.15-3.05Z"/>
      <path class="cls-4" d="M175.8,116.86h-60.68c-.08,2.15-.19,5.42-.27,9.41-.13,6.13-.28,13.92.04,23.79.08,2.42.22,5.91.48,10.14,20.02,0,40.05,0,60.07,0,.06-1.07.15-2.85.25-5.05.32-7.13.78-17.82.39-31.15-.05-1.63-.13-4.11-.29-7.15Z"/>
      <path class="cls-5" d="M155.93,77.26c.31-.02,1.79-.09,3.46.53,5.38,2.02,8.06,9.58,8.93,12.14,2.63,7.71,2.93,16.11,1.66,16.39-1.41.31-1.71-10.23-10.29-17.89-4.82-4.31-10.01-5.7-9.6-8.03.3-1.7,3.44-2.99,5.84-3.14Z"/>
      <path class="cls-5" d="M171.97,201.3c.09,3.48.11,5.26-1,6.88-.91,1.34-2.44,2.35-6.24,3.18-7.56,1.65-15.41.66-15.43-.43-.03-1.32,11.6.45,17.23-6.66,3.55-4.48,3.08-10.44,4.12-10.36,1.12.09,1.31,6.92,1.32,7.39Z"/>
    </g>
  </g>
  <g>
    <path class="cls-1" d="M.14,166.88c0-3.11,0-6.22,0-9.33,2.1-1.02,3.03-2.26,2.91-4.4-.31-5.8-.1-11.62-.11-17.44,0-.79.44-1.22,1.5-1.27.95-.04,1.62.07,1.76.98.41,2.65,1.13,5.26,1.85,7.87.57,2.08.53,4.24,1.53,6.3,1.53-1.45,3.21-2.71,4.77-4.07,3.92-3.4,7.73-6.88,11.53-10.36.58-.53,1.17-.73,2.04-.73,2.66.03,5.32,0,7.98.01,6.75,0,13.5,0,20.26,0,.91,0,1.8.08,1.15,1-1.45,2.06-2.7,4.21-4.21,6.22-1.81,2.41-3.67,4.8-5.31,7.29-1.29,1.96-2.35,3.97-3.17,6.06-.29.73.03,1.26.93,1.17.79-.08,1.63-.05,2.43-.43,2.87-1.34,5.76-2.64,8.53-4.11,4.19-2.21,8.48-4.31,12.7-6.48,1.98-1.02,3.8-2.22,5.85-3.15,3.56-1.61,6.7-3.63,9.99-5.52,1.57-.9,2.76-2.14,5.24-2.11,11.16.14,22.33.06,33.5.07.5,0,1.22-.22,1.46.19.23.4-.29.87-.63,1.17-2.17,1.91-3.45,4.25-5.21,6.36-.63.76-.7,1.87-.23,2.67.44.76,1.83.58,2.62.34,3.66-1.1,7.31-2.22,10.79-3.66,3.14-1.3,6.39-2.43,9.57-3.66,1.96-.76,3.99-1.43,5.8-2.37,1.35-.7,2.67-1.06,4.26-1.06,11.75.01,23.5,0,35.25,0,.32,0,.64,0,.96,0,.57.01.94.06.55.64-1.21,1.79-2.37,3.61-3.53,5.42-.81,1.27-1.67,2.52-2.36,3.83-.66,1.25-.16,2.47.96,2.6.88.1,1.88.19,2.69-.03,3.32-.89,6.82-1.45,9.86-2.87,3.05-1.42,6.38-2.44,9.28-4.1,3.01-1.72,6.37-3.07,9.3-4.9.61-.38,1.24-.59,2.03-.59,8.35,0,16.7.02,25.04,0,1.11,0,1.36.2,1.02,1.07-1.08,2.75-2.87,5.28-3.9,8.04-.26.7-.59,1.44.13,1.95.74.53,1.84.38,2.7.11,4.07-1.31,8.2-2.53,12.14-4.05,4.75-1.82,9.22-4.04,13.53-6.44,1.69-.94,3.62-1,5.27-.37,1.73.66,3.01,1.76,2.99,3.56-.08,8.35-.03,16.7-.03,25.06,0,3.03,0,3.02-3.98,3.05-1.37.01-2.77-.18-4.1.32,2.03.16,4.07.19,6.1.15.95-.02,1.55.18,1.67.95-.42.01-.85.04-1.27.04-90.51,0-181.01,0-271.52,0-.88-.36-2.1.44-2.81-.48.2-.03.42-.06.41-.26-.02-.19-.25-.21-.45-.23Z"/>
    <path class="cls-1" d="M.13,205.46c-.02-6.36-.06-12.73-.06-19.09,0-4.04.04-8.08.06-12.11,2.95-.42,5.93-.21,8.89-.24.98,0,2.18-.04,2.78.57,1.78,1.8,4.4,2.89,6.27,4.61.84.78,1.77,1.55,2.85,2.11,2.52,1.3,4.63,2.97,7.16,4.3,3.59,1.88,7.24,3.62,11.11,5.12,1.01.39,2.22.48,3.03.05.71-.37.31-1.28.17-1.96-.13-.64-.24-1.29-.42-1.92-1.13-3.87-3.08-7.56-4.01-11.47-.34-1.43-.46-1.41,1.48-1.41,7.34,0,14.68.07,22.01-.04,2.15-.03,3.49.63,4.9,1.73,3.35,2.6,6.54,5.33,10.2,7.69,1.42.92,2.9,1.78,4.22,2.78,1.91,1.45,4.08,2.68,6.31,3.74,2.65,1.26,5.51,2.33,8.59,2.95,1.94.39,2.87-.18,3.04-1.71.24-2.08-.92-3.92-1.67-5.78-1.32-3.28-3.12-6.44-4.68-9.67-.69-1.43-.42-1.7,1.62-1.7,11.49,0,22.97,0,34.46,0,.69,0,1.51-.11,1.94.36,1.58,1.71,3.97,2.65,6.08,3.84,4.66,2.65,9.32,5.31,14.13,7.81,3.14,1.63,6.24,3.38,9.91,4.29.66.16,1.41.38,1.93-.09.59-.54.93-1.18.58-1.94-2-4.3-4.27-8.53-6.54-12.75-.8-1.5-.82-1.53,1.33-1.53,10.9,0,21.8.01,32.7-.02,1.19,0,1.99.32,2.75.96,2.68,2.22,5.02,4.68,7.86,6.8,4.8,3.59,9.56,7.21,14.36,10.8,1.52,1.14,3.1,2.22,4.63,3.34,1.3.95,2.69,1.86,3.84,2.92,1.73,1.57,4.22,2.51,5.84,4.11,1.45,1.43,3.62,2.1,5.21,3.35.51.4,1.47.29,2.13.07.58-.19.07-.67.01-.99-.38-1.95-1.06-3.84-1.74-5.74-.95-2.65-2.39-5.15-3.49-7.75-1.27-2.99-2.91-5.9-4.39-8.84-1.28-2.56-2.52-5.13-3.86-7.66-.64-1.2-.61-1.35,1.07-1.35,9.36,0,18.72,0,28.08-.01.89,0,1.44.23,1.97.8,1.92,2.08,3.31,4.4,5.14,6.53,2.55,2.97,4.61,6.18,7.21,9.14,2.46,2.79,4.27,5.88,6.9,8.62,1.69,1.75,2.67,3.89,2.06,6.21-.19.72-.42,1.43,0,2.14-89.56,0-179.12,0-268.68,0-1.28,0-2.55,0-3.83-.01-1.16-.65-2.74-.85-3.45-1.96Z"/>
    <path class="cls-1" d="M.14,245.03c0-1.72,0-3.44-.01-5.16.78-.12,1.05-.76,1.74-1,1.46-.52,2.36-2.73,1.65-3.83-.26-.4-.7-.37-1.08-.23-.81.29-1.55.06-2.31-.1,0-1.56,0-3.11,0-4.67.83-.07,1.23-.73,2.07-.86.76-.11,1.07-.65,1.06-1.23-.07-4.29.2-8.59-.15-12.88-.05-.67.18-1.14,1.1-1.23.93-.09,1.71.08,1.91.92.55,2.26,1.05,4.53,1.65,6.79.35,1.31.28,2.68.93,3.95.27.52.42,1.08,1.41.68,3.23-1.32,6.58-2.5,9.7-3.92,1.91-.87,3.95-1.58,5.87-2.41,4.02-1.74,8.03-3.53,12.21-5.05,1.29-.47,2.53-.98,4.02-.98,7.66.01,15.31,0,22.97.01.37,0,.87-.17,1.12.37-4.52,2.66-8.46,5.86-13.11,8.47-2.56,1.43-5.07,3.05-7.16,4.95-.44.4-1.38.8-.84,1.44.46.54,1.37.21,2.08.21.2,0,.4-.11.6-.15,2.18-.43,4.37-.83,6.53-1.29,1.91-.41,3.82-.85,5.7-1.34,2.69-.69,5.41-1.37,8.11-1.99,4.28-.98,8.52-2.07,12.82-2.99,2.59-.56,4.98-1.54,7.59-2.05,3.98-.78,7.62-2.27,11.44-3.39,2.26-.66,4.46-1.49,6.78-1.97,3.16-.64,6.45-.21,9.68-.24,5.58-.06,11.17-.02,16.75,0,.45,0,1.05-.19,1.3.23.29.49-.47.55-.75.8-1.39,1.22-3.32,1.9-4.94,2.89-2.93,1.79-6.02,3.43-9.07,5.11-.47.26-.86.48-.6.98.23.46.69.58,1.27.54,1.47-.1,3-.04,4.41-.33,5.8-1.22,11.71-2.05,17.56-3.06,4.63-.8,9.28-1.65,13.82-2.64,4.62-1.01,9.35-1.88,13.76-3.45,1.21-.43,2.58-.62,3.9-.82,3.36-.51,6.78-.2,10.17-.24,3.99-.05,7.98-.01,11.96,0,.4,0,.93-.13,1.1.29.15.36-.36.45-.62.63-1.09.76-2.07,1.69-3.19,2.34-3.03,1.74-5.44,4.02-8.65,5.57-.87.42-1.55,1.29-1.31,1.94.31.82,1.68.63,2.53.47,1.85-.36,3.79-.43,5.61-.56,3.67-.25,7.13-1.11,10.64-1.74,5-.9,9.89-2.2,14.79-3.42,4.73-1.18,9.44-2.4,14.24-3.38,2.49-.51,5.01-.99,7.48-1.52,2.22-.48,4.24-.39,6.36-.02.7.12,1.01.4,1.05,1.01.08,1.31-.73,2.37-1.58,3.35-1.32,1.51-2.67,3.03-4.49,4.24-.41.27-.81.59-.57,1.05.24.46.81.28,1.26.3,3.37.18,6.54-.64,9.79-1.14,4.59-.7,9.12-1.51,13.59-2.56,3.71-.88,7.43-1.75,11.11-2.69,1.43-.36,1.18.32,1.18.92,0,8.48-.03,16.95.03,25.43,0,1.18-.55,1.43-1.96,1.44-4.24.05-8.5-.3-12.72.22-.4.05-1.15-.22-1.1.36.04.44.73.37,1.2.37,3.51,0,7.02,0,10.53,0,1.21,0,2.42,0,3.63,0-1.23.43-2.54-.01-3.74.44-2.46,0-4.92,0-7.38,0-.52-.29-1.04-.28-1.56,0-2.67,0-5.34,0-8.01,0-2.54-.32-5.08-.32-7.62,0-2.35,0-4.71,0-7.06,0-1.58-.31-3.17-.32-4.75,0-1.17,0-2.35,0-3.52-.01.51-.74,1.78-.84,2.3-1.56,1.16-1.6,2.49-3.13,3.32-4.86,1.25-2.6-.1-4.51-3.91-4.8-3.49-.27-6.84.48-10.19,1.13-2.19.42-4.32,1.01-6.48,1.5-2.62.6-5.24,1.24-7.68,2.12-2.71.98-5.4,1.95-8.17,2.81-1.3.4-2.85.44-3.86,1.3-.78.66-1.65.86-2.79,1.03-1,.14-1.91.8-3.08.73,0,.2,0,.4.01.59-.79.02-1.59.06-2.38.06-15.37,0-30.75,0-46.12,0-.53,0-1.06-.04-1.58-.06.07-.28.28-.44.65-.42.63.03,1.14-.19,1.09-.66-.06-.54-.75-.31-1.17-.32-2.65-.02-5.3-.01-7.95-.01-4.19,0-8.42.28-12.55-.09-3.18-.29-5.96.51-8.92.85-.5.06-.49.36-.52.65-.79.02-1.59.06-2.38.06-35.53,0-71.06,0-106.59,0-.48,0-.95-.03-1.43-.05.18-1.01-.82-1.52-1.53-2.15ZM125.92,243.76c1-.07,1.88.34,2.82.29,4.76-.27,9.53.02,14.21.4,3.87.31,5.12-1.82,7.09-3.32,1-.76.36-1.49-1.1-1.5-2.05,0-4.05.05-6.09.43-1.76.33-3.47.85-5.31,1.03-1.63.16-3.19.75-4.81.97-2.37.33-4.58,1-6.81,1.7ZM242.82,245.85c0,.08,0,.16,0,.25h12.31c0-.08,0-.16,0-.25h-12.3Z"/>
    <path class="cls-9" d="M276.09,207.44c-.42-.71-.19-1.43,0-2.14.61-2.32-.37-4.46-2.06-6.21-2.63-2.73-4.45-5.82-6.9-8.62-2.6-2.96-4.66-6.17-7.21-9.14-1.83-2.13-3.22-4.45-5.14-6.53-.53-.57-1.08-.8-1.97-.8-9.36.02-18.72,0-28.08.01-1.68,0-1.7.14-1.07,1.35,1.34,2.54,2.57,5.11,3.86,7.66,1.48,2.94,3.12,5.85,4.39,8.84,1.1,2.6,2.54,5.1,3.49,7.75.68,1.9,1.37,3.79,1.74,5.74.06.32.56.8-.01.99-.66.22-1.62.33-2.13-.07-1.59-1.26-3.76-1.92-5.21-3.35-1.62-1.6-4.11-2.54-5.84-4.11-1.16-1.05-2.54-1.96-3.84-2.92-1.53-1.12-3.12-2.2-4.63-3.34-4.8-3.59-9.56-7.21-14.36-10.8-2.84-2.12-5.18-4.58-7.86-6.8-.77-.64-1.56-.96-2.75-.96-10.9.04-21.8.02-32.7.02-2.15,0-2.14.03-1.33,1.53,2.26,4.22,4.53,8.45,6.54,12.75.35.76.01,1.4-.58,1.94-.52.47-1.26.26-1.93.09-3.68-.91-6.78-2.66-9.91-4.29-4.8-2.5-9.46-5.16-14.13-7.81-2.11-1.2-4.5-2.13-6.08-3.84-.44-.47-1.25-.36-1.94-.36-11.49,0-22.97,0-34.46,0-2.04,0-2.32.27-1.62,1.7,1.57,3.22,3.36,6.39,4.68,9.67.75,1.86,1.91,3.7,1.67,5.78-.17,1.52-1.1,2.1-3.04,1.71-3.08-.62-5.95-1.69-8.59-2.95-2.23-1.06-4.4-2.29-6.31-3.74-1.31-1-2.8-1.86-4.22-2.78-3.66-2.36-6.85-5.09-10.2-7.69-1.41-1.1-2.75-1.76-4.9-1.73-7.34.11-14.68.04-22.01.04-1.94,0-1.82-.01-1.48,1.41.93,3.91,2.89,7.61,4.01,11.47.18.63.29,1.28.42,1.92.14.68.54,1.59-.17,1.96-.81.43-2.02.34-3.03-.05-3.87-1.5-7.52-3.24-11.11-5.12-2.52-1.33-4.64-3-7.16-4.3-1.08-.56-2-1.34-2.85-2.11-1.86-1.72-4.49-2.81-6.27-4.61-.6-.61-1.8-.57-2.78-.57-2.97.03-5.94-.18-8.89.24,0-.8-.35-1.74.09-2.35.45-.63,1.87-.28,2.79-.59.58.28,1.22.22,1.86.22,90.62,0,181.24,0,271.85,0,.63,0,1.28.08,1.86-.21.15.05.29.12.44.14,2.5.25,2.5.25,2.5,2.28,0,10.56.02,21.11,0,31.67,0,2.21.66,2.15-2.83,2.04-.86,0-1.73,0-2.59,0Z"/>
    <path class="cls-9" d="M271.96,247.19c1.2-.45,2.51-.01,3.74-.44-1.21,0-2.42,0-3.63,0-3.51,0-7.02,0-10.53,0-.47,0-1.16.06-1.2-.37-.05-.58.69-.31,1.1-.36,4.22-.53,8.48-.17,12.72-.22,1.41-.02,1.97-.27,1.96-1.44-.06-8.48-.03-16.95-.03-25.43,0-.6.24-1.28-1.18-.92-3.68.94-7.4,1.81-11.11,2.69-4.46,1.05-9,1.87-13.59,2.56-3.25.49-6.42,1.32-9.79,1.14-.45-.02-1.02.16-1.26-.3-.24-.46.17-.78.57-1.05,1.82-1.21,3.17-2.73,4.49-4.24.86-.98,1.67-2.04,1.58-3.35-.04-.62-.35-.89-1.05-1.01-2.12-.36-4.14-.46-6.36.02-2.47.54-4.99,1.01-7.48,1.52-4.8.99-9.51,2.21-14.24,3.38-4.9,1.22-9.79,2.52-14.79,3.42-3.51.63-6.96,1.49-10.64,1.74-1.82.12-3.76.19-5.61.56-.86.17-2.22.36-2.53-.47-.24-.65.44-1.52,1.31-1.94,3.21-1.56,5.62-3.84,8.65-5.57,1.13-.65,2.1-1.58,3.19-2.34.26-.18.76-.27.62-.63-.17-.42-.7-.29-1.1-.29-3.99,0-7.98-.04-11.96,0-3.39.04-6.8-.27-10.17.24-1.32.2-2.69.4-3.9.82-4.41,1.57-9.14,2.45-13.76,3.45-4.54.99-9.18,1.84-13.82,2.64-5.85,1.01-11.77,1.84-17.56,3.06-1.4.3-2.93.23-4.41.33-.58.04-1.04-.08-1.27-.54-.25-.51.13-.72.6-.98,3.04-1.68,6.14-3.32,9.07-5.11,1.62-.99,3.55-1.68,4.94-2.89.29-.25,1.04-.3.75-.8-.24-.42-.85-.23-1.3-.23-5.58-.01-11.17-.05-16.75,0-3.23.04-6.52-.4-9.68.24-2.32.47-4.52,1.3-6.78,1.97-3.82,1.12-7.46,2.61-11.44,3.39-2.61.52-5,1.5-7.59,2.05-4.3.92-8.54,2.01-12.82,2.99-2.7.62-5.42,1.29-8.11,1.99-1.88.49-3.79.93-5.7,1.34-2.17.46-4.35.86-6.53,1.29-.2.04-.4.16-.6.15-.71,0-1.62.33-2.08-.21-.54-.64.4-1.04.84-1.44,2.09-1.9,4.6-3.51,7.16-4.95,4.65-2.61,8.59-5.81,13.11-8.47-.25-.54-.75-.37-1.12-.37-7.66-.01-15.31,0-22.97-.01-1.49,0-2.73.51-4.02.98-4.18,1.52-8.19,3.31-12.21,5.05-1.92.83-3.96,1.54-5.87,2.41-3.12,1.42-6.47,2.6-9.7,3.92-.98.4-1.14-.15-1.41-.68-.65-1.27-.58-2.64-.93-3.95-.59-2.26-1.1-4.52-1.65-6.79-.2-.84-.98-1.01-1.91-.92-.92.09-1.16.56-1.1,1.23.35,4.29.08,8.59.15,12.88,0,.58-.29,1.12-1.06,1.23-.84.12-1.23.79-2.07.86-.02-5.96-.03-11.93-.08-17.89,0-.76.39-1.03,1.33-.98.53.03,1.06-.03,1.59-.05.37,0,.74,0,1.12,0,59.18,0,118.36,0,177.54,0,32.33,0,64.66,0,96.98-.01,2.92.25,2.91.25,2.91,2.62,0,10.72-.02,21.44.04,32.17,0,1.1-.4,1.41-1.79,1.36-2.6-.09-5.2-.06-7.8-.07Z"/>
    <path class="cls-9" d="M275.79,167.82c-.13-.77-.73-.97-1.67-.95-2.03.04-4.06.01-6.1-.15,1.33-.5,2.73-.31,4.1-.32,3.98-.03,3.98-.01,3.98-3.05,0-8.35-.04-16.71.03-25.06.02-1.79-1.26-2.9-2.99-3.56-1.66-.63-3.59-.56-5.27.37-4.31,2.39-8.78,4.61-13.53,6.44-3.94,1.51-8.07,2.74-12.14,4.05-.86.28-1.96.43-2.7-.11-.72-.52-.39-1.25-.13-1.95,1.04-2.76,2.83-5.29,3.9-8.04.34-.86.09-1.07-1.02-1.07-8.35.02-16.69.02-25.04,0-.79,0-1.42.21-2.03.59-2.93,1.82-6.3,3.17-9.3,4.9-2.9,1.66-6.23,2.68-9.28,4.1-3.04,1.42-6.54,1.99-9.86,2.87-.81.22-1.81.13-2.69.03-1.12-.12-1.62-1.34-.96-2.6.68-1.31,1.54-2.56,2.36-3.83,1.16-1.81,2.32-3.63,3.53-5.42.39-.58.02-.63-.55-.64-.32,0-.64,0-.96,0-11.75,0-23.5,0-35.25,0-1.59,0-2.91.35-4.26,1.06-1.8.94-3.84,1.62-5.8,2.37-3.19,1.23-6.44,2.36-9.57,3.66-3.48,1.44-7.13,2.56-10.79,3.66-.79.24-2.18.42-2.62-.34-.46-.8-.4-1.91.23-2.67,1.76-2.11,3.03-4.45,5.21-6.36.34-.3.85-.77.63-1.17-.23-.41-.96-.19-1.46-.19-11.17-.01-22.33.07-33.5-.07-2.48-.03-3.67,1.21-5.24,2.11-3.29,1.89-6.43,3.91-9.99,5.52-2.04.93-3.87,2.13-5.85,3.15-4.22,2.18-8.51,4.27-12.7,6.48-2.77,1.46-5.66,2.77-8.53,4.11-.8.37-1.64.35-2.43.43-.9.09-1.22-.44-.93-1.17.82-2.1,1.89-4.11,3.17-6.06,1.64-2.49,3.5-4.88,5.31-7.29,1.51-2.01,2.75-4.16,4.21-6.22.65-.92-.24-1-1.15-1-6.75,0-13.5,0-20.26,0-2.66,0-5.32.02-7.98-.01-.87,0-1.45.19-2.04.73-3.8,3.48-7.61,6.96-11.53,10.36-1.56,1.35-3.24,2.62-4.77,4.07-1-2.06-.95-4.22-1.53-6.3-.72-2.61-1.43-5.22-1.85-7.87-.14-.91-.81-1.02-1.76-.98-1.06.05-1.5.48-1.5,1.27,0,5.81-.2,11.63.11,17.44.11,2.13-.82,3.37-2.91,4.4-.02-5.72-.05-11.43-.07-17.15,0-2.45.05-4.9-.04-7.35-.04-1.01.34-1.34,1.68-1.32,4.88.06,9.76.02,14.64.02,1.48-.04,2.99.16,4.43-.28.35.36.86.27,1.32.27,17.44,0,34.89,0,52.33,0,2.85,0,5.69,0,8.54,0,17.37,0,34.74,0,52.11.02.54,0,1.06-.01,1.53-.24,1,.52,2.12.21,3.18.24,1.72.05,3.45,0,5.17,0,17.95,0,35.89,0,53.84,0,2.78-.09,5.59.26,8.35-.26.46.41,1.09.25,1.65.25,5.36.01,10.72.01,16.08,0,11.97,0,23.95-.01,35.92-.02,1.48,0,2.95.02,4.43.03,4.94,0,9.88.02,14.82,0,1.05,0,1.5.18,1.49,1.09-.04,11.08-.02,22.17-.03,33.25,0,.24-.09.48-.13.72-.7.26-1.39.52-2.09.79-.21.1-.42.19-.64.29-.96-.02-1.92-.03-2.88-.05Z"/>
    <path class="cls-3" d="M278.61,211.11c-32.33,0-64.66.01-96.98.01-59.18,0-118.36,0-177.54,0-.37,0-.74,0-1.12,0-.03-1.22-.06-2.45-.09-3.67.23,0,.47-.02.7-.02,1.28,0,2.55.01,3.83.01,89.56,0,179.12,0,268.68,0,.86,0,1.73,0,2.59,0-.02,1.22-.05,2.44-.07,3.66Z"/>
    <path class="cls-3" d="M275.79,167.82c.96.02,1.92.03,2.88.05-.03,1.15-.05,2.3-.08,3.45-.58.29-1.23.21-1.86.21-90.62,0-181.24,0-271.85,0-.64,0-1.28.05-1.86-.22,0-1.15,0-2.31-.01-3.46,90.51,0,181.01,0,271.52,0,.42,0,.85-.02,1.27-.04Z"/>
    <path class="cls-9" d="M191.53,247.17c0-.2,0-.4-.01-.59,1.17.07,2.09-.58,3.08-.73,1.14-.16,2.01-.36,2.79-1.03,1.01-.86,2.56-.9,3.86-1.3,2.77-.86,5.47-1.84,8.17-2.81,2.45-.88,5.06-1.52,7.68-2.12,2.16-.49,4.29-1.08,6.48-1.5,3.35-.65,6.7-1.39,10.19-1.13,3.81.29,5.16,2.2,3.91,4.8-.83,1.73-2.16,3.26-3.32,4.86-.52.72-1.79.81-2.3,1.56-1.96.02-3.92.06-5.88.06-11.03,0-22.05,0-33.08,0-.53,0-1.05-.04-1.58-.06Z"/>
    <path class="cls-9" d="M112.08,247.17c.02-.29.02-.59.52-.65,2.96-.34,5.73-1.14,8.92-.85,4.13.38,8.36.09,12.55.09,2.65,0,5.3-.01,7.95.01.41,0,1.11-.22,1.17.32.05.47-.46.69-1.09.66-.38-.02-.59.14-.65.42-5.4.02-10.79.06-16.19.06-4.39,0-8.78-.04-13.17-.06Z"/>
    <path class="cls-9" d="M.13,234.7c.76.15,1.5.39,2.31.1.39-.14.83-.17,1.08.23.71,1.1-.19,3.31-1.65,3.83-.69.25-.96.88-1.74,1,0-1.72,0-3.44,0-5.16Z"/>
    <path class="cls-9" d="M3.59,207.42c-.23,0-.47.02-.7.02-.1.02-.2.04-.31.05q-2.65.06-2.44-2.03c.71,1.11,2.29,1.31,3.45,1.96Z"/>
    <path class="cls-9" d="M.14,245.03c.71.63,1.71,1.14,1.53,2.15q-1.75.04-1.53-2.15Z"/>
    <path class="cls-9" d="M247.39,247.18c2.54-.32,5.08-.32,7.62,0-2.54.1-5.08.1-7.62,0Z"/>
    <path class="cls-9" d="M235.59,247.19c1.58-.32,3.17-.32,4.75,0-1.58.11-3.17.1-4.75,0Z"/>
    <path class="cls-1" d="M279.3,167.58c.7-.26,1.39-.52,2.09-.79,0,0,0,.03,0,.03-.03.03-.09.07-.08.09.03.07.09.13.14.2-.3,1.27-1.4.39-2.14.47Z"/>
    <path class="cls-9" d="M263.03,247.18c.52-.28,1.04-.29,1.56,0-.52,0-1.04,0-1.56,0Z"/>
    <path class="cls-9" d="M.14,166.88c.2.02.43.04.45.23.02.2-.2.23-.41.26-.01-.16-.03-.33-.04-.49Z"/>
    <path class="cls-9" d="M281.44,167.12c-.05-.07-.11-.13-.14-.2,0-.02.05-.06.08-.09.04.06.08.13.1.19,0,.03-.03.07-.05.1Z"/>
    <path class="cls-9" d="M260.79,120.2c-.27-.11-.32-.3-.33-.51.38.07.75.14.33.51Z"/>
    <path class="cls-9" d="M20.79,120.17c0,.1,0,.2,0,.3-.19-.1-.19-.2,0-.3Z"/>
    <path class="cls-9" d="M125.92,243.76c2.24-.7,4.44-1.38,6.81-1.7,1.63-.22,3.18-.81,4.81-.97,1.84-.18,3.54-.7,5.31-1.03,2.04-.39,4.04-.44,6.09-.43,1.46,0,2.1.74,1.1,1.5-1.97,1.5-3.22,3.63-7.09,3.32-4.69-.37-9.46-.67-14.21-.4-.94.05-1.82-.35-2.82-.29Z"/>
    <path class="cls-9" d="M242.82,245.85h12.3c0,.08,0,.16,0,.25h-12.31c0-.08,0-.16,0-.25Z"/>
  </g>
</svg>