<?xml version="1.0" encoding="UTF-8"?>
<svg id="Layer_1" xmlns="http://www.w3.org/2000/svg" viewBox="0 0 284.78 247.25">
  <defs>
    <style>
      .cls-1 {
        fill: #9f613d;
      }

      .cls-2 {
        fill: #292929;
      }

      .cls-3 {
        fill: #713f2e;
      }

      .cls-4 {
        fill: #f6f6f6;
      }

      .cls-5 {
        fill: #454545;
      }

      .cls-6 {
        fill: #5d5d5d;
      }

      .cls-7 {
        fill: #141414;
      }

      .cls-8 {
        fill: #d1d1d1;
      }

      .cls-9 {
        fill: #888;
      }

      .cls-10 {
        fill: #a76945;
      }
    </style>
  </defs>
  <g>
    <path class="cls-9" d="M37.99,44.43c1.83-17.76.62-26.96-.94-32.12-.53-1.74-2.48-7.62.03-9.89.67-.61,1.4-.82,2.79-.92,6.07-.45,12.16-.42,18.24-.14,1.08.05,1.8.2,2.45.75,2.61,2.21.4,8.72-.15,10.52-1.69,5.5-2.67,14.9.53,32.04-7.65-.08-15.3-.16-22.94-.24Z"/>
    <path class="cls-2" d="M20.33,78.21c.74-7.27,3.94-12.5,5.11-14.28,0-.01.01-.02.04-.06.62-.94,6.5-9.89,9.55-12.83,0,0,.01-.01.02-.02,0,0,0,0,0,0,.46-.42,1.54-1.52,2.25-3.27.51-1.26.66-2.45.69-3.31,7.65.08,15.3.16,22.94.24.03.71.14,1.85.65,3.07.93,2.24,2.6,3.39,3.13,3.78,3.52,2.56,8.82,8.36,11.69,12.75,0,0,4.35,6.67,5.01,13.78.1,1.06.12,2.11.12,2.11.02.75,0,1.3,0,1.35-.09,3.35.43,59.1-1.7,107.85-.04.8-.15,2.74-1.37,4.19,0,0-.66.78-1.67,1.25-5.59,2.6-42.27,3.62-52.36.23-.7-.24-2.03-.75-2.98-2.11-1.13-1.63-1.1-3.62-1.09-4.25.39-35.8-.26-71.6-.18-107.4,0-.37,0-1.53.16-3.08Z"/>
    <path class="cls-6" d="M37.99,44.43c1.64-19.63.56-27.99-.94-31.82,0,0-2.59-6.61-.44-9.68.31-.44.73-.76.73-.76.42-.32.86-.51,1.26-.62.39-.11.71-.13.87-.14.57-.03,3.14-.12,6.66-.2-.28,14.41-.55,28.83-.83,43.24-2.43,0-4.87,0-7.3-.01Z"/>
    <path class="cls-7" d="M20.33,78.21s.76-7.66,5.11-14.28c0-.01.01-.02.04-.06.62-.94,6.5-9.89,9.55-12.83,0,0,.01-.01.02-.02,0,0,0,0,0,0,.46-.42,1.54-1.52,2.25-3.27.51-1.26.66-2.45.69-3.31,2.43,0,4.87,0,7.3.01-.37,50.9-.74,101.8-1.1,152.71-.7,0-14.74-.18-19.77-2.1-1.95-.75-2.79-1.85-2.98-2.11-1.13-1.63-1.1-3.62-1.09-4.25.39-35.8-.24-71.6-.18-107.4,0-.37,0-1.53.16-3.08Z"/>
    <path class="cls-8" d="M81.54,97.84H20.16c-.08,2.17-.19,5.48-.28,9.52-.13,6.2-.28,14.07.05,24.06.08,2.45.22,5.98.49,10.26,20.25,0,40.51,0,60.76,0,.06-1.08.15-2.88.25-5.11.33-7.21.79-18.02.4-31.5-.05-1.65-.13-4.15-.29-7.23Z"/>
    <path class="cls-5" d="M61.43,57.79c.32-.02,1.81-.1,3.5.54,5.44,2.04,8.15,9.69,9.03,12.28,2.66,7.79,2.96,16.29,1.68,16.57-1.43.32-1.73-10.34-10.41-18.1-4.88-4.36-10.13-5.76-9.71-8.12.31-1.72,3.48-3.02,5.9-3.18Z"/>
    <path class="cls-5" d="M77.66,183.24c.09,3.52.11,5.32-1.02,6.96-.93,1.35-2.47,2.38-6.31,3.21-7.64,1.67-15.58.66-15.61-.43-.03-1.34,11.73.46,17.43-6.74,3.59-4.53,3.12-10.56,4.17-10.48,1.13.09,1.32,7,1.34,7.47Z"/>
  </g>
  <g>
    <path class="cls-9" d="M107.52,44.62c1.83-17.76.62-26.96-.94-32.12-.53-1.74-2.48-7.62.03-9.89.67-.61,1.4-.82,2.79-.92,6.07-.45,12.16-.42,18.24-.14,1.08.05,1.8.2,2.45.75,2.61,2.21.4,8.72-.15,10.52-1.69,5.5-2.67,14.9.53,32.04-7.65-.08-15.3-.16-22.94-.24Z"/>
    <path class="cls-2" d="M89.86,78.39c.74-7.27,3.94-12.5,5.11-14.28,0-.01.01-.02.04-.06.62-.94,6.5-9.89,9.55-12.83,0,0,.01-.01.02-.02,0,0,0,0,0,0,.46-.42,1.54-1.52,2.25-3.27.51-1.26.66-2.45.69-3.31,7.65.08,15.3.16,22.94.24.03.71.14,1.85.65,3.07.93,2.24,2.6,3.39,3.13,3.78,3.52,2.56,8.82,8.36,11.69,12.75,0,0,4.35,6.67,5.01,13.78.1,1.06.12,2.11.12,2.11.02.75,0,1.3,0,1.35-.09,3.35.43,59.1-1.7,107.85-.04.8-.15,2.74-1.37,4.19,0,0-.66.78-1.67,1.25-5.59,2.6-42.27,3.62-52.36.23-.7-.24-2.03-.75-2.98-2.11-1.13-1.63-1.1-3.62-1.09-4.25.39-35.8-.26-71.6-.18-107.4,0-.37,0-1.53.16-3.08Z"/>
    <path class="cls-6" d="M107.52,44.62c1.64-19.63.56-27.99-.94-31.82,0,0-2.59-6.61-.44-9.68.31-.44.73-.76.73-.76.42-.32.86-.51,1.26-.62.39-.11.71-.13.87-.14.57-.03,3.14-.12,6.66-.2-.28,14.41-.55,28.83-.83,43.24-2.43,0-4.87,0-7.3-.01Z"/>
    <path class="cls-7" d="M89.86,78.39s.76-7.66,5.11-14.28c0-.01.01-.02.04-.06.62-.94,6.5-9.89,9.55-12.83,0,0,.01-.01.02-.02,0,0,0,0,0,0,.46-.42,1.54-1.52,2.25-3.27.51-1.26.66-2.45.69-3.31,2.43,0,4.87,0,7.3.01l-1.1,152.71c-.7,0-14.74-.18-19.77-2.1-1.95-.75-2.79-1.85-2.98-2.11-1.13-1.63-1.1-3.62-1.09-4.25.39-35.8-.24-71.6-.18-107.4,0-.37,0-1.53.16-3.08Z"/>
    <path class="cls-8" d="M151.07,98.02h-61.37c-.08,2.17-.19,5.48-.28,9.52-.13,6.2-.28,14.07.05,24.06.08,2.45.22,5.98.49,10.26,20.25,0,40.51,0,60.76,0,.06-1.08.15-2.88.25-5.11.33-7.21.79-18.02.4-31.5-.05-1.65-.13-4.15-.29-7.23Z"/>
    <path class="cls-5" d="M130.97,57.97c.32-.02,1.81-.1,3.5.54,5.44,2.04,8.15,9.69,9.03,12.28,2.66,7.79,2.96,16.29,1.68,16.57-1.43.32-1.73-10.34-10.41-18.1-4.88-4.36-10.13-5.76-9.71-8.12.31-1.72,3.48-3.02,5.9-3.18Z"/>
    <path class="cls-5" d="M147.2,183.43c.09,3.52.11,5.32-1.02,6.96-.93,1.35-2.47,2.38-6.31,3.21-7.64,1.67-15.58.66-15.61-.43-.03-1.34,11.73.46,17.43-6.74,3.59-4.53,3.12-10.56,4.17-10.48,1.13.09,1.32,7,1.34,7.47Z"/>
  </g>
  <g>
    <path class="cls-9" d="M177.06,43.27c1.83-17.76.62-26.96-.94-32.12-.53-1.74-2.48-7.62.03-9.89.67-.61,1.4-.82,2.79-.92,6.07-.45,12.16-.42,18.24-.14,1.08.05,1.8.2,2.45.75,2.61,2.21.4,8.72-.15,10.52-1.69,5.5-2.67,14.9.53,32.04-7.65-.08-15.3-.16-22.94-.24Z"/>
    <path class="cls-2" d="M159.4,77.05c.74-7.27,3.94-12.5,5.11-14.28,0-.01.01-.02.04-.06.62-.94,6.5-9.89,9.55-12.83,0,0,.01-.01.02-.02,0,0,0,0,0,0,.46-.42,1.54-1.52,2.25-3.27.51-1.26.66-2.45.69-3.31,7.65.08,15.3.16,22.94.24.03.71.14,1.85.65,3.07.93,2.24,2.6,3.39,3.13,3.78,3.52,2.56,8.82,8.36,11.69,12.75,0,0,4.35,6.67,5.01,13.78.1,1.06.12,2.11.12,2.11.02.75,0,1.3,0,1.35-.09,3.35.43,59.1-1.7,107.85-.04.8-.15,2.74-1.37,4.19,0,0-.66.78-1.67,1.25-5.59,2.6-42.27,3.62-52.36.23-.7-.24-2.03-.75-2.98-2.11-1.13-1.63-1.1-3.62-1.09-4.25.39-35.8-.26-71.6-.18-107.4,0-.37,0-1.53.16-3.08Z"/>
    <path class="cls-6" d="M177.06,43.27c1.64-19.63.56-27.99-.94-31.82,0,0-2.59-6.61-.44-9.68.31-.44.73-.76.73-.76.42-.32.86-.51,1.26-.62.39-.11.71-.13.87-.14.57-.03,3.14-.12,6.66-.2-.28,14.41-.55,28.83-.83,43.24-2.43,0-4.87,0-7.3-.01Z"/>
    <path class="cls-7" d="M159.4,77.05s.76-7.66,5.11-14.28c0-.01.01-.02.04-.06.62-.94,6.5-9.89,9.55-12.83,0,0,.01-.01.02-.02,0,0,0,0,0,0,.46-.42,1.54-1.52,2.25-3.27.51-1.26.66-2.45.69-3.31,2.43,0,4.87,0,7.3.01-.37,50.9-.74,101.8-1.1,152.71-.7,0-14.74-.18-19.77-2.1-1.95-.75-2.79-1.85-2.98-2.11-1.13-1.63-1.1-3.62-1.09-4.25.39-35.8-.24-71.6-.18-107.4,0-.37,0-1.53.16-3.08Z"/>
    <path class="cls-8" d="M220.61,96.68h-61.37c-.08,2.17-.19,5.48-.28,9.52-.13,6.2-.28,14.07.05,24.06.08,2.45.22,5.98.49,10.26,20.25,0,40.51,0,60.76,0,.06-1.08.15-2.88.25-5.11.33-7.21.79-18.02.4-31.5-.05-1.65-.13-4.15-.29-7.23Z"/>
    <path class="cls-5" d="M200.51,56.63c.32-.02,1.81-.1,3.5.54,5.44,2.04,8.15,9.69,9.03,12.28,2.66,7.79,2.96,16.29,1.68,16.57-1.43.32-1.73-10.34-10.41-18.1-4.88-4.36-10.13-5.76-9.71-8.12.31-1.72,3.48-3.02,5.9-3.18Z"/>
    <path class="cls-5" d="M216.73,182.08c.09,3.52.11,5.32-1.02,6.96-.93,1.35-2.47,2.38-6.31,3.21-7.64,1.67-15.58.66-15.61-.43-.03-1.34,11.73.46,17.43-6.74,3.59-4.53,3.12-10.56,4.17-10.48,1.13.09,1.32,7,1.34,7.47Z"/>
  </g>
  <g>
    <path class="cls-9" d="M73.31,66.23c1.83-17.76.62-26.96-.94-32.12-.53-1.74-2.48-7.62.03-9.89.67-.61,1.4-.82,2.79-.92,6.07-.45,12.16-.42,18.24-.14,1.08.05,1.8.2,2.45.75,2.61,2.21.4,8.72-.15,10.52-1.69,5.5-2.67,14.9.53,32.04-7.65-.08-15.3-.16-22.94-.24Z"/>
    <path class="cls-2" d="M55.65,100.01c.74-7.27,3.94-12.5,5.11-14.28,0-.01.01-.02.04-.06.62-.94,6.5-9.89,9.55-12.83,0,0,.01-.01.02-.02,0,0,0,0,0,0,.46-.42,1.54-1.52,2.25-3.27.51-1.26.66-2.45.69-3.31,7.65.08,15.3.16,22.94.24.03.71.14,1.85.65,3.07.93,2.24,2.6,3.39,3.13,3.78,3.52,2.56,8.82,8.36,11.69,12.75,0,0,4.35,6.67,5.01,13.78.1,1.06.12,2.11.12,2.11.02.75,0,1.3,0,1.35-.09,3.35.43,59.1-1.7,107.85-.04.8-.15,2.74-1.37,4.19,0,0-.66.78-1.67,1.25-5.59,2.6-42.27,3.62-52.36.23-.7-.24-2.03-.75-2.98-2.11-1.13-1.63-1.1-3.62-1.09-4.25.39-35.8-.26-71.6-.18-107.4,0-.37,0-1.53.16-3.08Z"/>
    <path class="cls-6" d="M73.31,66.23c1.64-19.63.56-27.99-.94-31.82,0,0-2.59-6.61-.44-9.68.31-.44.73-.76.73-.76.42-.32.86-.51,1.26-.62.39-.11.71-.13.87-.14.57-.03,3.14-.12,6.66-.2-.28,14.41-.55,28.83-.83,43.24-2.43,0-4.87,0-7.3-.01Z"/>
    <path class="cls-7" d="M55.65,100.01s.76-7.66,5.11-14.28c0-.01.01-.02.04-.06.62-.94,6.5-9.89,9.55-12.83,0,0,.01-.01.02-.02,0,0,0,0,0,0,.46-.42,1.54-1.52,2.25-3.27.51-1.26.66-2.45.69-3.31,2.43,0,4.87,0,7.3.01-.37,50.9-.74,101.8-1.1,152.71-.7,0-14.74-.18-19.77-2.1-1.95-.75-2.79-1.85-2.98-2.11-1.13-1.63-1.1-3.62-1.09-4.25.39-35.8-.24-71.6-.18-107.4,0-.37,0-1.53.16-3.08Z"/>
    <path class="cls-4" d="M116.86,119.63h-61.37c-.08,2.17-.19,5.48-.28,9.52-.13,6.2-.28,14.07.05,24.06.08,2.45.22,5.98.49,10.26,20.25,0,40.51,0,60.76,0,.06-1.08.15-2.88.25-5.11.33-7.21.79-18.02.4-31.5-.05-1.65-.13-4.15-.29-7.23Z"/>
    <path class="cls-5" d="M96.75,79.59c.32-.02,1.81-.1,3.5.54,5.44,2.04,8.15,9.69,9.03,12.28,2.66,7.79,2.96,16.29,1.68,16.57-1.43.32-1.73-10.34-10.41-18.1-4.88-4.36-10.13-5.76-9.71-8.12.31-1.72,3.48-3.02,5.9-3.18Z"/>
    <path class="cls-5" d="M112.98,205.04c.09,3.52.11,5.32-1.02,6.96-.93,1.35-2.47,2.38-6.31,3.21-7.64,1.67-15.58.66-15.61-.43-.03-1.34,11.73.46,17.43-6.74,3.59-4.53,3.12-10.56,4.17-10.48,1.13.09,1.32,7,1.34,7.47Z"/>
  </g>
  <g>
    <path class="cls-9" d="M145.93,66.75c1.83-17.76.62-26.96-.94-32.12-.53-1.74-2.48-7.62.03-9.89.67-.61,1.4-.82,2.79-.92,6.07-.45,12.16-.42,18.24-.14,1.08.05,1.8.2,2.45.75,2.61,2.21.4,8.72-.15,10.52-1.69,5.5-2.67,14.9.53,32.04-7.65-.08-15.3-.16-22.94-.24Z"/>
    <path class="cls-2" d="M128.27,100.53c.74-7.27,3.94-12.5,5.11-14.28,0-.01.01-.02.04-.06.62-.94,6.5-9.89,9.55-12.83,0,0,.01-.01.02-.02,0,0,0,0,0,0,.46-.42,1.54-1.52,2.25-3.27.51-1.26.66-2.45.69-3.31,7.65.08,15.3.16,22.94.24.03.71.14,1.85.65,3.07.93,2.24,2.6,3.39,3.13,3.78,3.52,2.56,8.82,8.36,11.69,12.75,0,0,4.35,6.67,5.01,13.78.1,1.06.12,2.11.12,2.11.02.75,0,1.3,0,1.35-.09,3.35.43,59.1-1.7,107.85-.04.8-.15,2.74-1.37,4.19,0,0-.66.78-1.67,1.25-5.59,2.6-42.27,3.62-52.36.23-.7-.24-2.03-.75-2.98-2.11-1.13-1.63-1.1-3.62-1.09-4.25.39-35.8-.26-71.6-.18-107.4,0-.37,0-1.53.16-3.08Z"/>
    <path class="cls-6" d="M145.93,66.75c1.64-19.63.56-27.99-.94-31.82,0,0-2.59-6.61-.44-9.68.31-.44.73-.76.73-.76.42-.32.86-.51,1.26-.62.39-.11.71-.13.87-.14.57-.03,3.14-.12,6.66-.2-.28,14.41-.55,28.83-.83,43.24-2.43,0-4.87,0-7.3-.01Z"/>
    <path class="cls-7" d="M128.27,100.53s.76-7.66,5.11-14.28c0-.01.01-.02.04-.06.62-.94,6.5-9.89,9.55-12.83,0,0,.01-.01.02-.02,0,0,0,0,0,0,.46-.42,1.54-1.52,2.25-3.27.51-1.26.66-2.45.69-3.31,2.43,0,4.87,0,7.3.01l-1.1,152.71c-.7,0-14.74-.18-19.77-2.1-1.95-.75-2.79-1.85-2.98-2.11-1.13-1.63-1.1-3.62-1.09-4.25.39-35.8-.24-71.6-.18-107.4,0-.37,0-1.53.16-3.08Z"/>
    <path class="cls-4" d="M189.48,120.16h-61.37c-.08,2.17-.19,5.48-.28,9.52-.13,6.2-.28,14.07.05,24.06.08,2.45.22,5.98.49,10.26,20.25,0,40.51,0,60.76,0,.06-1.08.15-2.88.25-5.11.33-7.21.79-18.02.4-31.5-.05-1.65-.13-4.15-.29-7.23Z"/>
    <path class="cls-5" d="M169.38,80.11c.32-.02,1.81-.1,3.5.54,5.44,2.04,8.15,9.69,9.03,12.28,2.66,7.79,2.96,16.29,1.68,16.57-1.43.32-1.73-10.34-10.41-18.1-4.88-4.36-10.13-5.76-9.71-8.12.31-1.72,3.48-3.02,5.9-3.18Z"/>
    <path class="cls-5" d="M185.61,205.56c.09,3.52.11,5.32-1.02,6.96-.93,1.35-2.47,2.38-6.31,3.21-7.64,1.67-15.58.66-15.61-.43-.03-1.34,11.73.46,17.43-6.74,3.59-4.53,3.12-10.56,4.17-10.48,1.13.09,1.32,7,1.34,7.47Z"/>
  </g>
  <g>
    <path class="cls-9" d="M218.56,66.75c1.83-17.76.62-26.96-.94-32.12-.53-1.74-2.48-7.62.03-9.89.67-.61,1.4-.82,2.79-.92,6.07-.45,12.16-.42,18.24-.14,1.08.05,1.8.2,2.45.75,2.61,2.21.4,8.72-.15,10.52-1.69,5.5-2.67,14.9.53,32.04-7.65-.08-15.3-.16-22.94-.24Z"/>
    <path class="cls-2" d="M200.9,100.53c.74-7.27,3.94-12.5,5.11-14.28,0-.01.01-.02.04-.06.62-.94,6.5-9.89,9.55-12.83,0,0,.01-.01.02-.02,0,0,0,0,0,0,.46-.42,1.54-1.52,2.25-3.27.51-1.26.66-2.45.69-3.31,7.65.08,15.3.16,22.94.24.03.71.14,1.85.65,3.07.93,2.24,2.6,3.39,3.13,3.78,3.52,2.56,8.82,8.36,11.69,12.75,0,0,4.35,6.67,5.01,13.78.1,1.06.12,2.11.12,2.11.02.75,0,1.3,0,1.35-.09,3.35.43,59.1-1.7,107.85-.04.8-.15,2.74-1.37,4.19,0,0-.66.78-1.67,1.25-5.59,2.6-42.27,3.62-52.36.23-.7-.24-2.03-.75-2.98-2.11-1.13-1.63-1.1-3.62-1.09-4.25.39-35.8-.26-71.6-.18-107.4,0-.37,0-1.53.16-3.08Z"/>
    <path class="cls-6" d="M218.56,66.75c1.64-19.63.56-27.99-.94-31.82,0,0-2.59-6.61-.44-9.68.31-.44.73-.76.73-.76.42-.32.86-.51,1.26-.62.39-.11.71-.13.87-.14.57-.03,3.14-.12,6.66-.2-.28,14.41-.55,28.83-.83,43.24-2.43,0-4.87,0-7.3-.01Z"/>
    <path class="cls-7" d="M200.9,100.53s.76-7.66,5.11-14.28c0-.01.01-.02.04-.06.62-.94,6.5-9.89,9.55-12.83,0,0,.01-.01.02-.02,0,0,0,0,0,0,.46-.42,1.54-1.52,2.25-3.27.51-1.26.66-2.45.69-3.31,2.43,0,4.87,0,7.3.01-.37,50.9-.74,101.8-1.1,152.71-.7,0-14.74-.18-19.77-2.1-1.95-.75-2.79-1.85-2.98-2.11-1.13-1.63-1.1-3.62-1.09-4.25.39-35.8-.24-71.6-.18-107.4,0-.37,0-1.53.16-3.08Z"/>
    <path class="cls-4" d="M262.11,120.16h-61.37c-.08,2.17-.19,5.48-.28,9.52-.13,6.2-.28,14.07.05,24.06.08,2.45.22,5.98.49,10.26,20.25,0,40.51,0,60.76,0,.06-1.08.15-2.88.25-5.11.33-7.21.79-18.02.4-31.5-.05-1.65-.13-4.15-.29-7.23Z"/>
    <path class="cls-5" d="M242.01,80.11c.32-.02,1.81-.1,3.5.54,5.44,2.04,8.15,9.69,9.03,12.28,2.66,7.79,2.96,16.29,1.68,16.57-1.43.32-1.73-10.34-10.41-18.1-4.88-4.36-10.13-5.76-9.71-8.12.31-1.72,3.48-3.02,5.9-3.18Z"/>
    <path class="cls-5" d="M258.24,205.56c.09,3.52.11,5.32-1.02,6.96-.93,1.35-2.47,2.38-6.31,3.21-7.64,1.67-15.58.66-15.61-.43-.03-1.34,11.73.46,17.43-6.74,3.59-4.53,3.12-10.56,4.17-10.48,1.13.09,1.32,7,1.34,7.47Z"/>
  </g>
  <g>
    <path class="cls-1" d="M.14,165.95c0-3.15,0-6.29,0-9.44,2.12-1.04,3.06-2.29,2.95-4.45-.31-5.87-.11-11.76-.11-17.64,0-.8.44-1.24,1.52-1.28.96-.04,1.64.07,1.78.99.42,2.68,1.14,5.32,1.87,7.96.58,2.1.53,4.29,1.54,6.37,1.54-1.47,3.25-2.75,4.83-4.11,3.96-3.44,7.82-6.96,11.66-10.48.59-.54,1.18-.74,2.06-.73,2.69.03,5.38.01,8.07.01,6.83,0,13.66,0,20.49,0,.92,0,1.82.08,1.16,1.01-1.47,2.08-2.73,4.26-4.26,6.29-1.83,2.44-3.71,4.85-5.37,7.38-1.3,1.98-2.38,4.01-3.21,6.13-.29.74.03,1.27.94,1.18.8-.08,1.65-.06,2.46-.43,2.9-1.35,5.83-2.67,8.63-4.15,4.24-2.24,8.58-4.36,12.85-6.56,2-1.03,3.85-2.25,5.91-3.18,3.6-1.63,6.78-3.67,10.1-5.58,1.59-.91,2.79-2.16,5.3-2.13,11.29.14,22.58.06,33.88.07.51,0,1.24-.23,1.48.19.23.41-.29.88-.63,1.18-2.2,1.93-3.49,4.3-5.27,6.44-.64.77-.7,1.89-.24,2.7.45.77,1.85.58,2.65.35,3.7-1.11,7.39-2.24,10.91-3.7,3.17-1.31,6.46-2.46,9.68-3.7,1.98-.76,4.04-1.45,5.86-2.4,1.36-.71,2.7-1.07,4.31-1.07,11.88.01,23.77,0,35.65,0,.32,0,.65,0,.97,0,.58.01.96.06.56.64-1.23,1.81-2.4,3.65-3.58,5.48-.82,1.28-1.69,2.55-2.38,3.88-.66,1.27-.16,2.5.98,2.63.89.1,1.9.19,2.72-.03,3.36-.9,6.9-1.47,9.97-2.91,3.09-1.44,6.45-2.47,9.39-4.15,3.04-1.74,6.44-3.11,9.41-4.95.61-.38,1.25-.6,2.05-.59,8.44,0,16.89.02,25.33,0,1.13,0,1.38.21,1.03,1.08-1.09,2.78-2.9,5.34-3.95,8.13-.27.71-.6,1.45.13,1.98.75.54,1.86.39,2.74.11,4.12-1.32,8.29-2.56,12.27-4.09,4.8-1.84,9.32-4.09,13.68-6.51,1.7-.95,3.66-1.01,5.33-.38,1.75.66,3.04,1.78,3.03,3.6-.08,8.45-.04,16.9-.04,25.34,0,3.07,0,3.05-4.02,3.08-1.38.01-2.8-.19-4.15.32,2.06.17,4.11.2,6.17.15.96-.02,1.57.18,1.69.96-.43.01-.86.04-1.29.04-91.54,0-183.08,0-274.62,0-.89-.36-2.12.44-2.85-.49.21-.03.43-.07.41-.26-.02-.19-.25-.22-.45-.24Z"/>
    <path class="cls-1" d="M.14,204.97c-.02-6.44-.06-12.87-.06-19.31,0-4.08.04-8.17.06-12.25,2.98-.43,5.99-.21,8.99-.24.99,0,2.21-.04,2.81.57,1.8,1.82,4.45,2.92,6.34,4.66.85.79,1.79,1.57,2.88,2.14,2.55,1.32,4.69,3.01,7.24,4.35,3.63,1.91,7.33,3.67,11.24,5.18,1.02.4,2.24.48,3.06.05.71-.38.31-1.3.17-1.99-.14-.65-.24-1.3-.43-1.94-1.14-3.91-3.11-7.65-4.06-11.6-.34-1.44-.46-1.43,1.5-1.43,7.42,0,14.85.07,22.27-.04,2.17-.03,3.53.64,4.96,1.75,3.39,2.63,6.61,5.39,10.31,7.78,1.44.93,2.94,1.8,4.27,2.81,1.93,1.47,4.13,2.71,6.38,3.79,2.68,1.28,5.58,2.36,8.69,2.98,1.96.39,2.9-.18,3.08-1.72.24-2.1-.93-3.96-1.69-5.85-1.34-3.32-3.15-6.52-4.74-9.78-.7-1.45-.42-1.72,1.64-1.72,11.62,0,23.24,0,34.85,0,.7,0,1.52-.11,1.96.37,1.59,1.73,4.02,2.68,6.15,3.89,4.72,2.68,9.43,5.37,14.29,7.9,3.17,1.65,6.31,3.42,10.03,4.34.67.17,1.42.39,1.95-.09.59-.54.94-1.19.58-1.96-2.02-4.35-4.32-8.63-6.61-12.9-.81-1.51-.83-1.55,1.35-1.55,11.03,0,22.05.01,33.08-.02,1.21,0,2.01.32,2.78.97,2.71,2.25,5.08,4.74,7.95,6.88,4.86,3.63,9.67,7.29,14.52,10.93,1.53,1.15,3.14,2.24,4.69,3.38,1.32.97,2.72,1.89,3.89,2.95,1.75,1.59,4.27,2.54,5.91,4.16,1.47,1.45,3.67,2.12,5.27,3.39.51.41,1.49.29,2.16.07.58-.19.07-.68.01-1-.38-1.97-1.07-3.88-1.76-5.8-.96-2.68-2.41-5.21-3.53-7.84-1.29-3.03-2.94-5.96-4.44-8.94-1.3-2.58-2.55-5.18-3.9-7.75-.64-1.22-.61-1.36,1.08-1.36,9.47,0,18.93,0,28.4-.01.9,0,1.46.23,1.99.81,1.94,2.1,3.35,4.45,5.2,6.6,2.58,3,4.66,6.25,7.29,9.24,2.48,2.82,4.32,5.95,6.98,8.72,1.71,1.77,2.7,3.93,2.08,6.28-.19.73-.42,1.45,0,2.17-90.58,0-181.17,0-271.75,0-1.29,0-2.58,0-3.87-.01-1.17-.65-2.77-.86-3.49-1.98Z"/>
    <path class="cls-1" d="M.14,244.99c0-1.74,0-3.48-.01-5.22.79-.12,1.06-.76,1.76-1.01,1.47-.53,2.39-2.76,1.67-3.88-.26-.4-.7-.37-1.09-.23-.82.3-1.57.06-2.34-.1,0-1.57,0-3.15,0-4.72.84-.07,1.24-.74,2.09-.87.77-.11,1.08-.66,1.07-1.24-.07-4.34.2-8.69-.15-13.03-.06-.68.19-1.15,1.11-1.25.94-.09,1.73.08,1.93.93.55,2.29,1.06,4.58,1.66,6.86.35,1.33.28,2.71.94,4,.27.53.43,1.09,1.42.69,3.27-1.33,6.65-2.53,9.81-3.96,1.93-.88,4-1.6,5.94-2.44,4.07-1.76,8.12-3.57,12.35-5.1,1.31-.47,2.56-.99,4.07-.99,7.74.01,15.49,0,23.23.01.37,0,.88-.18,1.13.37-4.57,2.69-8.56,5.93-13.26,8.56-2.59,1.45-5.13,3.08-7.24,5-.44.4-1.39.81-.85,1.45.47.55,1.38.21,2.1.21.2,0,.4-.12.61-.16,2.2-.44,4.42-.84,6.61-1.31,1.94-.41,3.86-.86,5.77-1.35,2.72-.7,5.47-1.38,8.2-2.01,4.33-.99,8.62-2.09,12.97-3.02,2.62-.56,5.03-1.55,7.68-2.08,4.02-.79,7.71-2.3,11.57-3.43,2.28-.67,4.51-1.51,6.85-1.99,3.2-.65,6.52-.21,9.79-.25,5.65-.06,11.29-.02,16.94,0,.45,0,1.07-.19,1.31.24.29.5-.47.55-.76.8-1.41,1.23-3.36,1.92-5,2.93-2.96,1.81-6.09,3.47-9.17,5.17-.48.26-.87.48-.61.99.24.47.7.59,1.29.55,1.49-.1,3.04-.04,4.46-.34,5.86-1.23,11.84-2.07,17.77-3.09,4.69-.81,9.38-1.67,13.98-2.67,4.67-1.02,9.45-1.91,13.92-3.49,1.22-.43,2.61-.63,3.94-.83,3.4-.52,6.85-.2,10.28-.25,4.03-.05,8.07-.01,12.1,0,.4,0,.94-.13,1.11.3.15.37-.36.46-.62.64-1.1.77-2.09,1.71-3.23,2.37-3.06,1.76-5.5,4.06-8.75,5.64-.88.43-1.57,1.31-1.32,1.96.31.83,1.69.64,2.56.47,1.87-.37,3.83-.44,5.68-.56,3.72-.25,7.21-1.13,10.76-1.76,5.06-.91,10-2.22,14.96-3.46,4.78-1.19,9.54-2.42,14.4-3.42,2.52-.52,5.07-1,7.57-1.54,2.25-.49,4.29-.39,6.43-.02.71.12,1.03.4,1.06,1.03.08,1.33-.73,2.4-1.6,3.39-1.34,1.53-2.7,3.07-4.54,4.29-.41.27-.82.6-.58,1.07.24.46.82.28,1.27.31,3.41.18,6.61-.65,9.9-1.15,4.64-.71,9.23-1.53,13.74-2.59,3.75-.89,7.51-1.77,11.24-2.72,1.44-.37,1.2.32,1.2.93,0,8.57-.03,17.15.03,25.72,0,1.19-.56,1.44-1.98,1.46-4.29.05-8.59-.31-12.87.23-.41.05-1.16-.23-1.11.36.04.44.74.38,1.22.38,3.55,0,7.1,0,10.65,0,1.22,0,2.45,0,3.67,0-1.25.43-2.57-.01-3.78.45-2.49,0-4.97,0-7.46,0-.53-.29-1.05-.29-1.58,0-2.7,0-5.4,0-8.11,0-2.57-.32-5.14-.32-7.71,0-2.38,0-4.76,0-7.14,0-1.6-.32-3.2-.32-4.8,0-1.19,0-2.37,0-3.56-.01.52-.75,1.8-.85,2.33-1.57,1.18-1.61,2.52-3.16,3.35-4.91,1.26-2.63-.1-4.56-3.95-4.86-3.53-.27-6.92.48-10.3,1.14-2.22.43-4.37,1.02-6.56,1.52-2.65.61-5.3,1.26-7.77,2.15-2.74.99-5.46,1.97-8.27,2.84-1.31.41-2.88.45-3.9,1.32-.79.67-1.67.87-2.82,1.04-1.01.15-1.93.81-3.12.74,0,.2,0,.4.01.6-.8.02-1.6.06-2.41.06-15.55,0-31.1,0-46.65,0-.53,0-1.07-.04-1.6-.06.07-.28.28-.44.66-.43.64.03,1.15-.19,1.1-.67-.06-.54-.76-.32-1.18-.32-2.68-.02-5.36-.01-8.04-.01-4.24,0-8.52.29-12.7-.09-3.22-.29-6.03.52-9.02.86-.51.06-.5.37-.52.66-.8.02-1.61.06-2.41.06-35.94,0-71.87,0-107.81,0-.48,0-.96-.03-1.44-.05.18-1.02-.83-1.54-1.55-2.18ZM127.36,243.71c1.02-.07,1.91.34,2.85.29,4.81-.27,9.64.02,14.38.4,3.91.31,5.18-1.84,7.17-3.36,1.01-.77.36-1.51-1.11-1.52-2.07,0-4.1.05-6.16.44-1.79.34-3.51.86-5.37,1.04-1.65.16-3.22.76-4.87.98-2.4.33-4.63,1.01-6.89,1.72ZM245.6,245.82c0,.08,0,.17,0,.25h12.45c0-.08,0-.17,0-.25h-12.44Z"/>
    <path class="cls-10" d="M279.25,206.97c-.43-.72-.19-1.44,0-2.17.62-2.35-.37-4.51-2.08-6.28-2.66-2.77-4.5-5.89-6.98-8.72-2.63-2.99-4.72-6.24-7.29-9.24-1.85-2.15-3.26-4.5-5.2-6.6-.53-.58-1.09-.81-1.99-.81-9.47.02-18.93,0-28.4.01-1.69,0-1.72.15-1.08,1.36,1.35,2.57,2.6,5.17,3.9,7.75,1.49,2.98,3.15,5.91,4.44,8.94,1.12,2.63,2.57,5.16,3.53,7.84.69,1.92,1.38,3.83,1.76,5.8.06.32.57.81-.01,1-.67.22-1.64.33-2.16-.07-1.61-1.27-3.81-1.94-5.27-3.39-1.64-1.62-4.16-2.57-5.91-4.16-1.17-1.07-2.57-1.99-3.89-2.95-1.55-1.14-3.15-2.23-4.69-3.38-4.85-3.63-9.67-7.3-14.52-10.93-2.87-2.15-5.24-4.63-7.95-6.88-.78-.64-1.58-.97-2.78-.97-11.03.04-22.05.02-33.08.02-2.18,0-2.16.03-1.35,1.55,2.29,4.27,4.59,8.54,6.61,12.9.36.77.01,1.42-.58,1.96-.52.48-1.28.26-1.95.09-3.72-.92-6.85-2.69-10.03-4.34-4.86-2.53-9.57-5.22-14.29-7.9-2.13-1.21-4.55-2.15-6.15-3.89-.44-.48-1.26-.37-1.96-.37-11.62,0-23.24,0-34.85,0-2.06,0-2.34.27-1.64,1.72,1.58,3.26,3.4,6.46,4.74,9.78.76,1.88,1.93,3.74,1.69,5.85-.18,1.54-1.12,2.12-3.08,1.72-3.11-.63-6.01-1.71-8.69-2.98-2.25-1.08-4.45-2.32-6.38-3.79-1.33-1.01-2.83-1.89-4.27-2.81-3.7-2.39-6.93-5.15-10.31-7.78-1.43-1.11-2.78-1.78-4.96-1.75-7.42.11-14.84.04-22.27.04-1.96,0-1.84-.01-1.5,1.43.94,3.96,2.92,7.69,4.06,11.6.19.64.29,1.29.43,1.94.14.69.55,1.61-.17,1.99-.82.43-2.04.35-3.06-.05-3.91-1.52-7.61-3.28-11.24-5.18-2.55-1.34-4.69-3.03-7.24-4.35-1.09-.56-2.03-1.35-2.88-2.14-1.89-1.74-4.54-2.84-6.34-4.66-.61-.61-1.82-.58-2.81-.57-3,.03-6.01-.19-8.99.24,0-.81-.35-1.76.09-2.38.45-.64,1.89-.28,2.82-.59.59.28,1.24.22,1.88.22,91.65,0,183.31,0,274.96,0,.64,0,1.3.08,1.88-.22.15.05.29.13.44.14,2.53.25,2.53.25,2.53,2.3,0,10.68.02,21.35,0,32.03,0,2.23.67,2.18-2.86,2.07-.87,0-1.75,0-2.62,0Z"/>
    <path class="cls-10" d="M275.07,247.17c1.21-.46,2.54-.01,3.78-.45-1.22,0-2.45,0-3.67,0-3.55,0-7.1,0-10.65,0-.48,0-1.18.06-1.22-.38-.05-.59.7-.31,1.11-.36,4.27-.53,8.58-.17,12.87-.23,1.43-.02,1.99-.27,1.98-1.46-.06-8.57-.03-17.15-.03-25.72,0-.61.24-1.3-1.2-.93-3.73.95-7.48,1.83-11.24,2.72-4.52,1.07-9.1,1.89-13.74,2.59-3.29.5-6.49,1.33-9.9,1.15-.45-.02-1.04.16-1.27-.31-.24-.47.17-.79.58-1.07,1.84-1.22,3.2-2.76,4.54-4.29.87-.99,1.69-2.06,1.6-3.39-.04-.63-.36-.9-1.06-1.03-2.15-.37-4.19-.47-6.43.02-2.5.55-5.05,1.02-7.57,1.54-4.86,1-9.62,2.24-14.4,3.42-4.96,1.23-9.9,2.55-14.96,3.46-3.55.64-7.04,1.51-10.76,1.76-1.84.13-3.81.2-5.68.56-.87.17-2.25.36-2.56-.47-.25-.66.44-1.53,1.32-1.96,3.24-1.58,5.69-3.88,8.75-5.64,1.14-.65,2.13-1.59,3.23-2.37.26-.18.77-.27.62-.64-.17-.42-.71-.29-1.11-.3-4.03,0-8.07-.04-12.1,0-3.43.04-6.88-.27-10.28.25-1.34.2-2.72.4-3.94.83-4.46,1.59-9.25,2.48-13.92,3.49-4.6,1-9.29,1.86-13.98,2.67-5.92,1.03-11.9,1.86-17.77,3.09-1.42.3-2.97.24-4.46.34-.59.04-1.05-.08-1.29-.55-.26-.51.13-.73.61-.99,3.08-1.7,6.21-3.36,9.17-5.17,1.64-1,3.59-1.7,5-2.93.29-.25,1.05-.31.76-.8-.25-.42-.86-.23-1.31-.24-5.65-.01-11.3-.05-16.94,0-3.27.04-6.59-.41-9.79.25-2.35.48-4.57,1.32-6.85,1.99-3.86,1.14-7.54,2.64-11.57,3.43-2.64.52-5.06,1.51-7.68,2.08-4.35.93-8.64,2.03-12.97,3.02-2.74.63-5.48,1.31-8.2,2.01-1.9.49-3.83.94-5.77,1.35-2.19.47-4.4.87-6.61,1.31-.21.04-.41.16-.61.16-.72,0-1.64.34-2.1-.21-.55-.64.41-1.05.85-1.45,2.11-1.92,4.65-3.55,7.24-5,4.7-2.64,8.69-5.87,13.26-8.56-.25-.55-.76-.37-1.13-.37-7.74-.01-15.49,0-23.23-.01-1.51,0-2.76.52-4.07.99-4.23,1.54-8.29,3.35-12.35,5.1-1.94.84-4.01,1.56-5.94,2.44-3.16,1.44-6.55,2.63-9.81,3.96-1,.41-1.15-.16-1.42-.69-.66-1.29-.59-2.67-.94-4-.6-2.28-1.11-4.58-1.66-6.86-.2-.85-.99-1.02-1.93-.93-.93.09-1.17.57-1.11,1.25.35,4.34.08,8.69.15,13.03,0,.59-.3,1.13-1.07,1.24-.85.13-1.25.8-2.09.87-.02-6.03-.03-12.06-.08-18.1,0-.77.39-1.04,1.34-.99.53.03,1.07-.03,1.61-.05.38,0,.75,0,1.13,0,59.86,0,119.71,0,179.57,0,32.7,0,65.39,0,98.09-.01,2.95.25,2.94.25,2.94,2.65,0,10.84-.02,21.69.04,32.53,0,1.12-.4,1.43-1.81,1.38-2.63-.1-5.26-.06-7.89-.08Z"/>
    <path class="cls-10" d="M278.94,166.9c-.13-.78-.74-.98-1.69-.96-2.05.04-4.11.01-6.17-.15,1.35-.51,2.77-.31,4.15-.32,4.02-.03,4.02-.01,4.02-3.08,0-8.45-.04-16.9.04-25.34.02-1.82-1.28-2.94-3.03-3.6-1.68-.64-3.63-.57-5.33.38-4.36,2.42-8.88,4.67-13.68,6.51-3.98,1.53-8.16,2.77-12.27,4.09-.87.28-1.99.43-2.74-.11-.73-.52-.4-1.26-.13-1.98,1.05-2.79,2.86-5.35,3.95-8.13.34-.87.09-1.08-1.03-1.08-8.44.02-16.89.02-25.33,0-.8,0-1.44.21-2.05.59-2.97,1.84-6.37,3.21-9.41,4.95-2.93,1.68-6.3,2.71-9.39,4.15-3.08,1.44-6.62,2.01-9.97,2.91-.82.22-1.83.13-2.72.03-1.14-.13-1.64-1.36-.98-2.63.69-1.32,1.56-2.59,2.38-3.88,1.17-1.83,2.35-3.67,3.58-5.48.4-.59.02-.63-.56-.64-.32,0-.65,0-.97,0-11.88,0-23.77,0-35.65,0-1.61,0-2.94.36-4.31,1.07-1.82.95-3.88,1.64-5.86,2.4-3.22,1.24-6.51,2.39-9.68,3.7-3.52,1.46-7.21,2.59-10.91,3.7-.8.24-2.2.43-2.65-.35-.47-.81-.4-1.93.24-2.7,1.78-2.13,3.07-4.5,5.27-6.44.34-.3.86-.77.63-1.18-.24-.42-.97-.19-1.48-.19-11.29-.01-22.59.07-33.88-.07-2.51-.03-3.71,1.22-5.3,2.13-3.33,1.91-6.51,3.95-10.1,5.58-2.07.94-3.92,2.15-5.91,3.18-4.27,2.2-8.61,4.32-12.85,6.56-2.8,1.48-5.73,2.8-8.63,4.15-.81.38-1.66.36-2.46.43-.91.09-1.23-.44-.94-1.18.83-2.12,1.91-4.15,3.21-6.13,1.66-2.52,3.54-4.93,5.37-7.38,1.53-2.03,2.79-4.21,4.26-6.29.66-.93-.24-1.01-1.16-1.01-6.83,0-13.66,0-20.49,0-2.69,0-5.38.02-8.07-.01-.88,0-1.47.19-2.06.73-3.85,3.52-7.7,7.03-11.66,10.48-1.57,1.37-3.28,2.65-4.83,4.11-1.01-2.08-.96-4.27-1.54-6.37-.73-2.64-1.45-5.28-1.87-7.96-.14-.92-.82-1.03-1.78-.99-1.08.05-1.52.49-1.52,1.28,0,5.88-.2,11.77.11,17.64.12,2.16-.83,3.41-2.95,4.45-.02-5.78-.05-11.56-.07-17.34,0-2.48.05-4.96-.04-7.43-.04-1.02.34-1.35,1.7-1.34,4.93.06,9.87.02,14.8.02,1.5-.05,3.02.17,4.48-.28.35.36.87.27,1.34.27,17.64,0,35.29,0,52.93,0,2.88,0,5.76,0,8.63,0,17.57,0,35.13,0,52.7.02.54,0,1.07-.01,1.55-.25,1.01.53,2.15.21,3.22.25,1.74.05,3.48,0,5.23,0,18.15,0,36.31,0,54.46,0,2.82-.09,5.65.27,8.45-.27.47.42,1.1.25,1.67.25,5.42.01,10.84.01,16.27,0,12.11,0,24.22-.01,36.33-.02,1.49,0,2.99.02,4.48.03,5,0,9.99.02,14.99,0,1.07,0,1.51.18,1.51,1.1-.04,11.21-.02,22.42-.03,33.63,0,.24-.09.49-.13.73-.7.27-1.41.53-2.11.8-.21.1-.43.2-.64.29-.97-.02-1.94-.03-2.91-.05Z"/>
    <path class="cls-3" d="M281.8,210.68c-32.7,0-65.39.01-98.09.01-59.86,0-119.71,0-179.57,0-.38,0-.75,0-1.13,0-.03-1.24-.06-2.48-.09-3.71.24,0,.47-.02.71-.02,1.29,0,2.58.01,3.87.01,90.58,0,181.17,0,271.75,0,.87,0,1.75,0,2.62,0-.02,1.24-.05,2.47-.07,3.71Z"/>
    <path class="cls-3" d="M278.94,166.9c.97.02,1.94.03,2.91.05-.03,1.16-.05,2.32-.08,3.49-.58.29-1.24.22-1.88.22-91.65,0-183.31,0-274.96,0-.64,0-1.3.06-1.88-.22,0-1.17,0-2.33-.01-3.5,91.54,0,183.08,0,274.62,0,.43,0,.86-.02,1.29-.04Z"/>
    <path class="cls-10" d="M193.72,247.16c0-.2,0-.4-.01-.6,1.19.07,2.11-.59,3.12-.74,1.15-.17,2.03-.37,2.82-1.04,1.02-.87,2.59-.91,3.9-1.32,2.81-.87,5.53-1.86,8.27-2.84,2.47-.89,5.12-1.54,7.77-2.15,2.18-.5,4.34-1.09,6.56-1.52,3.39-.65,6.78-1.41,10.3-1.14,3.85.29,5.22,2.22,3.95,4.86-.84,1.75-2.18,3.3-3.35,4.91-.53.72-1.81.82-2.33,1.57-1.98.02-3.96.06-5.94.06-11.15,0-22.3,0-33.45,0-.53,0-1.07-.04-1.6-.06Z"/>
    <path class="cls-10" d="M113.36,247.16c.02-.29.02-.6.52-.66,2.99-.34,5.8-1.15,9.02-.86,4.18.38,8.46.09,12.7.09,2.68,0,5.36-.01,8.04.01.42,0,1.12-.22,1.18.32.05.48-.46.7-1.1.67-.38-.02-.6.14-.66.43-5.46.02-10.92.06-16.38.06-4.44,0-8.88-.04-13.32-.06Z"/>
    <path class="cls-10" d="M.13,234.55c.77.16,1.52.4,2.34.1.39-.14.84-.17,1.09.23.72,1.11-.2,3.35-1.67,3.88-.7.25-.97.89-1.76,1.01,0-1.74,0-3.48,0-5.22Z"/>
    <path class="cls-10" d="M3.63,206.95c-.24,0-.47.02-.71.02-.1.02-.21.04-.31.05q-2.68.06-2.47-2.05c.72,1.12,2.32,1.33,3.49,1.98Z"/>
    <path class="cls-10" d="M.14,244.99c.72.64,1.73,1.16,1.55,2.18q-1.77.04-1.55-2.18Z"/>
    <path class="cls-10" d="M250.22,247.17c2.57-.32,5.14-.32,7.71,0-2.57.11-5.14.1-7.71,0Z"/>
    <path class="cls-10" d="M238.28,247.17c1.6-.32,3.2-.32,4.8,0-1.6.11-3.2.1-4.8,0Z"/>
    <path class="cls-1" d="M282.49,166.66c.7-.27,1.41-.53,2.11-.8,0,0,0,.03,0,.03-.03.03-.09.07-.08.1.03.07.09.13.14.2-.31,1.28-1.41.4-2.16.47Z"/>
    <path class="cls-10" d="M266.04,247.17c.53-.29,1.05-.29,1.58,0-.53,0-1.05,0-1.58,0Z"/>
    <path class="cls-10" d="M.14,165.95c.2.02.43.04.45.24.02.2-.21.24-.41.26-.01-.17-.03-.33-.04-.5Z"/>
    <path class="cls-10" d="M284.65,166.19c-.05-.07-.11-.13-.14-.2,0-.02.05-.06.08-.1.04.06.08.13.1.19,0,.03-.03.07-.05.1Z"/>
    <path class="cls-10" d="M263.77,118.74c-.27-.11-.33-.31-.33-.52.39.07.75.14.33.52Z"/>
    <path class="cls-10" d="M21.03,118.7c0,.1,0,.2,0,.3-.2-.1-.19-.2,0-.3Z"/>
    <path class="cls-10" d="M127.36,243.71c2.26-.71,4.49-1.39,6.89-1.72,1.65-.23,3.22-.82,4.87-.98,1.86-.18,3.59-.7,5.37-1.04,2.06-.39,4.09-.44,6.16-.44,1.47,0,2.12.75,1.11,1.52-1.99,1.52-3.26,3.67-7.17,3.36-4.74-.38-9.57-.67-14.38-.4-.95.05-1.84-.36-2.85-.29Z"/>
    <path class="cls-10" d="M245.6,245.82h12.44c0,.08,0,.17,0,.25h-12.45c0-.08,0-.17,0-.25Z"/>
  </g>
</svg>