<?xml version="1.0" encoding="UTF-8"?>
<svg id="Layer_1" xmlns="http://www.w3.org/2000/svg" viewBox="0 0 129.25 260.43">
  <defs>
    <style>
      .cls-1 {
        fill: #eab054;
      }

      .cls-2 {
        fill: #292929;
      }

      .cls-3 {
        fill: #f6f6f6;
      }

      .cls-4 {
        fill: #454545;
      }

      .cls-5 {
        fill: #7e1319;
      }

      .cls-6 {
        fill: #141414;
      }

      .cls-7 {
        fill: #efc97b;
      }

      .cls-8 {
        fill: #4a0509;
      }
    </style>
  </defs>
  <g>
    <path class="cls-7" d="M23.69,56.17c2.38-23.05.81-34.99-1.22-41.69-.68-2.25-3.22-9.88.04-12.84.87-.79,1.82-1.06,3.62-1.2,7.88-.59,15.78-.55,23.67-.18,1.4.07,2.33.25,3.19.98,3.39,2.87.52,11.32-.2,13.65-2.2,7.13-3.46,19.34.68,41.58-9.93-.11-19.85-.21-29.78-.32Z"/>
    <path class="cls-2" d="M.77,100.01c.96-9.43,5.11-16.23,6.63-18.54.01-.02.02-.02.05-.07.8-1.23,8.44-12.84,12.4-16.66,0,0,.02-.02.03-.03,0,0,0,0,0,0,.6-.55,2-1.98,2.92-4.24.67-1.64.86-3.18.89-4.3,9.93.11,19.85.21,29.78.32.03.93.18,2.4.84,3.99,1.2,2.9,3.37,4.4,4.07,4.91,4.57,3.32,11.44,10.85,15.17,16.54,0,0,5.64,8.65,6.51,17.89.13,1.37.16,2.74.16,2.74.02.97,0,1.68,0,1.75-.11,4.35.56,76.7-2.21,139.99-.05,1.04-.2,3.56-1.78,5.44,0,0-.86,1.02-2.17,1.63-7.26,3.37-54.86,4.7-67.96.3-.91-.31-2.64-.97-3.86-2.74-1.47-2.12-1.42-4.7-1.41-5.52.51-46.46-.34-92.93-.24-139.4,0-.48,0-1.98.2-4Z"/>
    <path class="cls-1" d="M23.69,56.17c2.13-25.48.73-36.33-1.22-41.31,0,0-3.36-8.59-.57-12.56.4-.58.94-.99.94-.99.54-.42,1.11-.66,1.64-.8.51-.14.92-.17,1.12-.18.74-.04,4.08-.16,8.64-.27-.36,18.71-.72,37.42-1.07,56.13-3.16,0-6.32-.01-9.48-.02Z"/>
    <path class="cls-6" d="M.77,100.01s.99-9.95,6.63-18.54c.01-.02.02-.02.05-.07.8-1.23,8.44-12.84,12.4-16.66,0,0,.02-.02.03-.03,0,0,0,0,0,0,.6-.55,2-1.98,2.92-4.24.67-1.64.86-3.18.89-4.3,3.16,0,6.32.01,9.48.02l-1.43,198.21c-.9,0-19.13-.23-25.65-2.73-2.53-.97-3.63-2.39-3.86-2.74-1.47-2.12-1.42-4.7-1.41-5.52.51-46.46-.31-92.93-.24-139.4,0-.48,0-1.99.2-4Z"/>
    <path class="cls-3" d="M80.22,125.49H.56c-.11,2.82-.25,7.11-.36,12.35-.17,8.05-.37,18.27.06,31.23.11,3.18.29,7.76.63,13.31,26.29,0,52.58,0,78.86,0,.08-1.41.2-3.74.33-6.63.42-9.36,1.03-23.4.51-40.89-.06-2.14-.17-5.39-.37-9.38Z"/>
    <path class="cls-4" d="M54.13,73.5c.41-.03,2.35-.12,4.54.7,7.07,2.65,10.58,12.58,11.73,15.94,3.45,10.12,3.84,21.14,2.18,21.51-1.86.41-2.25-13.42-13.52-23.49-6.33-5.66-13.15-7.48-12.6-10.54.4-2.24,4.51-3.92,7.66-4.12Z"/>
    <path class="cls-4" d="M75.19,236.34c.11,4.57.14,6.91-1.32,9.04-1.2,1.76-3.21,3.09-8.19,4.17-9.92,2.16-20.23.86-20.26-.56-.04-1.73,15.23.59,22.62-8.74,4.66-5.89,4.05-13.71,5.41-13.6,1.47.11,1.72,9.08,1.73,9.7Z"/>
  </g>
  <g>
    <path class="cls-5" d="M72.15,62.14c2.38-23.05.81-34.99-1.22-41.69-.68-2.25-3.22-9.88.04-12.84.87-.79,1.82-1.06,3.62-1.2,7.88-.59,15.78-.55,23.67-.18,1.4.07,2.33.25,3.19.98,3.39,2.87.52,11.32-.2,13.65-2.2,7.13-3.46,19.34.68,41.58-9.93-.11-19.85-.21-29.78-.32Z"/>
    <path class="cls-2" d="M49.23,105.98c.96-9.43,5.11-16.23,6.63-18.54.01-.02.02-.02.05-.07.8-1.23,8.44-12.84,12.4-16.66,0,0,.02-.02.03-.03,0,0,0,0,0,0,.6-.55,2-1.98,2.92-4.24.67-1.64.86-3.18.89-4.3,9.93.11,19.85.21,29.78.32.03.93.18,2.4.84,3.99,1.2,2.9,3.37,4.4,4.07,4.91,4.57,3.32,11.44,10.85,15.17,16.54,0,0,5.64,8.65,6.51,17.89.13,1.37.16,2.74.16,2.74.02.97,0,1.68,0,1.75-.11,4.35.56,76.7-2.21,139.99-.05,1.04-.2,3.56-1.78,5.44,0,0-.86,1.02-2.17,1.63-7.26,3.37-54.86,4.7-67.96.3-.91-.31-2.64-.97-3.86-2.74-1.47-2.12-1.42-4.7-1.41-5.52.51-46.46-.34-92.93-.24-139.4,0-.48,0-1.98.2-4Z"/>
    <path class="cls-8" d="M72.15,62.14c2.13-25.48.73-36.33-1.22-41.31,0,0-3.36-8.59-.57-12.56.4-.58.94-.99.94-.99.54-.42,1.11-.66,1.64-.8.51-.14.92-.17,1.12-.18.74-.04,4.08-.16,8.64-.27-.36,18.71-.72,37.42-1.07,56.13-3.16,0-6.32-.01-9.48-.02Z"/>
    <path class="cls-6" d="M49.23,105.98s.99-9.95,6.63-18.54c.01-.02.02-.02.05-.07.8-1.23,8.44-12.84,12.4-16.66,0,0,.02-.02.03-.03,0,0,0,0,0,0,.6-.55,2-1.98,2.92-4.24.67-1.64.86-3.18.89-4.3,3.16,0,6.32.01,9.48.02l-1.43,198.21c-.9,0-19.13-.23-25.65-2.73-2.53-.97-3.63-2.39-3.86-2.74-1.47-2.12-1.42-4.7-1.41-5.52.51-46.46-.31-92.93-.24-139.4,0-.48,0-1.99.2-4Z"/>
    <path class="cls-3" d="M128.68,131.46H49.02c-.11,2.82-.25,7.11-.36,12.35-.17,8.05-.37,18.27.06,31.23.11,3.18.29,7.76.63,13.31,26.29,0,52.58,0,78.86,0,.08-1.41.2-3.74.33-6.63.42-9.36,1.03-23.4.51-40.89-.06-2.14-.17-5.39-.37-9.38Z"/>
    <path class="cls-4" d="M102.59,79.48c.41-.03,2.35-.12,4.54.7,7.07,2.65,10.58,12.58,11.73,15.94,3.45,10.12,3.84,21.14,2.18,21.51-1.86.41-2.25-13.42-13.52-23.49-6.33-5.66-13.15-7.48-12.6-10.54.4-2.24,4.51-3.92,7.66-4.12Z"/>
    <path class="cls-4" d="M123.65,242.31c.11,4.57.14,6.91-1.32,9.04-1.2,1.76-3.21,3.09-8.19,4.17-9.92,2.16-20.23.86-20.26-.56-.04-1.73,15.23.59,22.62-8.74,4.66-5.89,4.05-13.71,5.41-13.6,1.47.11,1.72,9.08,1.73,9.7Z"/>
    <g>
      <path d="M71.25,152.81c.38-.08.98-.14,1.59-.14.87,0,1.43.15,1.85.49.35.26.56.66.56,1.19,0,.65-.43,1.22-1.14,1.48v.02c.64.16,1.39.69,1.39,1.69,0,.58-.23,1.02-.57,1.35-.47.43-1.23.63-2.33.63-.6,0-1.06-.04-1.35-.08v-6.62ZM72.12,155.57h.79c.92,0,1.46-.48,1.46-1.13,0-.79-.6-1.1-1.48-1.1-.4,0-.63.03-.77.06v2.17ZM72.12,158.79c.17.03.42.04.73.04.9,0,1.73-.33,1.73-1.31,0-.92-.79-1.3-1.74-1.3h-.72v2.57Z"/>
      <path d="M76.66,152.72h.87v6h2.87v.73h-3.74v-6.73Z"/>
      <path d="M82.46,157.33l-.7,2.12h-.9l2.29-6.73h1.05l2.29,6.73h-.93l-.72-2.12h-2.39ZM84.66,156.65l-.66-1.94c-.15-.44-.25-.84-.35-1.23h-.02c-.1.4-.21.81-.34,1.22l-.66,1.95h2.03Z"/>
      <path d="M87.47,159.45v-6.73h.95l2.16,3.4c.5.79.89,1.5,1.21,2.19h.02c-.08-.91-.1-1.73-.1-2.77v-2.81h.82v6.73h-.88l-2.14-3.41c-.47-.75-.92-1.52-1.26-2.25h-.03c.05.86.07,1.67.07,2.78v2.87h-.82Z"/>
      <path d="M94.04,152.81c.53-.08,1.16-.14,1.85-.14,1.25,0,2.14.29,2.72.84.6.55.95,1.33.95,2.42s-.34,2-.97,2.61c-.63.63-1.67.97-2.97.97-.62,0-1.14-.03-1.58-.08v-6.62ZM94.91,158.76c.22.04.54.05.88.05,1.86,0,2.86-1.04,2.86-2.85,0-1.59-.89-2.59-2.72-2.59-.45,0-.79.04-1.02.09v5.31Z"/>
      <path d="M104.16,156.3h-2.61v2.42h2.91v.73h-3.78v-6.73h3.63v.73h-2.76v2.12h2.61v.72Z"/>
      <path d="M107.02,153.46h-2.05v-.74h4.98v.74h-2.06v5.99h-.88v-5.99Z"/>
      <path d="M72.73,171.42l-2.2-6.73h.94l1.05,3.31c.29.91.54,1.73.72,2.51h.02c.19-.78.47-1.63.77-2.5l1.14-3.32h.93l-2.41,6.73h-.96Z"/>
      <path d="M77.69,164.69v6.73h-.87v-6.73h.87Z"/>
      <path d="M79.2,171.42v-6.73h.95l2.16,3.4c.5.79.89,1.5,1.21,2.19h.02c-.08-.91-.1-1.73-.1-2.77v-2.81h.82v6.73h-.88l-2.14-3.41c-.47-.75-.92-1.52-1.26-2.25h-.03c.05.86.07,1.67.07,2.78v2.87h-.82Z"/>
      <path d="M85.77,164.69h.87v3.24h.03c.18-.26.36-.5.53-.72l2.06-2.52h1.08l-2.44,2.85,2.62,3.87h-1.03l-2.21-3.3-.64.74v2.56h-.87v-6.73Z"/>
      <path d="M92.36,169.3l-.7,2.12h-.9l2.29-6.73h1.05l2.29,6.73h-.93l-.72-2.12h-2.39ZM94.57,168.62l-.66-1.94c-.15-.44-.25-.84-.35-1.23h-.02c-.1.4-.21.81-.34,1.22l-.66,1.95h2.03Z"/>
      <path d="M97.26,170.36c.39.24.96.44,1.56.44.89,0,1.41-.47,1.41-1.15,0-.63-.36-.99-1.27-1.34-1.1-.39-1.78-.96-1.78-1.91,0-1.05.87-1.83,2.18-1.83.69,0,1.19.16,1.49.33l-.24.71c-.22-.12-.67-.32-1.28-.32-.92,0-1.27.55-1.27,1.01,0,.63.41.94,1.34,1.3,1.14.44,1.72.99,1.72,1.98,0,1.04-.77,1.94-2.35,1.94-.65,0-1.36-.19-1.72-.43l.22-.73Z"/>
      <path d="M102.18,170.36c.39.24.96.44,1.56.44.89,0,1.41-.47,1.41-1.15,0-.63-.36-.99-1.27-1.34-1.1-.39-1.78-.96-1.78-1.91,0-1.05.87-1.83,2.18-1.83.69,0,1.19.16,1.49.33l-.24.71c-.22-.12-.67-.32-1.28-.32-.92,0-1.27.55-1.27,1.01,0,.63.41.94,1.34,1.3,1.14.44,1.72.99,1.72,1.98,0,1.04-.77,1.94-2.35,1.94-.65,0-1.36-.19-1.72-.43l.22-.73Z"/>
      <path d="M110.7,168.27h-2.61v2.42h2.91v.73h-3.78v-6.73h3.63v.73h-2.76v2.12h2.61v.72Z"/>
    </g>
  </g>
</svg>