<svg width="47" height="46" viewBox="0 0 47 46" fill="none" xmlns="http://www.w3.org/2000/svg">
<path d="M43.8958 0.5H3.10416C2.43559 0.5 1.79441 0.760758 1.32166 1.22491C0.848916 1.68906 0.583328 2.31859 0.583328 2.975V43.025C0.583328 43.6814 0.848916 44.3109 1.32166 44.7751C1.79441 45.2393 2.43559 45.5 3.10416 45.5H25.0583V28.0625H19.1V21.3125H25.0583V16.25C24.9349 15.0615 25.0778 13.8608 25.4771 12.7322C25.8763 11.6036 26.5222 10.5745 27.3694 9.71693C28.2166 8.85937 29.2447 8.19419 30.3815 7.76804C31.5183 7.34188 32.7362 7.16507 33.95 7.25C35.7337 7.23791 37.5166 7.32806 39.2896 7.52V13.595H35.6458C32.7583 13.595 32.2083 14.945 32.2083 16.9025V21.245H39.0833L38.1896 27.995H32.2083V45.5H43.8958C44.2269 45.5 44.5547 45.436 44.8605 45.3116C45.1664 45.1872 45.4442 45.0049 45.6783 44.7751C45.9124 44.5453 46.0981 44.2724 46.2248 43.9721C46.3515 43.6719 46.4167 43.35 46.4167 43.025V2.975C46.4167 2.64998 46.3515 2.32814 46.2248 2.02786C46.0981 1.72758 45.9124 1.45474 45.6783 1.22491C45.4442 0.995086 45.1664 0.812779 44.8605 0.688398C44.5547 0.564018 44.2269 0.5 43.8958 0.5Z" fill="#F6F6F6"/>
</svg>
