<svg width="46" height="45" viewBox="0 0 46 45" fill="none" xmlns="http://www.w3.org/2000/svg">
<path d="M43.3125 0H2.52083C1.85227 0 1.21108 0.260758 0.738335 0.724911C0.265587 1.18906 0 1.81859 0 2.475V42.525C0 43.1814 0.265587 43.8109 0.738335 44.2751C1.21108 44.7392 1.85227 45 2.52083 45H24.475V27.5625H18.5167V20.8125H24.475V15.75C24.3516 14.5615 24.4945 13.3608 24.8937 12.2322C25.293 11.1036 25.9388 10.0745 26.7861 9.21693C27.6333 8.35937 28.6614 7.69419 29.7981 7.26804C30.9349 6.84188 32.1529 6.66507 33.3667 6.75C35.1504 6.73791 36.9333 6.82806 38.7062 7.02V13.095H35.0625C32.175 13.095 31.625 14.445 31.625 16.4025V20.745H38.5L37.6063 27.495H31.625V45H43.3125C43.6435 45 43.9713 44.936 44.2772 44.8116C44.583 44.6872 44.8609 44.5049 45.095 44.2751C45.3291 44.0453 45.5148 43.7724 45.6414 43.4721C45.7681 43.1719 45.8333 42.85 45.8333 42.525V2.475C45.8333 2.14998 45.7681 1.82814 45.6414 1.52786C45.5148 1.22758 45.3291 0.954736 45.095 0.724911C44.8609 0.495086 44.583 0.312779 44.2772 0.188398C43.9713 0.064018 43.6435 0 43.3125 0Z" fill="#888888"/>
</svg>
