<?xml version="1.0" encoding="UTF-8"?>
<svg id="Layer_1" xmlns="http://www.w3.org/2000/svg" viewBox="0 0 260.95 257.77">
  <defs>
    <style>
      .cls-1 {
        fill: #292929;
      }

      .cls-2 {
        fill: #f6f6f6;
      }
    </style>
  </defs>
  <circle class="cls-2" cx="130.47" cy="128.89" r="122.12"/>
  <path class="cls-1" d="M122.74,140.05c8.17,3.86,14.77,7.2,21.55,10.1,4.59,1.96,7.15,5,7.12,9.99-.02,4.86-3.11,7.8-7.02,9.75-5.35,2.67-10.94,4.86-16.38,7.37-1.35.62-3.28,1.27-3.26,2.91.02,1.39,1.84,1.93,3.09,2.59,5.46,2.87,11.1,5.46,16.33,8.7,7.53,4.66,7.01,13.28-.8,17.65-6.19,3.46-13.09,5.21-19.56,7.99-1.5.64-3.42,1.06-3.51,2.75-.09,1.71,1.83,2.37,3.24,3.1,2.98,1.54,5.99,3.02,8.9,4.68,1.01.58,2.16,1.53,1.5,3-.59,1.33-1.88,1.7-3.13,1.17-5.3-2.27-11.26-3.24-15.49-7.65-4.6-4.8-4.06-10.43,1.4-14.41,4.6-3.35,9.93-5.36,14.93-7.96,3.11-1.62,3.15-2.71.04-4.47-5.36-3.03-11.27-4.97-16.36-8.54-7.61-5.34-7.59-12.62.22-17.76,5.19-3.42,11.16-5.19,16.72-7.82,1.54-.73,3.66-1.36,3.76-3.25.1-1.84-2.1-2.16-3.46-2.81-5.56-2.68-11.16-5.27-16.78-7.82-3.98-1.8-5.81-4.73-5.83-9.14-.01-4.37,1.62-7.42,5.64-9.26,5.93-2.72,11.84-5.49,17.72-8.3,1.21-.58,2.94-.92,2.85-2.71-.1-1.81-1.89-1.74-3.12-2.32-5.74-2.69-11.62-5.15-17.12-8.28-6.18-3.51-7.9-11.03-5.3-20.13,1.13-3.97,3-7.45,6.1-10.31,4.21-3.89,6.44-8.64,6.09-14.55-.61-10.34.85-20.72-.95-31.07-.93-5.32,1.47-7.44,6.98-7.46,1.41,0,2.83,0,4.24,0,5.3.03,7.19,2.5,6.37,7.92-1.74,11.56-.75,23.19-.51,34.77.08,3.89,2.68,7.56,5.77,10.42,4.82,4.46,6.87,10,6.76,16.54-.14,8.1-.16,16.22,0,24.32.09,4.63-1.83,7.65-6.01,9.57-7.15,3.28-14.24,6.72-22.74,10.75Z"/>
</svg>