<?xml version="1.0" encoding="UTF-8"?>
<svg id="Layer_1" xmlns="http://www.w3.org/2000/svg" viewBox="0 0 113.52 280.51">
  <defs>
    <style>
      .cls-1 {
        fill: #f6f6f6;
      }
    </style>
  </defs>
  <path class="cls-1" d="M16.91,117.73c.97-9.11,5.14-15.67,6.67-17.91.01-.01.02-.02.05-.07.81-1.18,8.49-12.4,12.47-16.09,0,0,.02-.02.03-.03,0,0,1.9-1.76,2.94-4.09.84-1.88.89-3.66.91-4.57.72-35.91-1.23-44.54-1.23-44.54-1.08-4.98-2.76-11.13.04-13.84.87-.85,1.83-1.14,3.64-1.29,7.93-.64,15.87-.59,23.81-.19,1.4.07,2.35.27,3.2,1.05,2.83,2.57.96,8.96-.2,14.72-1.13,5.61-.6,18.68.69,44.81.03.59.1,2.13.85,3.85,1.2,2.77,3.34,4.22,4.09,4.74,4.59,3.21,11.51,10.48,15.26,15.98,0,0,5.68,8.36,6.54,17.27.13,1.32.16,2.65.16,2.65.02.94,0,1.62,0,1.69-.11,4.2.56,74.08-2.23,135.2-.05,1.01-.2,3.44-1.79,5.25,0,0-.86.98-2.18,1.57-7.3,3.26-55.18,4.54-68.36.29-.91-.29-2.66-.94-3.89-2.64-1.48-2.05-1.43-4.53-1.42-5.33.51-44.87-.34-89.75-.24-134.63,0-.46,0-1.92.2-3.86Z"/>
</svg>