<?xml version="1.0" encoding="UTF-8"?>
<svg id="Layer_1" xmlns="http://www.w3.org/2000/svg" viewBox="0 0 80.41 253.26">
  <defs>
    <style>
      .cls-1 {
        fill: #eab054;
      }

      .cls-2 {
        fill: #292929;
      }

      .cls-3 {
        fill: #f6f6f6;
      }

      .cls-4 {
        fill: #454545;
      }

      .cls-5 {
        fill: #141414;
      }

      .cls-6 {
        fill: #efc97b;
      }
    </style>
  </defs>
  <path class="cls-6" d="M23.58,55.91c2.37-22.94.8-34.83-1.21-41.49-.68-2.24-3.21-9.84.04-12.78.87-.78,1.81-1.06,3.6-1.19,7.85-.59,15.71-.55,23.56-.18,1.39.06,2.32.25,3.17.97,3.37,2.86.52,11.27-.2,13.59-2.19,7.1-3.45,19.25.68,41.39-9.88-.1-19.76-.21-29.64-.31Z"/>
  <path class="cls-2" d="M.77,99.54c.96-9.39,5.09-16.15,6.6-18.45.01-.02.02-.02.05-.07.8-1.22,8.4-12.78,12.34-16.58,0,0,.02-.02.03-.03,0,0,0,0,0,0,.6-.55,1.99-1.97,2.9-4.22.67-1.63.85-3.17.89-4.28,9.88.1,19.76.21,29.64.31.03.92.18,2.39.84,3.97,1.2,2.89,3.36,4.38,4.05,4.88,4.55,3.31,11.39,10.8,15.1,16.47,0,0,5.62,8.61,6.48,17.8.13,1.37.16,2.73.16,2.73.02.96,0,1.67,0,1.74-.11,4.33.56,76.35-2.2,139.34-.05,1.04-.2,3.54-1.77,5.42,0,0-.85,1.01-2.16,1.62-7.23,3.35-54.61,4.68-67.64.3-.9-.3-2.63-.97-3.85-2.72-1.47-2.11-1.42-4.67-1.41-5.49.51-46.24-.34-92.5-.24-138.74,0-.47,0-1.98.2-3.98Z"/>
  <path class="cls-1" d="M23.58,55.91c2.12-25.36.72-36.16-1.22-41.11,0,0-3.35-8.55-.57-12.51.4-.57.94-.99.94-.99.54-.41,1.11-.66,1.63-.8.51-.14.92-.17,1.12-.18.74-.04,4.06-.16,8.6-.26-.36,18.62-.71,37.24-1.07,55.86-3.14,0-6.29-.01-9.43-.02Z"/>
  <path class="cls-5" d="M.77,99.54s.98-9.9,6.6-18.45c.01-.02.02-.02.05-.07.8-1.22,8.4-12.78,12.34-16.58,0,0,.02-.02.03-.03,0,0,0,0,0,0,.6-.55,1.99-1.97,2.9-4.22.67-1.63.85-3.17.89-4.28,3.14,0,6.29.01,9.43.02-.48,65.76-.95,131.52-1.43,197.28-.9,0-19.04-.23-25.53-2.72-2.52-.96-3.61-2.38-3.85-2.72-1.47-2.11-1.42-4.67-1.41-5.49.5-46.25-.31-92.5-.24-138.74,0-.48,0-1.98.2-3.98Z"/>
  <path class="cls-3" d="M79.84,124.9H.56c-.11,2.81-.25,7.08-.36,12.29-.17,8.02-.37,18.18.06,31.09.1,3.16.29,7.72.63,13.25,26.17,0,52.33,0,78.5,0,.08-1.4.2-3.73.33-6.6.42-9.32,1.02-23.29.51-40.7-.06-2.13-.17-5.37-.37-9.34Z"/>
  <path class="cls-4" d="M53.87,73.16c.41-.03,2.34-.12,4.52.69,7.03,2.64,10.53,12.52,11.67,15.87,3.43,10.07,3.83,21.04,2.17,21.41-1.85.41-2.24-13.36-13.45-23.38-6.3-5.63-13.08-7.45-12.54-10.49.4-2.23,4.49-3.9,7.63-4.1Z"/>
  <path class="cls-4" d="M74.84,235.23c.11,4.55.14,6.87-1.31,9-1.2,1.75-3.19,3.07-8.15,4.15-9.87,2.15-20.13.86-20.17-.56-.04-1.73,15.16.59,22.51-8.7,4.64-5.86,4.03-13.64,5.39-13.54,1.46.11,1.71,9.04,1.73,9.65Z"/>
  <g>
    <path d="M9.1,151.2v2.8h3.24v-2.8h.87v6.7h-.87v-3.14h-3.24v3.14h-.86v-6.7h.86Z"/>
    <path d="M16.18,157.9l-2.19-6.7h.93l1.04,3.3c.29.9.54,1.72.71,2.5h.02c.19-.78.47-1.62.76-2.49l1.13-3.31h.92l-2.39,6.7h-.95Z"/>
    <path d="M21.12,151.2v6.7h-.86v-6.7h.86Z"/>
    <path d="M22.62,151.29c.53-.08,1.15-.14,1.84-.14,1.24,0,2.13.29,2.71.83.6.55.94,1.32.94,2.4s-.34,1.99-.96,2.6c-.62.63-1.66.96-2.96.96-.62,0-1.13-.03-1.57-.08v-6.59ZM23.49,157.21c.22.04.54.05.87.05,1.85,0,2.85-1.03,2.85-2.84.01-1.58-.88-2.58-2.71-2.58-.45,0-.79.04-1.01.09v5.28Z"/>
    <path d="M30.71,157.9l-2.18-6.7h.93l1.04,3.3c.29.9.54,1.72.71,2.5h.02c.19-.78.47-1.62.76-2.49l1.13-3.31h.92l-2.39,6.7h-.95Z"/>
    <path d="M35.64,151.2v6.7h-.86v-6.7h.86Z"/>
    <path d="M37.15,157.9v-6.7h.94l2.15,3.39c.5.78.88,1.49,1.2,2.17h.02c-.08-.9-.1-1.72-.1-2.76v-2.8h.81v6.7h-.87l-2.13-3.4c-.47-.75-.91-1.51-1.25-2.23h-.03c.05.85.07,1.66.07,2.77v2.86h-.81Z"/>
    <path d="M43.56,156.85c.39.24.95.44,1.55.44.88,0,1.4-.47,1.4-1.14,0-.63-.36-.98-1.26-1.33-1.09-.39-1.77-.95-1.77-1.9,0-1.04.86-1.82,2.17-1.82.69,0,1.18.16,1.48.33l-.24.71c-.22-.12-.67-.32-1.27-.32-.91,0-1.26.55-1.26,1,0,.63.41.93,1.33,1.29,1.13.44,1.71.98,1.71,1.97,0,1.03-.76,1.93-2.34,1.93-.65,0-1.35-.19-1.71-.43l.22-.72Z"/>
    <path d="M48.58,151.2h.86v3.23h.03c.18-.26.36-.5.53-.71l2.05-2.51h1.07l-2.42,2.84,2.61,3.85h-1.02l-2.21-3.29-.64.74v2.55h-.86v-6.7Z"/>
    <path d="M55.14,155.79l-.7,2.11h-.89l2.28-6.7h1.04l2.28,6.7h-.92l-.71-2.11h-2.37ZM57.33,155.12l-.66-1.93c-.15-.44-.25-.83-.35-1.22h-.02c-.1.4-.21.8-.34,1.21l-.66,1.94h2.02Z"/>
    <path d="M60.01,156.85c.39.24.95.44,1.55.44.88,0,1.4-.47,1.4-1.14,0-.63-.36-.98-1.26-1.33-1.09-.39-1.77-.95-1.77-1.9,0-1.04.86-1.82,2.17-1.82.69,0,1.18.16,1.48.33l-.24.71c-.22-.12-.67-.32-1.27-.32-.91,0-1.26.55-1.26,1,0,.63.41.93,1.33,1.29,1.13.44,1.71.98,1.71,1.97,0,1.03-.76,1.93-2.34,1.93-.65,0-1.35-.19-1.71-.43l.22-.72Z"/>
    <path d="M64.91,156.85c.39.24.95.44,1.55.44.88,0,1.4-.47,1.4-1.14,0-.63-.36-.98-1.26-1.33-1.09-.39-1.77-.95-1.77-1.9,0-1.04.86-1.82,2.17-1.82.69,0,1.18.16,1.48.33l-.24.71c-.22-.12-.67-.32-1.27-.32-.91,0-1.26.55-1.26,1,0,.63.41.93,1.33,1.29,1.13.44,1.71.98,1.71,1.97,0,1.03-.76,1.93-2.34,1.93-.65,0-1.35-.19-1.71-.43l.22-.72Z"/>
    <path d="M73.39,154.76h-2.6v2.41h2.9v.73h-3.76v-6.7h3.62v.73h-2.75v2.12h2.6v.72Z"/>
  </g>
</svg>