<svg width="46" height="46" viewBox="0 0 46 46" fill="none" xmlns="http://www.w3.org/2000/svg">
<path d="M13.55 0.5H32.45C39.65 0.5 45.5 6.35 45.5 13.55V32.45C45.5 35.9111 44.1251 39.2304 41.6777 41.6777C39.2304 44.1251 35.9111 45.5 32.45 45.5H13.55C6.35 45.5 0.5 39.65 0.5 32.45V13.55C0.5 10.0889 1.87491 6.76961 4.32226 4.32226C6.76961 1.87491 10.0889 0.5 13.55 0.5ZM13.1 5C10.9517 5 8.89148 5.85339 7.37244 7.37244C5.85339 8.89148 5 10.9517 5 13.1V32.9C5 37.3775 8.6225 41 13.1 41H32.9C35.0483 41 37.1085 40.1466 38.6276 38.6276C40.1466 37.1085 41 35.0483 41 32.9V13.1C41 8.6225 37.3775 5 32.9 5H13.1ZM34.8125 8.375C35.5584 8.375 36.2738 8.67132 36.8012 9.19876C37.3287 9.72621 37.625 10.4416 37.625 11.1875C37.625 11.9334 37.3287 12.6488 36.8012 13.1762C36.2738 13.7037 35.5584 14 34.8125 14C34.0666 14 33.3512 13.7037 32.8238 13.1762C32.2963 12.6488 32 11.9334 32 11.1875C32 10.4416 32.2963 9.72621 32.8238 9.19876C33.3512 8.67132 34.0666 8.375 34.8125 8.375ZM23 11.75C25.9837 11.75 28.8452 12.9353 30.955 15.045C33.0647 17.1548 34.25 20.0163 34.25 23C34.25 25.9837 33.0647 28.8452 30.955 30.955C28.8452 33.0647 25.9837 34.25 23 34.25C20.0163 34.25 17.1548 33.0647 15.045 30.955C12.9353 28.8452 11.75 25.9837 11.75 23C11.75 20.0163 12.9353 17.1548 15.045 15.045C17.1548 12.9353 20.0163 11.75 23 11.75ZM23 16.25C21.2098 16.25 19.4929 16.9612 18.227 18.227C16.9612 19.4929 16.25 21.2098 16.25 23C16.25 24.7902 16.9612 26.5071 18.227 27.773C19.4929 29.0388 21.2098 29.75 23 29.75C24.7902 29.75 26.5071 29.0388 27.773 27.773C29.0388 26.5071 29.75 24.7902 29.75 23C29.75 21.2098 29.0388 19.4929 27.773 18.227C26.5071 16.9612 24.7902 16.25 23 16.25Z" fill="#F6F6F6"/>
</svg>
