<svg width="44" height="46" viewBox="0 0 44 46" fill="none" xmlns="http://www.w3.org/2000/svg">
<path d="M38.9167 0.5C40.1985 0.5 41.4279 1.02678 42.3344 1.96447C43.2408 2.90215 43.75 4.17392 43.75 5.5V40.5C43.75 41.8261 43.2408 43.0979 42.3344 44.0355C41.4279 44.9732 40.1985 45.5 38.9167 45.5H5.08333C3.80145 45.5 2.57208 44.9732 1.66565 44.0355C0.759225 43.0979 0.25 41.8261 0.25 40.5V5.5C0.25 4.17392 0.759225 2.90215 1.66565 1.96447C2.57208 1.02678 3.80145 0.5 5.08333 0.5H38.9167ZM37.7083 39.25V26C37.7083 23.8385 36.8783 21.7655 35.4008 20.2371C33.9234 18.7087 31.9195 17.85 29.83 17.85C27.7758 17.85 25.3833 19.15 24.2233 21.1V18.325H17.4808V39.25H24.2233V26.925C24.2233 25 25.7217 23.425 27.5825 23.425C28.4798 23.425 29.3404 23.7937 29.9749 24.4501C30.6094 25.1065 30.9658 25.9967 30.9658 26.925V39.25H37.7083ZM9.62667 14.4C10.7034 14.4 11.7361 13.9575 12.4975 13.1698C13.2589 12.3822 13.6867 11.3139 13.6867 10.2C13.6867 7.875 11.8742 5.975 9.62667 5.975C8.54348 5.975 7.50465 6.42013 6.73872 7.21247C5.9728 8.00482 5.5425 9.07946 5.5425 10.2C5.5425 12.525 7.37917 14.4 9.62667 14.4ZM12.9858 39.25V18.325H6.29167V39.25H12.9858Z" fill="#F6F6F6"/>
</svg>
