<svg width="44" height="45" viewBox="0 0 44 45" fill="none" xmlns="http://www.w3.org/2000/svg">
<path d="M38.6667 0C39.9485 0 41.1779 0.526784 42.0843 1.46447C42.9908 2.40215 43.5 3.67392 43.5 5V40C43.5 41.3261 42.9908 42.5979 42.0843 43.5355C41.1779 44.4732 39.9485 45 38.6667 45H4.83333C3.55145 45 2.32208 44.4732 1.41565 43.5355C0.509225 42.5979 0 41.3261 0 40V5C0 3.67392 0.509225 2.40215 1.41565 1.46447C2.32208 0.526784 3.55145 0 4.83333 0H38.6667ZM37.4583 38.75V25.5C37.4583 23.3385 36.6283 21.2655 35.1508 19.7371C33.6733 18.2087 31.6695 17.35 29.58 17.35C27.5258 17.35 25.1333 18.65 23.9733 20.6V17.825H17.2308V38.75H23.9733V26.425C23.9733 24.5 25.4717 22.925 27.3325 22.925C28.2298 22.925 29.0904 23.2937 29.7249 23.9501C30.3594 24.6065 30.7158 25.4967 30.7158 26.425V38.75H37.4583ZM9.37667 13.9C10.4534 13.9 11.4861 13.4575 12.2475 12.6698C13.0089 11.8822 13.4367 10.8139 13.4367 9.7C13.4367 7.375 11.6242 5.475 9.37667 5.475C8.29348 5.475 7.25465 5.92013 6.48872 6.71247C5.72279 7.50481 5.2925 8.57946 5.2925 9.7C5.2925 12.025 7.12917 13.9 9.37667 13.9ZM12.7358 38.75V17.825H6.04167V38.75H12.7358Z" fill="#888888"/>
</svg>
