<?xml version="1.0" encoding="UTF-8"?>
<svg id="Layer_1" xmlns="http://www.w3.org/2000/svg" viewBox="0 0 260.95 257.77">
  <defs>
    <style>
      .cls-1 {
        fill: #f6f6f6;
      }
    </style>
  </defs>
  <path class="cls-1" d="M47.73,60.56c41.24.1,82.48-.25,123.71.28.92.01,4.36-.02,7,2.25.81.69,1.32,1.42,1.62,1.91,1.59,2.39,1.84,4.82,1.89,6.27.21,5.82.11,11.66.13,17.49.02,3.79.32,4.11,4.01,4.12,3.78,0,7.57-.05,11.35.01,9.41.14,16.29,4.44,20.56,12.77,3.21,6.27,6.31,12.59,9.36,18.94,1.94,4.04,4.81,6.89,9.11,8.44,3.64,1.32,7.37,2.25,11.08,3.26,1.79.49,3.27,1.25,4.48,2.3,1.84,1.58,2.73,3.48,3.26,4.88,2.94,7.76,3.26,20.96,3.26,20.96.31,13.23.02,19.53-2.9,23.53-1.85,2.53-4.27,3.97-4.27,3.97-1.81,1.07-3.26,1.72-6.11,1.9-4.27.26-8.56.02-12.84.22-2.26.11-3.05-.47-3.19-2.89-.89-15.57-13.71-27.62-29.02-27.49-15.38.13-27.84,12.03-28.68,27.53-.12,2.27-.94,2.86-3.13,2.85-16.88-.08-33.77-.05-50.65-.05q-5.42,0-5.98-5.25c-.05-.49-.1-.98-.19-1.47-2.69-13.64-14.49-23.48-28.33-23.62-13.77-.14-25.81,9.82-28.68,23.55-.46,2.2.87,5.34-1.66,6.43-2.03.88-4.7.4-7.07.33-7.74-.22-12.96-4.72-13.31-12.34-.42-9.27-.16-18.58-.13-27.87,0-1.93,1.11-3.15,3.07-3.64,1.14-.28,2.27-.35,3.42-.35,10.22,0,31.04.4,42,.01,1.7-.06,4.18-.18,6.39-1.83,4.57-3.41,4.29-10.58,4.22-12.5-.1-2.62-.25-7.03-3.33-9.67-2.42-2.06-5.53-2.09-7.21-2.08,0,0-38.13.18-44.43-.17-.98-.05-2.74-.23-3.67-1.47-.62-.83-.63-1.84-.68-3.21-.04-1.28.18-2.56.65-3.77.72-1.85,2.7-1.54,4.34-1.54,54.49,0,63.5,0,63.5,0,1.81.09,5.34.23,8.15-1.98,5.58-4.41,3.87-14.68,3.65-15.86-.34-1.87-.68-3.63-2.08-5.21-2.63-2.95-7.01-2.99-8.98-2.98-21.41.1-42.83,0-64.24,0-3.81,0-4.79-.99-4.82-4.82-.02-2.96-.04-5.92,0-8.88.05-3.58.68-5.51,2.13-7.62.3-.43.93-1.26,1.9-2.11,4.13-3.65,9.77-3.52,11.33-3.52ZM201.74,134.21c3.29,0,6.59,0,9.88,0,2.72,0,5.44.04,8.15-.06,1.04-.04,2.27-.1,1.34-1.89-3.36-6.48-6.57-13.03-9.9-19.52-3.57-6.95-9.37-10.59-17.12-11.07-3.12-.19-6.26.01-9.38-.06-2.01-.05-2.69.74-2.67,2.79.1,8.88.1,17.76,0,26.64-.03,2.34.78,3.25,3.14,3.21,5.51-.1,11.03-.03,16.55-.03Z"/>
  <path class="cls-1" d="M226.52,192.56c-.06,14.2-11.73,25.88-25.93,25.95-14.14.07-26.26-12.03-26.14-26.1.13-14.29,12.1-26.09,26.29-25.91,14.28.18,25.84,11.87,25.78,26.06Z"/>
  <path class="cls-1" d="M45.34,125.93c11.8,0,23.6.03,35.39-.03,2.78-.01,5.47.52,6.7,4.44,1.34,4.28,1.44,8.9-.22,13.16-1.43,3.66-4.02,3.98-6.63,3.98-23.51,0-47.02,0-70.53-.02-1.01,0-2.02-.21-3.02-.45-2.33-.58-3.73-2.65-4.33-5.81-.54-2.83-.51-5.74-.09-8.57.67-4.55,2.89-6.68,6.83-6.69,11.97-.02,23.94,0,35.9,0Z"/>
  <path class="cls-1" d="M109.97,192.56c-.06,14.2-11.73,25.88-25.93,25.95-14.14.07-26.26-12.03-26.14-26.1.13-14.29,12.1-26.09,26.29-25.91,14.28.18,25.84,11.87,25.78,26.06Z"/>
  <path class="cls-1" d="M66.86,89.56c11.8,0,23.6.03,35.39-.03,2.78-.01,5.47.52,6.7,4.44,1.34,4.28,1.44,8.9-.22,13.16-1.43,3.66-4.02,3.98-6.63,3.98-23.51,0-47.02,0-70.53-.02-1.01,0-2.02-.21-3.02-.45-2.33-.58-3.73-2.65-4.33-5.81-.54-2.83-.51-5.74-.09-8.57.67-4.55,2.89-6.68,6.83-6.69,11.97-.02,23.94,0,35.9,0Z"/>
</svg>