<?xml version="1.0" encoding="UTF-8"?>
<svg id="Layer_1" xmlns="http://www.w3.org/2000/svg" viewBox="0 0 336.12 143.42">
  <defs>
    <style>
      .cls-1 {
        fill: #f6f6f6;
      }
    </style>
  </defs>
  <path class="cls-1" d="M9.23,79.47c5.68,2.68,10.27,5,14.99,7.03,3.19,1.37,4.97,3.48,4.95,6.94-.02,3.38-2.17,5.42-4.88,6.78-3.72,1.86-7.61,3.38-11.39,5.12-.94.43-2.28.88-2.26,2.02.01.97,1.28,1.34,2.15,1.8,3.8,1.99,7.72,3.8,11.36,6.05,5.24,3.24,4.87,9.24-.56,12.27-4.3,2.41-9.1,3.63-13.6,5.55-1.04.45-2.38.74-2.44,1.91-.07,1.19,1.27,1.65,2.25,2.15,2.07,1.07,4.17,2.1,6.19,3.26.7.4,1.5,1.06,1.05,2.09-.41.93-1.31,1.18-2.18.81-3.69-1.58-7.83-2.25-10.77-5.32-3.2-3.34-2.83-7.25.97-10.02,3.2-2.33,6.91-3.72,10.38-5.54,2.16-1.13,2.19-1.89.03-3.11-3.73-2.11-7.84-3.46-11.38-5.94-5.29-3.71-5.28-8.78.15-12.35,3.61-2.37,7.76-3.61,11.63-5.44,1.07-.51,2.55-.95,2.62-2.26.07-1.28-1.46-1.5-2.4-1.95-3.86-1.86-7.76-3.67-11.67-5.44-2.77-1.25-4.04-3.29-4.05-6.36-.01-3.04,1.13-5.16,3.92-6.44,4.12-1.89,8.23-3.82,12.32-5.77.84-.4,2.05-.64,1.98-1.89-.07-1.26-1.31-1.21-2.17-1.61-3.99-1.87-8.08-3.58-11.9-5.75C.2,55.63-1,50.4.81,44.07c.79-2.76,2.08-5.18,4.24-7.17,2.93-2.7,4.48-6.01,4.24-10.12-.42-7.19.59-14.41-.66-21.6C7.98,1.49,9.64.01,13.48,0c.98,0,1.97,0,2.95,0,3.68.02,5,1.74,4.43,5.5-1.21,8.03-.52,16.13-.35,24.18.06,2.71,1.86,5.26,4.01,7.24,3.35,3.1,4.78,6.96,4.7,11.5-.1,5.64-.11,11.28,0,16.91.06,3.22-1.27,5.32-4.18,6.65-4.98,2.28-9.9,4.67-15.81,7.48Z"/>
  <path class="cls-1" d="M69.76,57.92l-16.86-41.15c-.88-2.13-1.97-3.61-3.26-4.44-1.25-.83-3.12-1.27-5.62-1.32v-2.71c1.2.05,2.73.09,4.58.14,1.85.05,3.96.07,6.31.07,2.73,0,5.09-.02,7.08-.07,2.04-.05,3.63-.09,4.79-.14v2.71c-2.36.05-4.12.25-5.27.62-1.11.32-1.73.9-1.87,1.73-.09.79.16,1.97.76,3.54l13.39,32.61-1.46,1.18,11.93-29.14c1.02-2.5,1.48-4.49,1.39-5.97-.05-1.53-.69-2.64-1.94-3.33-1.25-.74-3.17-1.16-5.76-1.25v-2.71c1.25.05,2.5.09,3.75.14,1.3,0,2.54.02,3.75.07h3.68c1.43,0,2.82-.02,4.16-.07,1.34-.05,2.75-.09,4.23-.14v2.71c-1.57.09-2.91.42-4.02.97-1.11.55-2.08,1.41-2.91,2.57-.83,1.16-1.64,2.71-2.43,4.65l-15.89,38.72h-2.5ZM101.56,57.43v-2.71c2.36-.09,4.12-.28,5.27-.56,1.16-.32,1.92-.88,2.29-1.67.37-.83.56-2.08.56-3.75v-31.78c0-1.67-.18-2.89-.56-3.68-.37-.83-1.13-1.41-2.29-1.73-1.16-.32-2.91-.51-5.27-.56v-2.71c1.2.05,2.8.09,4.79.14,1.99.05,4.28.07,6.87.07,2.45,0,4.7-.02,6.73-.07,2.04-.05,3.68-.09,4.93-.14v2.71c-2.36.05-4.12.23-5.27.56-1.16.32-1.94.9-2.36,1.73-.37.79-.55,2.01-.55,3.68v31.78c0,1.67.18,2.91.55,3.75.42.79,1.2,1.34,2.36,1.67,1.16.28,2.91.46,5.27.56v2.71c-1.25-.05-2.89-.09-4.93-.14-2.04-.05-4.28-.07-6.73-.07-2.59,0-4.88.02-6.87.07-1.99.05-3.58.09-4.79.14ZM172.37,57.92l-27.06-44.06h-1.18v34.07c0,1.71.21,3.05.62,4.02.42.93,1.23,1.6,2.43,2.01,1.25.42,3.1.67,5.55.76v2.71c-.93-.09-2.27-.14-4.02-.14-1.76-.05-3.65-.07-5.69-.07s-4.05.02-5.76.07c-1.71,0-3.05.05-4.02.14v-2.71c2.27-.09,3.98-.35,5.13-.76,1.2-.42,1.99-1.09,2.36-2.01.42-.97.62-2.31.62-4.02v-30.95c0-1.67-.19-2.89-.56-3.68-.37-.83-1.13-1.41-2.29-1.73-1.16-.32-2.91-.51-5.27-.56v-2.71c1.02.05,2.38.09,4.09.14,1.71.05,3.63.07,5.76.07,1.48,0,2.84-.02,4.09-.07,1.25-.05,2.29-.09,3.12-.14l21.58,35.18h1.18v-25.67c0-1.76-.21-3.1-.62-4.02s-1.23-1.6-2.43-2.01c-1.2-.46-3.03-.72-5.48-.76v-2.71c.97.05,2.31.09,4.02.14,1.76.05,3.65.07,5.69.07s4.05-.02,5.76-.07c1.71-.05,3.05-.09,4.02-.14v2.71c-2.27.05-4,.28-5.2.69-1.16.42-1.94,1.11-2.36,2.08-.42.93-.62,2.27-.62,4.02v40.11h-3.47ZM191.38,57.43v-2.71c2.36-.09,4.12-.28,5.27-.56,1.16-.28,1.92-.83,2.29-1.67.37-.83.56-2.08.56-3.75v-31.78c0-1.67-.19-2.89-.56-3.68-.37-.83-1.13-1.41-2.29-1.73-1.16-.32-2.91-.51-5.27-.56v-2.71c2.45.05,5.64.09,9.58.14,3.98.05,8.63.07,13.95.07h5c1.71,0,3.33-.02,4.86-.07,1.57-.05,3.01-.09,4.3-.14,0,2.27.09,4.53.28,6.8.23,2.22.51,4.44.83,6.66h-2.77c-.65-2.73-1.41-4.86-2.29-6.38-.83-1.57-1.92-2.66-3.26-3.26-1.34-.6-3.08-.9-5.2-.9h-10.13v37.68c0,1.57.14,2.78.42,3.61.28.83.83,1.39,1.67,1.67.88.23,2.17.35,3.89.35h2.91c2.96,0,5.34-.37,7.15-1.11,1.8-.79,3.28-2.2,4.44-4.23,1.2-2.04,2.34-4.93,3.4-8.67h2.78c-.37,2.78-.65,5.57-.83,8.4-.18,2.78-.28,5.62-.28,8.53-2.17-.09-4.67-.14-7.49-.14-2.78-.05-6.01-.07-9.71-.07-5.27,0-9.9.02-13.88.07-3.93,0-7.12.05-9.58.14ZM204.28,34.05v-2.64h12.21v2.64h-12.21ZM219.48,42.93c-.23-2.27-.6-4.02-1.11-5.27-.51-1.3-1.27-2.22-2.29-2.78-1.02-.56-2.38-.83-4.09-.83v-2.64c2.36,0,4.07-.67,5.13-2.01,1.11-1.39,1.83-3.68,2.15-6.87h2.43c-.19,2.73-.28,4.81-.28,6.24.05,1.43.07,2.75.07,3.96v2.98c.05.93.09,1.97.14,3.12.09,1.11.18,2.47.28,4.09h-2.43ZM281.35,57.92l-27.06-44.06h-1.18v34.07c0,1.71.21,3.05.63,4.02.42.93,1.22,1.6,2.43,2.01,1.25.42,3.1.67,5.55.76v2.71c-.92-.09-2.27-.14-4.02-.14-1.76-.05-3.65-.07-5.69-.07s-4.05.02-5.76.07c-1.71,0-3.05.05-4.02.14v-2.71c2.27-.09,3.98-.35,5.13-.76,1.2-.42,1.99-1.09,2.36-2.01.42-.97.63-2.31.63-4.02v-30.95c0-1.67-.18-2.89-.56-3.68-.37-.83-1.13-1.41-2.29-1.73-1.16-.32-2.91-.51-5.27-.56v-2.71c1.02.05,2.38.09,4.09.14,1.71.05,3.63.07,5.76.07,1.48,0,2.85-.02,4.09-.07,1.25-.05,2.29-.09,3.12-.14l21.58,35.18h1.18v-25.67c0-1.76-.21-3.1-.62-4.02-.42-.93-1.23-1.6-2.43-2.01-1.2-.46-3.03-.72-5.48-.76v-2.71c.97.05,2.31.09,4.02.14,1.76.05,3.65.07,5.69.07s4.05-.02,5.76-.07c1.71-.05,3.05-.09,4.02-.14v2.71c-2.27.05-4,.28-5.2.69-1.16.42-1.94,1.11-2.36,2.08-.42.93-.63,2.27-.63,4.02v40.11h-3.47ZM319.95,58.41c-2.64,0-4.9-.28-6.8-.83-1.85-.56-3.38-1.11-4.58-1.67-1.2-.56-2.15-.83-2.84-.83-.6,0-1.09.25-1.46.76-.32.51-.58,1.25-.76,2.22h-2.77c.09-1.02.16-2.27.21-3.75.05-1.48.07-3.38.07-5.69.05-2.31.07-5.2.07-8.67h2.77c.37,4.86,1.9,8.7,4.58,11.52,2.68,2.78,6.18,4.16,10.48,4.16,3.1,0,5.57-.79,7.42-2.36,1.9-1.62,2.84-3.79,2.84-6.52,0-1.71-.42-3.21-1.25-4.51-.79-1.34-2.08-2.57-3.88-3.68-1.76-1.11-4.12-2.2-7.08-3.26-3.56-1.3-6.48-2.68-8.74-4.16-2.22-1.48-3.86-3.12-4.93-4.93-1.02-1.85-1.53-3.93-1.53-6.24,0-2.59.58-4.83,1.73-6.73,1.2-1.9,2.89-3.35,5.07-4.37,2.17-1.02,4.72-1.53,7.63-1.53,2.41,0,4.42.28,6.04.83,1.62.51,2.96,1.04,4.02,1.6,1.06.55,1.97.83,2.71.83.56,0,1.02-.23,1.39-.69.37-.51.65-1.25.83-2.22h2.77c-.09,1.02-.16,2.17-.21,3.47-.05,1.25-.09,2.82-.14,4.72v7.29h-2.84c-.37-3.98-1.78-7.15-4.23-9.51-2.45-2.41-5.53-3.61-9.23-3.61-2.91,0-5.18.72-6.8,2.15-1.57,1.39-2.36,3.31-2.36,5.76,0,1.62.42,3.08,1.25,4.37.83,1.25,2.2,2.45,4.09,3.61,1.94,1.11,4.53,2.27,7.77,3.47,5.27,1.94,9.07,4.12,11.38,6.52,2.31,2.41,3.47,5.37,3.47,8.88,0,4.16-1.46,7.47-4.37,9.92-2.91,2.45-6.85,3.68-11.79,3.68Z"/>
  <path class="cls-1" d="M49.31,138.1v-2.71c2.36-.09,4.12-.28,5.27-.56,1.16-.28,1.92-.83,2.29-1.67s.56-2.08.56-3.75v-31.78c0-1.67-.19-2.89-.56-3.68-.37-.83-1.13-1.41-2.29-1.73s-2.91-.51-5.27-.56v-2.71c2.45.05,5.64.09,9.58.14,3.98.05,8.63.07,13.95.07h5c1.71,0,3.33-.02,4.86-.07,1.57-.05,3.01-.09,4.3-.14,0,2.27.09,4.53.28,6.8.23,2.22.51,4.44.83,6.66h-2.78c-.65-2.73-1.41-4.86-2.29-6.38-.83-1.57-1.92-2.66-3.26-3.26-1.34-.6-3.08-.9-5.2-.9h-10.13v37.68c0,1.57.14,2.78.42,3.61.28.83.83,1.39,1.67,1.67.88.23,2.17.35,3.89.35h2.91c2.96,0,5.34-.37,7.15-1.11,1.8-.79,3.28-2.2,4.44-4.23,1.2-2.04,2.34-4.93,3.4-8.67h2.78c-.37,2.78-.65,5.57-.83,8.4-.18,2.78-.28,5.62-.28,8.53-2.17-.09-4.67-.14-7.49-.14-2.78-.05-6.01-.07-9.71-.07-5.27,0-9.9.02-13.88.07-3.93,0-7.12.05-9.58.14ZM62.22,114.71v-2.64h12.21v2.64h-12.21ZM77.41,123.59c-.23-2.27-.6-4.02-1.11-5.27-.51-1.3-1.27-2.22-2.29-2.78-1.02-.56-2.38-.83-4.09-.83v-2.64c2.36,0,4.07-.67,5.13-2.01,1.11-1.39,1.83-3.68,2.15-6.87h2.43c-.18,2.73-.28,4.81-.28,6.24.05,1.43.07,2.75.07,3.96v2.98c.05.93.09,1.97.14,3.12.09,1.11.19,2.47.28,4.09h-2.43ZM120.33,139.07c-2.64,0-4.9-.28-6.8-.83-1.85-.56-3.38-1.11-4.58-1.67-1.2-.56-2.15-.83-2.84-.83-.6,0-1.09.25-1.46.76-.32.51-.58,1.25-.76,2.22h-2.78c.09-1.02.16-2.27.21-3.75.05-1.48.07-3.38.07-5.69.05-2.31.07-5.2.07-8.67h2.78c.37,4.86,1.9,8.7,4.58,11.52,2.68,2.78,6.18,4.16,10.48,4.16,3.1,0,5.57-.79,7.42-2.36,1.9-1.62,2.84-3.79,2.84-6.52,0-1.71-.42-3.21-1.25-4.51-.79-1.34-2.08-2.57-3.89-3.68-1.76-1.11-4.12-2.2-7.08-3.26-3.56-1.3-6.48-2.68-8.74-4.16-2.22-1.48-3.86-3.12-4.93-4.93-1.02-1.85-1.53-3.93-1.53-6.24,0-2.59.58-4.83,1.73-6.73,1.2-1.9,2.89-3.35,5.07-4.37,2.17-1.02,4.72-1.53,7.63-1.53,2.41,0,4.42.28,6.04.83,1.62.51,2.96,1.04,4.02,1.6,1.06.55,1.97.83,2.71.83.56,0,1.02-.23,1.39-.69.37-.51.65-1.25.83-2.22h2.78c-.09,1.02-.16,2.17-.21,3.47-.05,1.25-.09,2.82-.14,4.72v7.29h-2.84c-.37-3.98-1.78-7.15-4.23-9.51-2.45-2.41-5.53-3.61-9.23-3.61-2.91,0-5.18.72-6.8,2.15-1.57,1.39-2.36,3.31-2.36,5.76,0,1.62.42,3.08,1.25,4.37.83,1.25,2.2,2.45,4.09,3.61,1.94,1.11,4.53,2.27,7.77,3.47,5.27,1.94,9.07,4.12,11.38,6.52,2.31,2.41,3.47,5.37,3.47,8.88,0,4.16-1.46,7.47-4.37,9.92-2.91,2.45-6.85,3.68-11.8,3.68ZM166.37,139.07c-2.64,0-4.9-.28-6.8-.83-1.85-.56-3.38-1.11-4.58-1.67-1.2-.56-2.15-.83-2.84-.83-.6,0-1.09.25-1.46.76-.32.51-.58,1.25-.76,2.22h-2.78c.09-1.02.16-2.27.21-3.75.05-1.48.07-3.38.07-5.69.05-2.31.07-5.2.07-8.67h2.78c.37,4.86,1.9,8.7,4.58,11.52,2.68,2.78,6.18,4.16,10.48,4.16,3.1,0,5.57-.79,7.42-2.36,1.9-1.62,2.84-3.79,2.84-6.52,0-1.71-.42-3.21-1.25-4.51-.79-1.34-2.08-2.57-3.89-3.68-1.76-1.11-4.12-2.2-7.08-3.26-3.56-1.3-6.48-2.68-8.74-4.16-2.22-1.48-3.86-3.12-4.93-4.93-1.02-1.85-1.53-3.93-1.53-6.24,0-2.59.58-4.83,1.73-6.73,1.2-1.9,2.89-3.35,5.07-4.37,2.17-1.02,4.72-1.53,7.63-1.53,2.41,0,4.42.28,6.04.83,1.62.51,2.96,1.04,4.02,1.6,1.06.55,1.97.83,2.71.83.56,0,1.02-.23,1.39-.69.37-.51.65-1.25.83-2.22h2.78c-.09,1.02-.16,2.17-.21,3.47-.05,1.25-.09,2.82-.14,4.72v7.29h-2.84c-.37-3.98-1.78-7.15-4.23-9.51-2.45-2.41-5.53-3.61-9.23-3.61-2.91,0-5.18.72-6.8,2.15-1.57,1.39-2.36,3.31-2.36,5.76,0,1.62.42,3.08,1.25,4.37.83,1.25,2.2,2.45,4.09,3.61,1.94,1.11,4.53,2.27,7.77,3.47,5.27,1.94,9.07,4.12,11.38,6.52,2.31,2.41,3.47,5.37,3.47,8.88,0,4.16-1.46,7.47-4.37,9.92-2.91,2.45-6.85,3.68-11.8,3.68ZM191.14,138.1v-2.71c2.36-.09,4.12-.28,5.27-.56,1.16-.28,1.92-.83,2.29-1.67.37-.83.56-2.08.56-3.75v-31.78c0-1.67-.19-2.89-.56-3.68-.37-.83-1.13-1.41-2.29-1.73-1.16-.32-2.91-.51-5.27-.56v-2.71c2.45.05,5.64.09,9.58.14,3.98.05,8.63.07,13.95.07h5c1.71,0,3.33-.02,4.86-.07,1.57-.05,3.01-.09,4.3-.14,0,2.27.09,4.53.28,6.8.23,2.22.51,4.44.83,6.66h-2.77c-.65-2.73-1.41-4.86-2.29-6.38-.83-1.57-1.92-2.66-3.26-3.26-1.34-.6-3.08-.9-5.2-.9h-10.13v37.68c0,1.57.14,2.78.42,3.61.28.83.83,1.39,1.67,1.67.88.23,2.17.35,3.89.35h2.91c2.96,0,5.34-.37,7.15-1.11,1.81-.79,3.28-2.2,4.44-4.23,1.2-2.04,2.34-4.93,3.4-8.67h2.78c-.37,2.78-.65,5.57-.83,8.4-.18,2.78-.28,5.62-.28,8.53-2.17-.09-4.67-.14-7.49-.14-2.78-.05-6.01-.07-9.71-.07-5.27,0-9.9.02-13.88.07-3.93,0-7.12.05-9.58.14ZM204.05,114.71v-2.64h12.21v2.64h-12.21ZM219.24,123.59c-.23-2.27-.6-4.02-1.11-5.27-.51-1.3-1.27-2.22-2.29-2.78-1.02-.56-2.38-.83-4.09-.83v-2.64c2.36,0,4.07-.67,5.13-2.01,1.11-1.39,1.83-3.68,2.15-6.87h2.43c-.18,2.73-.28,4.81-.28,6.24.05,1.43.07,2.75.07,3.96v2.98c.05.93.09,1.97.14,3.12.09,1.11.19,2.47.28,4.09h-2.43ZM281.11,138.58l-27.06-44.06h-1.18v34.07c0,1.71.21,3.05.63,4.02.42.93,1.23,1.6,2.43,2.01,1.25.42,3.1.67,5.55.76v2.71c-.92-.09-2.27-.14-4.02-.14-1.76-.05-3.65-.07-5.69-.07s-4.05.02-5.76.07c-1.71,0-3.05.05-4.02.14v-2.71c2.27-.09,3.98-.35,5.13-.76,1.2-.42,1.99-1.09,2.36-2.01.42-.97.62-2.31.62-4.02v-30.95c0-1.67-.18-2.89-.56-3.68-.37-.83-1.13-1.41-2.29-1.73-1.16-.32-2.91-.51-5.27-.56v-2.71c1.02.05,2.38.09,4.09.14,1.71.05,3.63.07,5.76.07,1.48,0,2.84-.02,4.09-.07,1.25-.05,2.29-.09,3.12-.14l21.58,35.18h1.18v-25.67c0-1.76-.21-3.1-.62-4.02-.42-.93-1.23-1.6-2.43-2.01-1.2-.46-3.03-.72-5.48-.76v-2.71c.97.05,2.31.09,4.02.14,1.76.05,3.65.07,5.69.07s4.05-.02,5.76-.07c1.71-.05,3.05-.09,4.02-.14v2.71c-2.27.05-4,.28-5.2.69-1.16.42-1.94,1.11-2.36,2.08-.42.93-.62,2.27-.62,4.02v40.11h-3.47ZM319.71,139.07c-2.64,0-4.9-.28-6.8-.83-1.85-.56-3.38-1.11-4.58-1.67s-2.15-.83-2.84-.83c-.6,0-1.09.25-1.46.76-.32.51-.58,1.25-.76,2.22h-2.78c.09-1.02.16-2.27.21-3.75.05-1.48.07-3.38.07-5.69.05-2.31.07-5.2.07-8.67h2.77c.37,4.86,1.9,8.7,4.58,11.52,2.68,2.78,6.18,4.16,10.48,4.16,3.1,0,5.57-.79,7.42-2.36,1.9-1.62,2.84-3.79,2.84-6.52,0-1.71-.42-3.21-1.25-4.51-.79-1.34-2.08-2.57-3.88-3.68-1.76-1.11-4.12-2.2-7.08-3.26-3.56-1.3-6.48-2.68-8.74-4.16-2.22-1.48-3.86-3.12-4.93-4.93-1.02-1.85-1.53-3.93-1.53-6.24,0-2.59.58-4.83,1.74-6.73,1.2-1.9,2.89-3.35,5.06-4.37,2.17-1.02,4.72-1.53,7.63-1.53,2.4,0,4.42.28,6.04.83,1.62.51,2.96,1.04,4.02,1.6,1.06.55,1.97.83,2.71.83.56,0,1.02-.23,1.39-.69.37-.51.65-1.25.83-2.22h2.77c-.09,1.02-.16,2.17-.21,3.47-.05,1.25-.09,2.82-.14,4.72v7.29h-2.84c-.37-3.98-1.78-7.15-4.23-9.51-2.45-2.41-5.53-3.61-9.23-3.61-2.91,0-5.18.72-6.8,2.15-1.57,1.39-2.36,3.31-2.36,5.76,0,1.62.42,3.08,1.25,4.37.83,1.25,2.2,2.45,4.09,3.61,1.94,1.11,4.53,2.27,7.77,3.47,5.27,1.94,9.07,4.12,11.38,6.52,2.31,2.41,3.47,5.37,3.47,8.88,0,4.16-1.46,7.47-4.37,9.92-2.91,2.45-6.85,3.68-11.79,3.68Z"/>
</svg>