<?xml version="1.0" encoding="UTF-8"?>
<svg id="Layer_1" xmlns="http://www.w3.org/2000/svg" viewBox="0 0 66.27 257.77">
  <defs>
    <style>
      .cls-1 {
        fill: #292929;
      }
    </style>
  </defs>
  <path class="cls-1" d="M23.69,140.18c9.6,4.53,17.35,8.46,25.33,11.87,5.39,2.31,8.4,5.88,8.37,11.73-.03,5.71-3.66,9.16-8.25,11.45-6.29,3.14-12.86,5.71-19.25,8.66-1.58.73-3.85,1.49-3.83,3.41.02,1.64,2.16,2.27,3.63,3.04,6.42,3.37,13.04,6.41,19.19,10.22,8.85,5.48,8.24,15.61-.94,20.74-7.27,4.06-15.38,6.13-22.99,9.39-1.76.75-4.02,1.25-4.13,3.23-.11,2.01,2.15,2.78,3.8,3.64,3.5,1.81,7.04,3.54,10.45,5.5,1.19.68,2.54,1.8,1.77,3.52-.7,1.57-2.21,2-3.68,1.37-6.23-2.66-13.23-3.8-18.21-8.99-5.41-5.64-4.77-12.26,1.64-16.93,5.41-3.94,11.67-6.29,17.54-9.35,3.65-1.9,3.71-3.19.05-5.26-6.3-3.56-13.24-5.84-19.22-10.04-8.94-6.27-8.91-14.83.26-20.87,6.1-4.01,13.11-6.1,19.65-9.19,1.81-.85,4.3-1.6,4.42-3.82.11-2.16-2.47-2.53-4.06-3.3-6.53-3.15-13.11-6.19-19.72-9.19-4.67-2.12-6.83-5.56-6.85-10.74-.02-5.14,1.91-8.72,6.62-10.88,6.97-3.19,13.91-6.45,20.82-9.76,1.42-.68,3.46-1.08,3.34-3.19-.12-2.13-2.22-2.04-3.67-2.72-6.75-3.16-13.66-6.05-20.12-9.72-7.26-4.13-9.29-12.96-6.23-23.65,1.33-4.66,3.52-8.75,7.16-12.11,4.94-4.57,7.57-10.16,7.16-17.09-.72-12.15,1-24.34-1.12-36.5-1.09-6.25,1.72-8.75,8.21-8.76,1.66,0,3.32,0,4.99,0,6.22.03,8.45,2.94,7.49,9.3-2.05,13.58-.88,27.25-.6,40.86.09,4.57,3.15,8.88,6.78,12.24,5.66,5.24,8.08,11.75,7.94,19.43-.17,9.52-.18,19.05,0,28.57.11,5.44-2.15,8.99-7.06,11.24-8.41,3.86-16.73,7.9-26.72,12.63Z"/>
</svg>