<svg width="337" height="144" viewBox="0 0 337 144" fill="none" xmlns="http://www.w3.org/2000/svg">
<path d="M9.21387 79.48C14.8939 82.16 19.4839 84.48 24.2039 86.51C27.3939 87.88 29.1739 89.99 29.1539 93.45C29.1339 96.83 26.9839 98.87 24.2739 100.23C20.5539 102.09 16.6639 103.61 12.8839 105.35C11.9439 105.78 10.6039 106.23 10.6239 107.37C10.6339 108.34 11.9039 108.71 12.7739 109.17C16.5739 111.16 20.4939 112.97 24.1339 115.22C29.3739 118.46 29.0039 124.46 23.5739 127.49C19.2739 129.9 14.4739 131.12 9.97387 133.04C8.93387 133.49 7.59387 133.78 7.53387 134.95C7.46387 136.14 8.80387 136.6 9.78387 137.1C11.8539 138.17 13.9539 139.2 15.9739 140.36C16.6739 140.76 17.4739 141.42 17.0239 142.45C16.6139 143.38 15.7139 143.63 14.8439 143.26C11.1539 141.68 7.01387 141.01 4.07387 137.94C0.873874 134.6 1.24387 130.69 5.04387 127.92C8.24387 125.59 11.9539 124.2 15.4239 122.38C17.5839 121.25 17.6139 120.49 15.4539 119.27C11.7239 117.16 7.61387 115.81 4.07387 113.33C-1.21613 109.62 -1.20613 104.55 4.22387 100.98C7.83387 98.61 11.9839 97.37 15.8539 95.54C16.9239 95.03 18.4039 94.59 18.4739 93.28C18.5439 92 17.0139 91.78 16.0739 91.33C12.2139 89.47 8.31387 87.66 4.40387 85.89C1.63387 84.64 0.363874 82.6 0.353874 79.53C0.343874 76.49 1.48387 74.37 4.27387 73.09C8.39387 71.2 12.5039 69.27 16.5939 67.32C17.4339 66.92 18.6439 66.68 18.5739 65.43C18.5039 64.17 17.2639 64.22 16.4039 63.82C12.4139 61.95 8.32387 60.24 4.50387 58.07C0.203874 55.63 -0.996126 50.4 0.813874 44.07C1.60387 41.31 2.89387 38.89 5.05387 36.9C7.98387 34.2 9.53387 30.89 9.29387 26.78C8.87387 19.59 9.88387 12.37 8.63387 5.18002C7.99387 1.48002 9.65387 0 13.4939 0C14.4739 0 15.4639 0 16.4439 0C20.1239 0.02 21.4439 1.74 20.8739 5.5C19.6639 13.53 20.3539 21.63 20.5239 29.68C20.5839 32.39 22.3839 34.94 24.5339 36.92C27.8839 40.02 29.3139 43.88 29.2339 48.42C29.1339 54.06 29.1239 59.7 29.2339 65.33C29.2939 68.55 27.9639 70.65 25.0539 71.98C20.0739 74.26 15.1539 76.65 9.24387 79.46L9.21387 79.48Z" fill="#F6F6F6"/>
<path d="M69.7439 57.9198L52.8839 16.7698C52.0039 14.6398 50.9139 13.1598 49.6239 12.3298C48.3739 11.4998 46.5039 11.0598 44.0039 11.0098V8.29984C45.2039 8.34984 46.7339 8.38982 48.5839 8.43982C50.4339 8.48982 52.5439 8.50983 54.8939 8.50983C57.6239 8.50983 59.9839 8.48982 61.9739 8.43982C64.0139 8.38982 65.6039 8.34984 66.7639 8.29984V11.0098C64.4039 11.0598 62.6439 11.2598 61.4939 11.6298C60.3839 11.9498 59.7639 12.5298 59.6239 13.3598C59.5339 14.1498 59.7839 15.3298 60.3839 16.8998L73.7739 49.5098L72.3139 50.6898L84.2439 21.5498C85.2639 19.0498 85.7239 17.0598 85.6339 15.5798C85.5839 14.0498 84.9439 12.9398 83.6939 12.2498C82.4439 11.5098 80.5239 11.0898 77.9339 10.9998V8.28983C79.1839 8.33983 80.4339 8.37984 81.6839 8.42984C82.9839 8.42984 84.2239 8.44982 85.4339 8.49982H89.1139C90.5439 8.49982 91.9339 8.47984 93.2739 8.42984C94.6139 8.37984 96.0239 8.33983 97.5039 8.28983V10.9998C95.9339 11.0898 94.5939 11.4198 93.4839 11.9698C92.3739 12.5198 91.4039 13.3798 90.5739 14.5398C89.7439 15.6998 88.9339 17.2498 88.1439 19.1898L72.2539 57.9098H69.7539L69.7439 57.9198ZM101.544 57.4398V54.7298C103.904 54.6398 105.664 54.4498 106.814 54.1698C107.974 53.8498 108.734 53.2898 109.104 52.4998C109.474 51.6698 109.664 50.4198 109.664 48.7498V16.9698C109.664 15.2998 109.484 14.0798 109.104 13.2898C108.734 12.4598 107.974 11.8798 106.814 11.5598C105.654 11.2398 103.904 11.0498 101.544 10.9998V8.28983C102.744 8.33983 104.344 8.37984 106.334 8.42984C108.324 8.47984 110.614 8.49982 113.204 8.49982C115.654 8.49982 117.904 8.47984 119.934 8.42984C121.974 8.37984 123.614 8.33983 124.864 8.28983V10.9998C122.504 11.0498 120.744 11.2298 119.594 11.5598C118.434 11.8798 117.654 12.4598 117.234 13.2898C116.864 14.0798 116.684 15.2998 116.684 16.9698V48.7498C116.684 50.4198 116.864 51.6598 117.234 52.4998C117.654 53.2898 118.434 53.8398 119.594 54.1698C120.754 54.4498 122.504 54.6298 124.864 54.7298V57.4398C123.614 57.3898 121.974 57.3498 119.934 57.2998C117.894 57.2498 115.654 57.2298 113.204 57.2298C110.614 57.2298 108.324 57.2498 106.334 57.2998C104.344 57.3498 102.754 57.3898 101.544 57.4398ZM172.354 57.9198L145.294 13.8598H144.114V47.9298C144.114 49.6398 144.324 50.9798 144.734 51.9498C145.154 52.8798 145.964 53.5498 147.164 53.9598C148.414 54.3798 150.264 54.6298 152.714 54.7198V57.4298C151.784 57.3398 150.444 57.2898 148.694 57.2898C146.934 57.2398 145.044 57.2198 143.004 57.2198C140.964 57.2198 138.954 57.2398 137.244 57.2898C135.534 57.2898 134.194 57.3398 133.224 57.4298V54.7198C135.494 54.6298 137.204 54.3698 138.354 53.9598C139.554 53.5398 140.344 52.8698 140.714 51.9498C141.134 50.9798 141.334 49.6398 141.334 47.9298V16.9798C141.334 15.3098 141.144 14.0898 140.774 13.2998C140.404 12.4698 139.644 11.8898 138.484 11.5698C137.324 11.2498 135.574 11.0598 133.214 11.0098V8.29984C134.234 8.34984 135.594 8.38982 137.304 8.43982C139.014 8.48982 140.934 8.50983 143.064 8.50983C144.544 8.50983 145.904 8.48982 147.154 8.43982C148.404 8.38982 149.444 8.34984 150.274 8.29984L171.854 43.4798H173.034V17.8098C173.034 16.0498 172.824 14.7098 172.414 13.7898C172.004 12.8698 171.184 12.1898 169.984 11.7798C168.784 11.3198 166.954 11.0598 164.504 11.0198V8.30981C165.474 8.35981 166.814 8.39983 168.524 8.44983C170.284 8.49983 172.174 8.51984 174.214 8.51984C176.254 8.51984 178.264 8.49983 179.974 8.44983C181.684 8.39983 183.024 8.35981 183.994 8.30981V11.0198C181.724 11.0698 179.994 11.2998 178.794 11.7098C177.634 12.1298 176.854 12.8198 176.434 13.7898C176.014 14.7198 175.814 16.0598 175.814 17.8098V57.9198H172.344H172.354ZM191.364 57.4398V54.7298C193.724 54.6398 195.484 54.4498 196.634 54.1698C197.794 53.8898 198.554 53.3398 198.924 52.4998C199.294 51.6698 199.484 50.4198 199.484 48.7498V16.9698C199.484 15.2998 199.294 14.0798 198.924 13.2898C198.554 12.4598 197.794 11.8798 196.634 11.5598C195.474 11.2398 193.724 11.0498 191.364 10.9998V8.28983C193.814 8.33983 197.004 8.37984 200.944 8.42984C204.924 8.47984 209.574 8.49982 214.894 8.49982H219.894C221.604 8.49982 223.224 8.47984 224.754 8.42984C226.324 8.37984 227.764 8.33983 229.054 8.28983C229.054 10.5598 229.144 12.8198 229.334 15.0898C229.564 17.3098 229.844 19.5298 230.164 21.7498H227.394C226.744 19.0198 225.984 16.8898 225.104 15.3698C224.274 13.7998 223.184 12.7098 221.844 12.1098C220.504 11.5098 218.764 11.2098 216.644 11.2098H206.514V48.8898C206.514 50.4598 206.654 51.6698 206.934 52.4998C207.214 53.3298 207.764 53.8898 208.604 54.1698C209.484 54.3998 210.774 54.5198 212.494 54.5198H215.404C218.364 54.5198 220.744 54.1498 222.554 53.4098C224.354 52.6198 225.834 51.2098 226.994 49.1798C228.194 47.1398 229.334 44.2498 230.394 40.5098H233.174C232.804 43.2898 232.524 46.0798 232.344 48.9098C232.164 51.6898 232.064 54.5298 232.064 57.4398C229.894 57.3498 227.394 57.2998 224.574 57.2998C221.794 57.2498 218.564 57.2298 214.864 57.2298C209.594 57.2298 204.964 57.2498 200.984 57.2998C197.054 57.2998 193.864 57.3498 191.404 57.4398H191.364ZM204.264 34.0598V31.4198H216.474V34.0598H204.264ZM219.464 42.9398C219.234 40.6698 218.864 38.9198 218.354 37.6698C217.844 36.3698 217.084 35.4498 216.064 34.8898C215.044 34.3298 213.684 34.0598 211.974 34.0598V31.4198C214.334 31.4198 216.044 30.7498 217.104 29.4098C218.214 28.0198 218.934 25.7298 219.254 22.5398H221.684C221.494 25.2698 221.404 27.3498 221.404 28.7798C221.454 30.2098 221.474 31.5298 221.474 32.7398V35.7198C221.524 36.6498 221.564 37.6898 221.614 38.8398C221.704 39.9498 221.794 41.3098 221.894 42.9298H219.464V42.9398ZM281.334 57.9198L254.274 13.8598H253.094V47.9298C253.094 49.6398 253.304 50.9798 253.724 51.9498C254.144 52.8798 254.944 53.5498 256.154 53.9598C257.404 54.3798 259.254 54.6298 261.704 54.7198V57.4298C260.784 57.3398 259.434 57.2898 257.684 57.2898C255.924 57.2398 254.034 57.2198 251.994 57.2198C249.954 57.2198 247.944 57.2398 246.234 57.2898C244.524 57.2898 243.184 57.3398 242.214 57.4298V54.7198C244.484 54.6298 246.194 54.3698 247.344 53.9598C248.544 53.5398 249.334 52.8698 249.704 51.9498C250.124 50.9798 250.334 49.6398 250.334 47.9298V16.9798C250.334 15.3098 250.154 14.0898 249.774 13.2998C249.404 12.4698 248.644 11.8898 247.484 11.5698C246.324 11.2498 244.574 11.0598 242.214 11.0098V8.29984C243.234 8.34984 244.594 8.38982 246.304 8.43982C248.014 8.48982 249.934 8.50983 252.064 8.50983C253.544 8.50983 254.914 8.48982 256.154 8.43982C257.404 8.38982 258.444 8.34984 259.274 8.29984L280.854 43.4798H282.034V17.8098C282.034 16.0498 281.824 14.7098 281.414 13.7898C280.994 12.8598 280.184 12.1898 278.984 11.7798C277.784 11.3198 275.954 11.0598 273.504 11.0198V8.30981C274.474 8.35981 275.814 8.39983 277.524 8.44983C279.284 8.49983 281.174 8.51984 283.214 8.51984C285.254 8.51984 287.264 8.49983 288.974 8.44983C290.684 8.39983 292.024 8.35981 292.994 8.30981V11.0198C290.724 11.0698 288.994 11.2998 287.794 11.7098C286.634 12.1298 285.854 12.8198 285.434 13.7898C285.014 14.7198 284.804 16.0598 284.804 17.8098V57.9198H281.334ZM319.934 58.4098C317.294 58.4098 315.034 58.1298 313.134 57.5798C311.284 57.0198 309.754 56.4698 308.554 55.9098C307.354 55.3498 306.404 55.0798 305.714 55.0798C305.114 55.0798 304.624 55.3298 304.254 55.8398C303.934 56.3498 303.674 57.0898 303.494 58.0598H300.724C300.814 57.0398 300.884 55.7898 300.934 54.3098C300.984 52.8298 301.004 50.9298 301.004 48.6198C301.054 46.3098 301.074 43.4198 301.074 39.9498H303.844C304.214 44.8098 305.744 48.6498 308.424 51.4698C311.104 54.2498 314.604 55.6298 318.904 55.6298C322.004 55.6298 324.474 54.8398 326.324 53.2698C328.224 51.6498 329.164 49.4798 329.164 46.7498C329.164 45.0398 328.744 43.5398 327.914 42.2398C327.124 40.8998 325.834 39.6698 324.034 38.5598C322.274 37.4498 319.914 36.3598 316.954 35.2998C313.394 33.9998 310.474 32.6198 308.214 31.1398C305.994 29.6598 304.354 28.0198 303.284 26.2098C302.264 24.3598 301.754 22.2798 301.754 19.9698C301.754 17.3798 302.334 15.1398 303.484 13.2398C304.684 11.3398 306.374 9.88984 308.554 8.86984C310.724 7.84984 313.274 7.33984 316.184 7.33984C318.594 7.33984 320.604 7.61983 322.224 8.16983C323.844 8.67983 325.184 9.20984 326.244 9.76984C327.304 10.3198 328.214 10.5998 328.954 10.5998C329.514 10.5998 329.974 10.3698 330.344 9.90982C330.714 9.39982 330.994 8.65982 331.174 7.68982H333.944C333.854 8.70982 333.784 9.85982 333.734 11.1598C333.684 12.4098 333.644 13.9798 333.594 15.8798V23.1698H330.754C330.384 19.1898 328.974 16.0198 326.524 13.6598C324.074 11.2498 320.994 10.0498 317.294 10.0498C314.384 10.0498 312.114 10.7698 310.494 12.1998C308.924 13.5898 308.134 15.5098 308.134 17.9598C308.134 19.5798 308.554 21.0398 309.384 22.3298C310.214 23.5798 311.584 24.7798 313.474 25.9398C315.414 27.0498 318.004 28.2098 321.244 29.4098C326.514 31.3498 330.314 33.5298 332.624 35.9298C334.934 38.3398 336.094 41.2998 336.094 44.8098C336.094 48.9698 334.634 52.2798 331.724 54.7298C328.814 57.1798 324.874 58.4098 319.934 58.4098Z" fill="#F6F6F6"/>
<path d="M49.2939 138.1V135.39C51.6539 135.3 53.4139 135.11 54.5639 134.83C55.7239 134.55 56.4839 134 56.8539 133.16C57.2239 132.32 57.4139 131.08 57.4139 129.41V97.63C57.4139 95.96 57.2239 94.74 56.8539 93.95C56.4839 93.12 55.7239 92.54 54.5639 92.22C53.4039 91.9 51.6539 91.71 49.2939 91.66V88.95C51.7439 89 54.9339 89.04 58.8739 89.09C62.8539 89.14 67.5039 89.16 72.8239 89.16H77.8239C79.5339 89.16 81.1539 89.14 82.6839 89.09C84.2539 89.04 85.6939 89 86.9839 88.95C86.9839 91.22 87.0739 93.48 87.2639 95.75C87.4939 97.97 87.7739 100.19 88.0939 102.41H85.3139C84.6639 99.68 83.9039 97.55 83.0239 96.03C82.1939 94.46 81.1039 93.37 79.7639 92.77C78.4239 92.17 76.6839 91.87 74.5639 91.87H64.4339V129.55C64.4339 131.12 64.5739 132.33 64.8539 133.16C65.1339 133.99 65.6839 134.55 66.5239 134.83C67.4039 135.06 68.6939 135.18 70.4139 135.18H73.3239C76.2839 135.18 78.6639 134.81 80.4739 134.07C82.2739 133.28 83.7539 131.87 84.9139 129.84C86.1139 127.8 87.2539 124.91 88.3139 121.17H91.0939C90.7239 123.95 90.4439 126.74 90.2639 129.57C90.0839 132.35 89.9839 135.19 89.9839 138.1C87.8139 138.01 85.3139 137.96 82.4939 137.96C79.7139 137.91 76.4839 137.89 72.7839 137.89C67.5139 137.89 62.8839 137.91 58.9039 137.96C54.9739 137.96 51.7839 138.01 49.3239 138.1H49.2939ZM62.2039 114.72V112.08H74.4139V114.72H62.2039ZM77.3939 123.6C77.1639 121.33 76.7939 119.58 76.2839 118.33C75.7739 117.03 75.0139 116.11 73.9939 115.55C72.9739 114.99 71.6139 114.72 69.9039 114.72V112.08C72.2639 112.08 73.9739 111.41 75.0339 110.07C76.1439 108.68 76.8639 106.39 77.1839 103.2H79.6139C79.4339 105.93 79.3339 108.01 79.3339 109.44C79.3839 110.87 79.4039 112.19 79.4039 113.4V116.38C79.4539 117.31 79.4939 118.35 79.5439 119.5C79.6339 120.61 79.7339 121.97 79.8239 123.59H77.3939V123.6ZM120.314 139.07C117.674 139.07 115.414 138.79 113.514 138.24C111.664 137.68 110.134 137.13 108.934 136.57C107.734 136.01 106.784 135.74 106.094 135.74C105.494 135.74 105.004 135.99 104.634 136.5C104.314 137.01 104.054 137.75 103.874 138.72H101.094C101.184 137.7 101.254 136.45 101.304 134.97C101.354 133.49 101.374 131.59 101.374 129.28C101.424 126.97 101.444 124.08 101.444 120.61H104.224C104.594 125.47 106.124 129.31 108.804 132.13C111.484 134.91 114.984 136.29 119.284 136.29C122.384 136.29 124.854 135.5 126.704 133.93C128.604 132.31 129.544 130.14 129.544 127.41C129.544 125.7 129.124 124.2 128.294 122.9C127.504 121.56 126.214 120.33 124.404 119.22C122.644 118.11 120.284 117.02 117.324 115.96C113.764 114.66 110.844 113.28 108.584 111.8C106.364 110.32 104.724 108.68 103.654 106.87C102.634 105.02 102.124 102.94 102.124 100.63C102.124 98.04 102.704 95.8 103.854 93.9C105.054 92 106.744 90.55 108.924 89.53C111.094 88.51 113.644 88 116.554 88C118.964 88 120.974 88.28 122.594 88.83C124.214 89.34 125.554 89.87 126.614 90.43C127.674 90.98 128.584 91.26 129.324 91.26C129.884 91.26 130.344 91.03 130.714 90.57C131.084 90.06 131.364 89.32 131.544 88.35H134.324C134.234 89.37 134.164 90.52 134.114 91.82C134.064 93.07 134.024 94.64 133.974 96.54V103.83H131.134C130.764 99.85 129.354 96.68 126.904 94.32C124.454 91.91 121.374 90.71 117.674 90.71C114.764 90.71 112.494 91.43 110.874 92.86C109.304 94.25 108.514 96.17 108.514 98.62C108.514 100.24 108.934 101.7 109.764 102.99C110.594 104.24 111.964 105.44 113.854 106.6C115.794 107.71 118.384 108.87 121.624 110.07C126.894 112.01 130.694 114.19 133.004 116.59C135.314 119 136.474 121.96 136.474 125.47C136.474 129.63 135.014 132.94 132.104 135.39C129.194 137.84 125.254 139.07 120.304 139.07H120.314ZM166.354 139.07C163.714 139.07 161.454 138.79 159.554 138.24C157.704 137.68 156.174 137.13 154.974 136.57C153.774 136.01 152.824 135.74 152.134 135.74C151.534 135.74 151.044 135.99 150.674 136.5C150.354 137.01 150.094 137.75 149.914 138.72H147.134C147.224 137.7 147.294 136.45 147.344 134.97C147.394 133.49 147.414 131.59 147.414 129.28C147.464 126.97 147.484 124.08 147.484 120.61H150.264C150.634 125.47 152.164 129.31 154.844 132.13C157.524 134.91 161.024 136.29 165.324 136.29C168.424 136.29 170.894 135.5 172.744 133.93C174.644 132.31 175.584 130.14 175.584 127.41C175.584 125.7 175.164 124.2 174.334 122.9C173.544 121.56 172.254 120.33 170.444 119.22C168.684 118.11 166.324 117.02 163.364 115.96C159.804 114.66 156.884 113.28 154.624 111.8C152.404 110.32 150.764 108.68 149.694 106.87C148.674 105.02 148.164 102.94 148.164 100.63C148.164 98.04 148.744 95.8 149.894 93.9C151.094 92 152.784 90.55 154.964 89.53C157.134 88.51 159.684 88 162.594 88C165.004 88 167.014 88.28 168.634 88.83C170.254 89.34 171.594 89.87 172.654 90.43C173.714 90.98 174.624 91.26 175.364 91.26C175.924 91.26 176.384 91.03 176.754 90.57C177.124 90.06 177.404 89.32 177.584 88.35H180.364C180.274 89.37 180.204 90.52 180.154 91.82C180.104 93.07 180.064 94.64 180.014 96.54V103.83H177.174C176.804 99.85 175.394 96.68 172.944 94.32C170.494 91.91 167.414 90.71 163.714 90.71C160.804 90.71 158.534 91.43 156.914 92.86C155.344 94.25 154.554 96.17 154.554 98.62C154.554 100.24 154.974 101.7 155.804 102.99C156.634 104.24 158.004 105.44 159.894 106.6C161.834 107.71 164.424 108.87 167.664 110.07C172.934 112.01 176.734 114.19 179.044 116.59C181.354 119 182.514 121.96 182.514 125.47C182.514 129.63 181.054 132.94 178.144 135.39C175.234 137.84 171.294 139.07 166.344 139.07H166.354ZM191.124 138.1V135.39C193.484 135.3 195.244 135.11 196.394 134.83C197.554 134.55 198.314 134 198.684 133.16C199.054 132.33 199.244 131.08 199.244 129.41V97.63C199.244 95.96 199.054 94.74 198.684 93.95C198.314 93.12 197.554 92.54 196.394 92.22C195.234 91.9 193.484 91.71 191.124 91.66V88.95C193.574 89 196.764 89.04 200.704 89.09C204.684 89.14 209.334 89.16 214.654 89.16H219.654C221.364 89.16 222.984 89.14 224.514 89.09C226.084 89.04 227.524 89 228.814 88.95C228.814 91.22 228.904 93.48 229.094 95.75C229.324 97.97 229.604 100.19 229.924 102.41H227.154C226.504 99.68 225.744 97.55 224.864 96.03C224.034 94.46 222.944 93.37 221.604 92.77C220.264 92.17 218.524 91.87 216.404 91.87H206.274V129.55C206.274 131.12 206.414 132.33 206.694 133.16C206.974 133.99 207.524 134.55 208.364 134.83C209.244 135.06 210.534 135.18 212.254 135.18H215.164C218.124 135.18 220.504 134.81 222.314 134.07C224.124 133.28 225.594 131.87 226.754 129.84C227.954 127.8 229.094 124.91 230.154 121.17H232.934C232.564 123.95 232.284 126.74 232.104 129.57C231.924 132.35 231.824 135.19 231.824 138.1C229.654 138.01 227.154 137.96 224.334 137.96C221.554 137.91 218.324 137.89 214.624 137.89C209.354 137.89 204.724 137.91 200.744 137.96C196.814 137.96 193.624 138.01 191.164 138.1H191.124ZM204.034 114.72V112.08H216.244V114.72H204.034ZM219.224 123.6C218.994 121.33 218.624 119.58 218.114 118.33C217.604 117.03 216.844 116.11 215.824 115.55C214.804 114.99 213.444 114.72 211.734 114.72V112.08C214.094 112.08 215.804 111.41 216.864 110.07C217.974 108.68 218.694 106.39 219.014 103.2H221.444C221.264 105.93 221.164 108.01 221.164 109.44C221.214 110.87 221.234 112.19 221.234 113.4V116.38C221.284 117.31 221.324 118.35 221.374 119.5C221.464 120.61 221.564 121.97 221.654 123.59H219.224V123.6ZM281.094 138.59L254.034 94.53H252.854V128.6C252.854 130.31 253.064 131.65 253.484 132.62C253.904 133.55 254.714 134.22 255.914 134.63C257.164 135.05 259.014 135.3 261.464 135.39V138.1C260.544 138.01 259.194 137.96 257.444 137.96C255.684 137.91 253.794 137.89 251.754 137.89C249.714 137.89 247.704 137.91 245.994 137.96C244.284 137.96 242.944 138.01 241.974 138.1V135.39C244.244 135.3 245.954 135.04 247.104 134.63C248.304 134.21 249.094 133.54 249.464 132.62C249.884 131.65 250.084 130.31 250.084 128.6V97.65C250.084 95.98 249.904 94.76 249.524 93.97C249.154 93.14 248.394 92.56 247.234 92.24C246.074 91.92 244.324 91.73 241.964 91.68V88.97C242.984 89.02 244.344 89.06 246.054 89.11C247.764 89.16 249.684 89.18 251.814 89.18C253.294 89.18 254.654 89.16 255.904 89.11C257.154 89.06 258.194 89.02 259.024 88.97L280.604 124.15H281.784V98.48C281.784 96.72 281.574 95.38 281.164 94.46C280.744 93.53 279.934 92.86 278.734 92.45C277.534 91.99 275.704 91.73 273.254 91.69V88.98C274.224 89.03 275.564 89.07 277.274 89.12C279.034 89.17 280.924 89.19 282.964 89.19C285.004 89.19 287.014 89.17 288.724 89.12C290.434 89.07 291.774 89.03 292.744 88.98V91.69C290.474 91.74 288.744 91.97 287.544 92.38C286.384 92.8 285.604 93.49 285.184 94.46C284.764 95.39 284.564 96.73 284.564 98.48V138.59H281.094ZM319.694 139.07C317.054 139.07 314.794 138.79 312.894 138.24C311.044 137.68 309.514 137.13 308.314 136.57C307.114 136.01 306.164 135.74 305.474 135.74C304.874 135.74 304.384 135.99 304.014 136.5C303.694 137.01 303.434 137.75 303.254 138.72H300.474C300.564 137.7 300.634 136.45 300.684 134.97C300.734 133.49 300.754 131.59 300.754 129.28C300.804 126.97 300.824 124.08 300.824 120.61H303.594C303.964 125.47 305.494 129.31 308.174 132.13C310.854 134.91 314.354 136.29 318.654 136.29C321.754 136.29 324.224 135.5 326.074 133.93C327.974 132.31 328.914 130.14 328.914 127.41C328.914 125.7 328.494 124.2 327.664 122.9C326.874 121.56 325.584 120.33 323.784 119.22C322.024 118.11 319.664 117.02 316.704 115.96C313.144 114.66 310.224 113.28 307.964 111.8C305.744 110.32 304.104 108.68 303.034 106.87C302.014 105.02 301.504 102.94 301.504 100.63C301.504 98.04 302.084 95.8 303.244 93.9C304.444 92 306.134 90.55 308.304 89.53C310.474 88.51 313.024 88 315.934 88C318.334 88 320.354 88.28 321.974 88.83C323.594 89.34 324.934 89.87 325.994 90.43C327.054 90.98 327.964 91.26 328.704 91.26C329.264 91.26 329.724 91.03 330.094 90.57C330.464 90.06 330.744 89.32 330.924 88.35H333.694C333.604 89.37 333.534 90.52 333.484 91.82C333.434 93.07 333.394 94.64 333.344 96.54V103.83H330.504C330.134 99.85 328.724 96.68 326.274 94.32C323.824 91.91 320.744 90.71 317.044 90.71C314.134 90.71 311.864 91.43 310.244 92.86C308.674 94.25 307.884 96.17 307.884 98.62C307.884 100.24 308.304 101.7 309.134 102.99C309.964 104.24 311.334 105.44 313.224 106.6C315.164 107.71 317.754 108.87 320.994 110.07C326.264 112.01 330.064 114.19 332.374 116.59C334.684 119 335.844 121.96 335.844 125.47C335.844 129.63 334.384 132.94 331.474 135.39C328.564 137.84 324.624 139.07 319.684 139.07H319.694Z" fill="#F6F6F6"/>
</svg>
