<?xml version="1.0" encoding="UTF-8"?>
<svg id="Layer_1" xmlns="http://www.w3.org/2000/svg" viewBox="0 0 260.95 257.77">
  <defs>
    <style>
      .cls-1 {
        fill: #292929;
      }
    </style>
  </defs>
  <path class="cls-1" d="M189.82,18.07c-.88,2.9-1.65,4.52-3.18,7.75-1.85,3.9-2.48,4.43-3.08,4.44-.46,0-1.22-.28-3.38-4.85-1.43-3.02-2.21-4.67-2.98-7.42-1.09-3.9-2.26-8.09-.38-10.76.38-.54.81-.91.88-.97,1.99-1.54,5.32-1.55,5.85-1.56.46,0,4.16.02,6.27,1.74.53.44.81.92.88,1.02,1.55,2.39.6,5.67-.9,10.59Z"/>
  <path class="cls-1" d="M201.15,29.09c-2.83,1.1-4.57,1.49-8.06,2.29-4.21.96-5.01.79-5.39.32-.29-.35-.53-1.13,1.72-5.65,1.49-2.99,2.31-4.62,3.99-6.92,2.39-3.27,4.96-6.78,8.23-6.94.65-.03,1.21.07,1.31.09,2.44.61,4.51,3.22,4.84,3.64.29.36,2.56,3.29,2.5,6.01-.01.69-.22,1.2-.26,1.32-.92,2.7-4.09,3.97-8.88,5.83Z"/>
  <path class="cls-1" d="M206.3,237.63c-6.1,4.74-10.65,3.3-16.41,8.37-1.66,1.46-2.77,2.89-3.39,3.76,23.21-6.37,46.42-12.73,69.63-19.1-1.13-.45-2.88-1.03-5.07-1.34-5.03-.69-7.45.8-12.42,1.12-2.26.15-7.21.52-11.19-1.59-4.81-2.54-6.86-7.56-8.43-12.3-4.11-12.44-6.27-25.39-9.61-38.04-4.37-16.52-1.46-31.2,10.02-44.43,9.57-11.03,11.3-24.39,7.95-38.38-5.03-21.03-14.3-40.18-26-58.26-1.57-2.42-2.93-3.3-5.97-2.43-18.65,5.3-37.35,10.41-56.09,15.39-1.49.4-2.48.92-3.12,1.72-.95,1.21-.95,2.69-.94,3.33.62,40.35,4.88,56.16,4.88,56.16,2.27,8.44,3.61,11.65,5.27,14.68,1.48,2.72,5.86,10.52,14.58,16.61,1.29.9,5.79,3.19,14.88,7.64,6.24,3.06,9.51,4.42,13.04,7.87,2.56,2.5,4.7,5.44,6.42,8.84,8.8,17.44,13.43,36.33,17.81,55.19.31,1.34,1.01,4.26,0,7.58-1.2,3.94-4.14,6.28-5.83,7.6ZM158.56,129.82c-9.11-9.79-13.48-25.41-8.88-29.33,5.02-4.27,16.64,8.78,30.11,4.25,8.07-2.72,12.27-10.22,13.9-13.12,12.08-21.59-3.1-49.16.39-50.56,2.52-1.01,11.16,13.12,17.76,28.18,9.04,20.65,13.73,31.37,10.04,44.39-.53,1.87-6.86,22.78-27.28,27.69-20.29,4.88-35.25-10.65-36.02-11.48Z"/>
  <path class="cls-1" d="M128.51,56.22c-.08-2.88-.79-4.34-3.84-5.18-18.69-5.16-37.33-10.5-55.93-15.98-1.48-.43-2.6-.5-3.56-.14-1.44.54-2.2,1.81-2.53,2.36-20.43,34.81-25,50.52-25,50.52-2.44,8.39-2.96,11.83-3.12,15.29-.14,3.09-.46,12.04,3.83,21.77.63,1.44,3.29,5.74,8.74,14.25,3.75,5.85,5.83,8.71,7.05,13.49.89,3.46,1.19,7.09.89,10.89-1.54,19.47-7.4,38.02-13.45,56.41-.43,1.31-1.35,4.16-3.94,6.48-3.07,2.74-6.8,3.22-8.93,3.46-7.68.88-10.81-2.71-18.37-1.37-2.17.39-3.87,1.03-4.84,1.45,23.14,6.61,46.28,13.23,69.42,19.84-.74-.97-1.93-2.38-3.64-3.78-3.94-3.2-6.78-3.19-11.19-5.49-2.01-1.05-6.43-3.3-8.74-7.17-2.79-4.67-1.94-10.02-.82-14.89,2.95-12.77,7.83-24.95,11.54-37.5,4.85-16.38,14.96-27.42,31.64-32.76,13.9-4.45,22.32-14.97,26.73-28.67,6.62-20.58,8.65-41.77,8.05-63.29ZM112.69,120.52c-.11.17-.19.3-.24.39-2.05,3.28-5.84,9.22-12.96,14.02-3.12,2.11-20.47,13.18-38.58,4.77-17.93-8.32-20.73-28.27-21.11-31.36-1.71-14.02,3.82-29.97,9.95-30.52,6.16-.55,7.77,14.88,20.68,18.59,5.1,1.46,6.3-.53,18.18-1.52,11.99-1,26.91-2.24,30.19,4.1,3.25,6.27-5.01,19.73-6.12,21.52Z"/>
  <path class="cls-1" d="M127.14,48.63c-.1-.13-.15-.26-.17-.35-.37-2.78-2.09-15.69-2.12-16.89,0-.02,0-.16.06-.31.37-.86,2.45-1.15,3.08-.38.1.13.14.25.15.27.35,1.12,1.68,12.94,2.12,16.89,0,.11-.02.28-.11.45-.45.89-2.4,1.08-3.01.32Z"/>
  <path class="cls-1" d="M133.57,48.03c-.06-.16-.06-.3-.05-.39.53-2.75,3.01-15.54,3.36-16.69,0-.02.05-.15.15-.27.62-.7,2.69-.31,3.04.62.06.15.06.28.06.3-.02,1.17-2.52,12.81-3.36,16.69-.04.11-.11.26-.24.39-.71.7-2.62.26-2.95-.66Z"/>
</svg>