<svg width="81" height="253" viewBox="0 0 81 253" fill="none" xmlns="http://www.w3.org/2000/svg">
<path d="M0.198271 102.917C1.16827 93.8068 5.33828 87.2468 6.86828 85.0068C6.87828 84.9968 6.88827 84.9868 6.91827 84.9368C7.72827 83.7568 15.4083 72.5368 19.3883 68.8468C19.3883 68.8468 19.4083 68.8268 19.4183 68.8168C19.4183 68.8168 21.3183 67.0568 22.3583 64.7268C23.1983 62.8468 23.2483 61.0668 23.2683 60.1568C23.9883 24.2468 22.0383 15.6168 22.0383 15.6168C20.9583 10.6368 19.2783 4.48678 22.0783 1.77678C22.9483 0.92678 23.9083 0.63678 25.7183 0.48678C33.6483 -0.15322 41.5883 -0.10322 49.5283 0.29678C50.9283 0.36678 51.8783 0.56678 52.7283 1.34678C55.5583 3.91678 53.6883 10.3068 52.5283 16.0668C51.3983 21.6768 51.9283 34.7468 53.2183 60.8768C53.2483 61.4668 53.3183 63.0068 54.0683 64.7268C55.2683 67.4968 57.4083 68.9468 58.1583 69.4668C62.7483 72.6768 69.6683 79.9468 73.4183 85.4468C73.4183 85.4468 79.0983 93.8068 79.9583 102.717C80.0883 104.037 80.1183 105.367 80.1183 105.367C80.1383 106.307 80.1183 106.987 80.1183 107.057C80.0083 111.257 80.6782 181.137 77.8882 242.257C77.8382 243.267 77.6883 245.697 76.0983 247.507C76.0983 247.507 75.2383 248.487 73.9183 249.077C66.6183 252.337 18.7383 253.617 5.55826 249.367C4.64826 249.077 2.89827 248.427 1.66827 246.727C0.188272 244.677 0.238259 242.197 0.248259 241.397C0.758259 196.527 -0.0917312 151.647 0.00826881 106.767C0.00826881 106.307 0.00828102 104.847 0.208281 102.907L0.198271 102.917Z" fill="#A41118"/>
</svg>
