<?xml version="1.0" encoding="UTF-8"?>
<svg id="Layer_1" xmlns="http://www.w3.org/2000/svg" viewBox="0 0 81.2 255.74">
  <defs>
    <style>
      .cls-1 {
        fill: #292929;
      }

      .cls-2 {
        fill: #f6f6f6;
      }

      .cls-3 {
        fill: #454545;
      }

      .cls-4 {
        fill: #7e1319;
      }

      .cls-5 {
        fill: #141414;
      }

      .cls-6 {
        fill: #4a0509;
      }
    </style>
  </defs>
  <path class="cls-4" d="M23.81,56.45c2.39-23.16.81-35.17-1.23-41.9-.69-2.26-3.24-9.93.04-12.9.87-.79,1.83-1.07,3.64-1.2,7.92-.59,15.86-.55,23.79-.18,1.4.07,2.35.26,3.2.98,3.41,2.89.52,11.38-.2,13.72-2.21,7.17-3.48,19.44.68,41.79-9.98-.11-19.95-.21-29.93-.32Z"/>
  <path class="cls-1" d="M.77,100.51c.97-9.48,5.14-16.31,6.66-18.63.01-.02.02-.02.05-.07.81-1.23,8.48-12.91,12.46-16.74,0,0,.02-.02.03-.03,0,0,0,0,0,0,.61-.55,2.01-1.99,2.93-4.26.67-1.65.86-3.2.9-4.32,9.98.11,19.95.21,29.93.32.03.93.19,2.41.84,4.01,1.21,2.92,3.39,4.42,4.09,4.93,4.59,3.34,11.5,10.9,15.25,16.63,0,0,5.67,8.7,6.54,17.98.13,1.38.16,2.76.16,2.76.02.97,0,1.69,0,1.76-.11,4.38.56,77.09-2.22,140.7-.05,1.05-.2,3.58-1.79,5.47,0,0-.86,1.02-2.18,1.63-7.3,3.39-55.14,4.72-68.31.3-.91-.31-2.65-.98-3.88-2.75-1.48-2.13-1.43-4.72-1.42-5.55.51-46.7-.34-93.4-.24-140.1,0-.48,0-1.99.2-4.02Z"/>
  <path class="cls-6" d="M23.81,56.45c2.14-25.61.73-36.51-1.23-41.51,0,0-3.38-8.63-.57-12.63.41-.58.95-1,.95-1,.54-.42,1.12-.66,1.65-.81.51-.14.93-.17,1.13-.18.74-.05,4.1-.16,8.68-.27-.36,18.8-.72,37.61-1.08,56.41-3.18,0-6.35-.01-9.53-.02Z"/>
  <path class="cls-5" d="M.77,100.51s.99-10,6.66-18.63c.01-.02.02-.02.05-.07.81-1.23,8.48-12.91,12.46-16.74,0,0,.02-.02.03-.03,0,0,0,0,0,0,.61-.55,2.01-1.99,2.93-4.26.67-1.65.86-3.2.9-4.32,3.18,0,6.35.01,9.53.02-.48,66.4-.96,132.81-1.44,199.21-.91,0-19.23-.23-25.78-2.75-2.54-.97-3.65-2.41-3.88-2.75-1.48-2.13-1.43-4.72-1.42-5.55.51-46.7-.31-93.4-.24-140.1,0-.48,0-2,.2-4.02Z"/>
  <path class="cls-2" d="M80.62,126.12H.56c-.11,2.83-.25,7.15-.36,12.41-.17,8.09-.37,18.36.06,31.39.11,3.2.29,7.8.63,13.38,26.42,0,52.84,0,79.26,0,.08-1.41.2-3.76.33-6.66.42-9.41,1.03-23.51.52-41.09-.06-2.15-.17-5.42-.38-9.43Z"/>
  <path class="cls-3" d="M54.4,73.87c.41-.03,2.37-.12,4.57.7,7.1,2.66,10.63,12.64,11.79,16.02,3.47,10.17,3.86,21.25,2.19,21.62-1.87.41-2.26-13.49-13.58-23.61-6.37-5.69-13.21-7.52-12.66-10.6.4-2.25,4.54-3.94,7.7-4.14Z"/>
  <path class="cls-3" d="M75.57,237.53c.11,4.6.14,6.94-1.32,9.08-1.21,1.76-3.22,3.1-8.23,4.19-9.97,2.17-20.33.87-20.36-.57-.04-1.74,15.31.6,22.73-8.79,4.68-5.92,4.07-13.77,5.44-13.67,1.47.11,1.73,9.13,1.74,9.74Z"/>
  <g>
    <path d="M8.32,152.77c.44-.09,1.07-.14,1.67-.14.93,0,1.53.17,1.95.55.34.3.53.76.53,1.28,0,.89-.56,1.48-1.27,1.72v.03c.52.18.83.66.99,1.36.22.94.38,1.59.52,1.85h-.9c-.11-.19-.26-.77-.45-1.61-.2-.93-.56-1.28-1.35-1.31h-.82v2.93h-.87v-6.67ZM9.19,155.85h.89c.93,0,1.52-.51,1.52-1.28,0-.87-.63-1.25-1.55-1.26-.42,0-.72.04-.86.08v2.47Z"/>
    <path d="M13.61,159.48l.62-.88c-.56-.6-.89-1.49-.89-2.5,0-2.14,1.35-3.53,3.12-3.53.62,0,1.2.18,1.68.53l.59-.81.53.36-.62.86c.56.61.87,1.49.87,2.49,0,2.36-1.45,3.55-3.07,3.55-.64,0-1.23-.19-1.71-.54l-.63.86-.49-.39ZM17.71,153.75c-.34-.29-.76-.47-1.26-.47-1.47,0-2.22,1.36-2.22,2.78,0,.75.2,1.29.5,1.81h.01s2.97-4.12,2.97-4.12ZM15.16,158.37c.33.31.72.48,1.26.48,1.41,0,2.2-1.29,2.2-2.82,0-.57-.12-1.18-.47-1.75h-.03l-2.96,4.09Z"/>
    <path d="M20.65,152.77c.53-.08,1.16-.14,1.85-.14,1.25,0,2.15.29,2.74.84.6.55.95,1.33.95,2.43s-.34,2-.97,2.63c-.63.63-1.67.97-2.99.97-.62,0-1.14-.03-1.58-.08v-6.65ZM21.52,158.75c.22.04.54.05.88.05,1.86,0,2.88-1.04,2.88-2.87,0-1.59-.89-2.61-2.74-2.61-.45,0-.79.04-1.02.09v5.33Z"/>
    <path d="M28.81,159.44l-2.21-6.76h.94l1.05,3.33c.29.91.54,1.73.72,2.53h.02c.19-.78.47-1.63.77-2.52l1.14-3.34h.93l-2.42,6.76h-.96Z"/>
    <path d="M33.79,152.68v6.76h-.87v-6.76h.87Z"/>
    <path d="M35.31,159.44v-6.76h.95l2.17,3.42c.5.79.89,1.5,1.21,2.2h.02c-.08-.91-.1-1.73-.1-2.79v-2.83h.82v6.76h-.88l-2.15-3.43c-.47-.75-.92-1.52-1.26-2.26h-.03c.05.86.07,1.67.07,2.8v2.89h-.82Z"/>
    <path d="M41.79,158.38c.39.24.96.44,1.56.44.89,0,1.41-.47,1.41-1.15,0-.63-.36-.99-1.27-1.34-1.1-.39-1.78-.96-1.78-1.91,0-1.05.87-1.83,2.19-1.83.69,0,1.19.16,1.49.33l-.24.71c-.22-.12-.67-.32-1.28-.32-.92,0-1.27.55-1.27,1.01,0,.63.41.94,1.34,1.3,1.14.44,1.72.99,1.72,1.98,0,1.04-.77,1.95-2.37,1.95-.65,0-1.36-.19-1.72-.43l.22-.73Z"/>
    <path d="M46.85,152.68h.87v3.26h.03c.18-.26.36-.5.53-.72l2.07-2.54h1.08l-2.45,2.87,2.64,3.89h-1.03l-2.23-3.32-.64.74v2.58h-.87v-6.76Z"/>
    <path d="M53.48,157.32l-.7,2.12h-.9l2.29-6.76h1.05l2.31,6.76h-.93l-.72-2.12h-2.4ZM55.69,156.63l-.66-1.95c-.15-.44-.25-.84-.35-1.23h-.02c-.1.4-.21.81-.34,1.22l-.66,1.96h2.04Z"/>
    <path d="M58.4,158.38c.39.24.96.44,1.56.44.89,0,1.41-.47,1.41-1.15,0-.63-.36-.99-1.27-1.34-1.1-.39-1.78-.96-1.78-1.91,0-1.05.87-1.83,2.19-1.83.69,0,1.19.16,1.49.33l-.24.71c-.22-.12-.67-.32-1.28-.32-.92,0-1.27.55-1.27,1.01,0,.63.41.94,1.34,1.3,1.14.44,1.72.99,1.72,1.98,0,1.04-.77,1.95-2.37,1.95-.65,0-1.36-.19-1.72-.43l.22-.73Z"/>
    <path d="M63.34,158.38c.39.24.96.44,1.56.44.89,0,1.41-.47,1.41-1.15,0-.63-.36-.99-1.27-1.34-1.1-.39-1.78-.96-1.78-1.91,0-1.05.87-1.83,2.19-1.83.69,0,1.19.16,1.49.33l-.24.71c-.22-.12-.67-.32-1.28-.32-.92,0-1.27.55-1.27,1.01,0,.63.41.94,1.34,1.3,1.14.44,1.72.99,1.72,1.98,0,1.04-.77,1.95-2.37,1.95-.65,0-1.36-.19-1.72-.43l.22-.73Z"/>
    <path d="M71.9,156.27h-2.63v2.44h2.93v.73h-3.8v-6.76h3.65v.73h-2.78v2.14h2.63v.72Z"/>
  </g>
</svg>