<svg width="192" height="44" viewBox="0 0 192 44" fill="none" xmlns="http://www.w3.org/2000/svg">
<path d="M11.1792 38.5001L14.1583 25.6209L4.16666 16.9584L17.3667 15.8126L22.5 3.66675L27.6333 15.8126L40.8333 16.9584L30.8417 25.6209L33.8208 38.5001L22.5 31.6709L11.1792 38.5001Z" fill="#A41118"/>
<path d="M48.1792 38.5001L51.1583 25.6209L41.1667 16.9584L54.3667 15.8126L59.5 3.66675L64.6333 15.8126L77.8333 16.9584L67.8417 25.6209L70.8208 38.5001L59.5 31.6709L48.1792 38.5001Z" fill="#A41118"/>
<path d="M85.1792 38.5001L88.1583 25.6209L78.1667 16.9584L91.3667 15.8126L96.5 3.66675L101.633 15.8126L114.833 16.9584L104.842 25.6209L107.821 38.5001L96.5 31.6709L85.1792 38.5001Z" fill="#A41118"/>
<path d="M122.179 38.5001L125.158 25.6209L115.167 16.9584L128.367 15.8126L133.5 3.66675L138.633 15.8126L151.833 16.9584L141.842 25.6209L144.821 38.5001L133.5 31.6709L122.179 38.5001Z" fill="#A41118"/>
<path d="M158.179 38.5001L161.158 25.6209L151.167 16.9584L164.367 15.8126L169.5 3.66675L174.633 15.8126L187.833 16.9584L177.842 25.6209L180.821 38.5001L169.5 31.6709L158.179 38.5001Z" fill="#A41118"/>
</svg>
