<svg width="192" height="44" viewBox="0 0 192 44" fill="none" xmlns="http://www.w3.org/2000/svg">
<path d="M10.6792 38.5001L13.6583 25.6209L3.66667 16.9584L16.8667 15.8126L22 3.66675L27.1333 15.8126L40.3333 16.9584L30.3417 25.6209L33.3208 38.5001L22 31.6709L10.6792 38.5001Z" fill="#A41118"/>
<path d="M47.6792 38.5001L50.6583 25.6209L40.6667 16.9584L53.8667 15.8126L59 3.66675L64.1333 15.8126L77.3333 16.9584L67.3417 25.6209L70.3208 38.5001L59 31.6709L47.6792 38.5001Z" fill="#A41118"/>
<path d="M84.6792 38.5001L87.6583 25.6209L77.6667 16.9584L90.8667 15.8126L96 3.66675L101.133 15.8126L114.333 16.9584L104.342 25.6209L107.321 38.5001L96 31.6709L84.6792 38.5001Z" fill="#A41118"/>
<path d="M121.679 38.5001L124.658 25.6209L114.667 16.9584L127.867 15.8126L133 3.66675L138.133 15.8126L151.333 16.9584L141.342 25.6209L144.321 38.5001L133 31.6709L121.679 38.5001Z" fill="#A41118"/>
<g clip-path="url(#clip0_2098_1588)">
<path d="M158.679 38.5001L161.658 25.6209L151.667 16.9584L164.867 15.8126L170 3.66675L175.133 15.8126L188.333 16.9584L178.342 25.6209L181.321 38.5001L170 31.6709L158.679 38.5001Z" fill="#F6F6F6"/>
<path d="M158.679 38.5001L161.658 25.6209L151.667 16.9584L164.867 15.8126L170 3.66675V15.8126V21.5V27V31.6709L158.679 38.5001Z" fill="#A41118"/>
</g>
<defs>
<clipPath id="clip0_2098_1588">
<rect width="44" height="44" fill="white" transform="translate(148)"/>
</clipPath>
</defs>
</svg>
