<svg width="192" height="44" viewBox="0 0 192 44" fill="none" xmlns="http://www.w3.org/2000/svg">
<path d="M10.8116 38.5001L13.7907 25.6209L3.79907 16.9584L16.9991 15.8126L22.1324 3.66675L27.2657 15.8126L40.4657 16.9584L30.4741 25.6209L33.4532 38.5001L22.1324 31.6709L10.8116 38.5001Z" fill="#A41118"/>
<path d="M47.8116 38.5001L50.7907 25.6209L40.7991 16.9584L53.9991 15.8126L59.1324 3.66675L64.2657 15.8126L77.4657 16.9584L67.4741 25.6209L70.4532 38.5001L59.1324 31.6709L47.8116 38.5001Z" fill="#A41118"/>
<path d="M84.8116 38.5001L87.7907 25.6209L77.7991 16.9584L90.9991 15.8126L96.1324 3.66675L101.266 15.8126L114.466 16.9584L104.474 25.6209L107.453 38.5001L96.1324 31.6709L84.8116 38.5001Z" fill="#A41118"/>
<path d="M121.812 38.5001L124.791 25.6209L114.799 16.9584L127.999 15.8126L133.132 3.66675L138.266 15.8126L151.466 16.9584L141.474 25.6209L144.453 38.5001L133.132 31.6709L121.812 38.5001Z" fill="#A41118"/>
<path d="M158.547 38.5001L161.526 25.6209L151.534 16.9584L164.734 15.8126L169.868 3.66675L175.001 15.8126L188.201 16.9584L178.209 25.6209L181.188 38.5001L169.868 31.6709L158.547 38.5001Z" fill="#F6F6F6"/>
</svg>
