<?xml version="1.0" encoding="UTF-8"?>
<svg id="Layer_1" xmlns="http://www.w3.org/2000/svg" viewBox="0 0 260.95 257.77">
  <defs>
    <style>
      .cls-1 {
        fill: #f6f6f6;
      }

      .cls-2 {
        fill: #a41118;
      }
    </style>
  </defs>
  <path class="cls-1" d="M135.53,87.87c.69-6.05,3.66-10.42,4.75-11.9,0,0,.01-.02.03-.05.58-.79,6.05-8.24,8.89-10.69,0,0,.01-.01.02-.02,0,0,1.35-1.17,2.09-2.72.6-1.25.63-2.43.65-3.04.51-23.87-.88-29.6-.88-29.6-.77-3.31-1.96-7.4.03-9.2.62-.56,1.3-.76,2.59-.86,5.65-.42,11.31-.39,16.97-.13,1,.05,1.67.18,2.28.7,2.02,1.71.69,5.95-.14,9.79-.8,3.73-.43,12.41.49,29.78.02.4.07,1.41.6,2.56.85,1.84,2.38,2.8,2.91,3.15,3.27,2.13,8.2,6.96,10.87,10.62,0,0,4.04,5.56,4.66,11.48.09.88.11,1.76.11,1.76.01.62,0,1.08,0,1.12-.08,2.79.4,49.24-1.59,89.86-.03.67-.14,2.29-1.28,3.49,0,0-.61.65-1.55,1.04-5.2,2.16-39.32,3.02-48.71.19-.65-.2-1.89-.63-2.77-1.76-1.06-1.36-1.02-3.01-1.01-3.54.36-29.83-.24-59.66-.17-89.48,0-.31,0-1.27.15-2.57Z"/>
  <path class="cls-1" d="M199.72,87.87c.69-6.05,3.66-10.42,4.75-11.9,0,0,.01-.02.03-.05.58-.79,6.05-8.24,8.89-10.69,0,0,.01-.01.02-.02,0,0,1.35-1.17,2.09-2.72.6-1.25.63-2.43.65-3.04.51-23.87-.88-29.6-.88-29.6-.77-3.31-1.96-7.4.03-9.2.62-.56,1.3-.76,2.59-.86,5.65-.42,11.31-.39,16.97-.13,1,.05,1.67.18,2.28.7,2.02,1.71.69,5.95-.14,9.79-.8,3.73-.43,12.41.49,29.78.02.4.07,1.41.6,2.56.85,1.84,2.38,2.8,2.91,3.15,3.27,2.13,8.2,6.96,10.87,10.62,0,0,4.04,5.56,4.66,11.48.09.88.11,1.76.11,1.76.01.62,0,1.08,0,1.12-.08,2.79.4,49.24-1.59,89.86-.03.67-.14,2.29-1.28,3.49,0,0-.61.65-1.55,1.04-5.2,2.16-39.32,3.02-48.71.19-.65-.2-1.89-.63-2.77-1.76-1.06-1.36-1.02-3.01-1.01-3.54.36-29.83-.24-59.66-.17-89.48,0-.31,0-1.27.15-2.57Z"/>
  <path class="cls-1" d="M4.28,205.8c2.81-4.86,4.44-9.04,5.41-12,.3-.91.69-3.73,2.54-9.04,1.31-3.76,2.81-7.47,4.05-11.26.12-.37.3-.75.54-1.05,5.8-7.13,8.91-16.12,15.65-22.61,1.32-1.27.83-3.32,1.45-4.92.49-1.29.03-3.22,2.19-3.49,2.09-.26,3.21,1.01,4.1,2.62,1.93,3.48,2.36,7.04.4,10.66-1.35,2.48-2.75,4.94-4.12,7.38.74.72,1.09.07,1.43-.27,4.36-4.38,9.28-8.19,13.25-12.96.83-1,1.87-1.78,3.02-2.27,4.14-1.73,7.75-4.27,11.27-6.98,2.15-1.65,4.52-2.97,7.18-3.58,1.69-.39,3.52-.67,4.81,1,1.27,1.64,1.02,3.41.26,5.18-.76,1.79-2.02,3.23-3.48,4.45-1.82,1.53-3.64,3.08-5.63,4.37-6.43,4.19-10.83,10.39-15.98,15.85-.53.56-1.27,1.28-.76,2.06.58.89,1.66.54,2.37.14,1.94-1.07,3.88-2.17,5.66-3.48,6.94-5.08,14.89-8.41,22.13-12.97,1.34-.84,2.91-1.26,4.5-1.42,3.33-.33,5.12,1.61,4.54,4.91-.32,1.8-1.31,3.22-2.69,4.35-2.68,2.2-5.41,4.36-8.53,6.87,2.08-.16,3.46.4,4.14,2.13.63,1.59.38,3.12-.2,4.62-1.6,4.13-3.39,8.15-6.64,11.3-.36.35-.2.3.06.57,1.18,1.22.77,2.66.22,3.95-1.35,3.1-2.86,6.04-5.21,8.64-6.56,7.28-13.54,13.99-21.96,19.1-2.17,1.31-4.31,2.66-6.61,3.74-3.28,1.54-6.24,3.41-8.92,5.66-.63.53-1.08.95-1.45,1.31-1.28,1.26-2.2,2.19-2.35,2.35-.9.95-3.44,2.95-10.78,7.58-5.29-10.83-10.58-21.67-15.87-32.5Z"/>
  <path class="cls-2" d="M128.28,89.5s-.02-.88-.11-1.76c-.62-5.93-4.66-11.48-4.66-11.48-2.67-3.66-7.6-8.49-10.87-10.62-.53-.35-2.06-1.31-2.91-3.15-.53-1.15-.58-2.16-.6-2.56-.92-17.37-1.29-26.06-.49-29.78.83-3.83,2.16-8.08.14-9.79-.61-.52-1.28-.65-2.28-.7-5.66-.26-11.32-.29-16.97.13-1.29.1-1.97.29-2.59.86-1.99,1.8-.8,5.89-.03,9.2,0,0,1.39,5.73.88,29.6-.01.61-.05,1.79-.65,3.04-.74,1.55-2.09,2.72-2.09,2.72,0,0-.02.02-.02.02-2.84,2.45-8.31,9.9-8.89,10.69-.02.03-.03.04-.03.05-1.09,1.49-4.06,5.85-4.75,11.9-.1.92-.13,1.67-.14,2.14,0,.19,0,.33,0,.43,0,1.17.12,27.91.19,44.31,2.3-1.04,4.86-.86,6.66.52,1.9,1.46,2.19,3.66,2.23,4.02.35,3.05-1.88,5.46-3.79,7.51-1.03,1.11-2.67,2.61-5.07,3.93-.06,1.03-.06,2.21.06,3.49.07.84.19,1.61.32,2.32,1.03-.62,2.53-1.51,4.39-2.53,1.79-.98,3.1-1.69,4.87-2.46,3.54-1.54,5.23-1.73,6.07-1.78,2-.12,2.88.3,3.26.51,1.33.75,1.9,2,2.11,2.48,0,0,.7,1.61.36,3.79-.47,3-3.92,6.8-9.29,9.79.32.14.78.38,1.21.8.63.61,1.17,1.55,1.35,3.57.26,3.01-.53,5.48-.87,6.43-.94,2.62-2.29,4.36-3.32,5.69-1.02,1.32-2.01,2.33-2.75,3.03,0,.05,0,.16.07.27.13.21.38.22.41.22.13.03.32.06.55.1,5.93,1.1,10.61,1.23,15.37,1.26,0,0,12,.08,19.7-.69,0,0,3.24-.32,8.3-1.9.26-.08.47-.19.47-.19.09-.04.11-.06.73-.48.13-.09.29-.2.49-.34.06-.04.11-.08.15-.11,1.14-1.21,1.24-2.82,1.28-3.49,1.99-40.63,1.5-87.07,1.59-89.86,0-.04.02-.5,0-1.12Z"/>
</svg>