<?xml version="1.0" encoding="UTF-8"?>
<svg id="Layer_1" xmlns="http://www.w3.org/2000/svg" viewBox="0 0 260.95 257.77">
  <defs>
    <style>
      .cls-1 {
        fill: #292929;
      }
    </style>
  </defs>
  <path class="cls-1" d="M78.61,111.14c0-.36,0-1.48.17-2.98.8-7.03,4.25-12.1,5.52-13.82,0-.01.01-.02.04-.05.67-.91,7.02-9.57,10.32-12.42,0,0,.02-.01.03-.02,0,0,1.57-1.36,2.43-3.16.69-1.45.74-2.82.75-3.53.05-2.14.08-4.15.1-6.05-3.22-3.98-8.07-8.6-11.43-10.79-.62-.4-2.39-1.52-3.38-3.66-.61-1.33-.68-2.51-.7-2.97-1.07-20.17-1.5-30.26-.57-34.58.96-4.45,2.51-9.38.16-11.36-.71-.6-1.49-.76-2.65-.81-6.57-.31-13.14-.34-19.7.15-1.5.11-2.29.34-3.01.99-2.31,2.09-.93,6.84-.03,10.68,0,0,1.61,6.66,1.02,34.38-.02.71-.06,2.08-.75,3.53-.86,1.8-2.43,3.16-2.43,3.16-.01,0-.02.02-.03.02-3.3,2.84-9.65,11.5-10.32,12.42-.03.04-.03.04-.04.05-1.26,1.73-4.72,6.79-5.52,13.82-.17,1.5-.17,2.63-.17,2.98-.08,34.64.62,69.28.2,103.91,0,.61-.05,2.53,1.18,4.11,1.02,1.31,2.46,1.81,3.22,2.04,6.34,1.91,22.4,2.37,35.92,1.93.1-29.32-.38-58.65-.31-87.97Z"/>
  <path class="cls-1" d="M82.42,111.47c.8-7.03,4.25-12.1,5.52-13.82,0-.01.01-.02.04-.05.67-.91,7.02-9.57,10.32-12.42,0,0,.02-.01.03-.02,0,0,1.57-1.36,2.43-3.16.69-1.45.74-2.82.75-3.53.59-27.72-1.02-34.38-1.02-34.38-.89-3.84-2.28-8.59.03-10.68.72-.66,1.51-.88,3.01-.99,6.56-.49,13.13-.46,19.7-.15,1.16.05,1.94.21,2.65.81,2.34,1.98.8,6.91-.16,11.36-.93,4.33-.5,14.42.57,34.58.02.46.08,1.64.7,2.97.99,2.14,2.77,3.26,3.38,3.66,3.8,2.48,9.53,8.09,12.63,12.33,0,0,4.7,6.45,5.42,13.33.11,1.02.13,2.04.13,2.04.02.72,0,1.25,0,1.31-.09,3.25.47,57.18-1.84,104.35-.04.78-.16,2.65-1.48,4.06,0,0-.71.76-1.8,1.21-6.04,2.51-45.66,3.5-56.57.23-.76-.23-2.2-.73-3.22-2.04-1.23-1.58-1.18-3.5-1.18-4.11.42-34.63-.28-69.28-.2-103.91,0-.36,0-1.48.17-2.98Z"/>
  <g id="W4vNw4">
    <path class="cls-1" d="M161.23,157.63c.24-.23.49-.46.73-.68,1.16-.64,2.36-.77,3.61-.3.42.31.84.63,1.25.94.75.75,1.55,1.45,2.44,2.03.58.66,1.27,1.19,1.99,1.68.51.58,1.1,1.06,1.75,1.47,3.65,3.17,7.33,6.32,11.12,9.33.16.29.37.52.71.61.93.9,1.9,1.76,2.98,2.48.26.43.65.72,1.09.93.78.67,1.57,1.34,2.35,2,.63.64,1.29,1.24,2.07,1.71.59.63,1.2,1.23,1.99,1.62,3.58,3.21,7.23,6.33,11.01,9.29.08.08.17.15.25.23,1.08,1.07,2.26,2.03,3.48,2.93.25.33.56.6.94.79.83.84,1.72,1.61,2.71,2.27.5.57,1.06,1.06,1.71,1.45.61.64,1.27,1.23,2.02,1.71,1.05.89,2.09,1.79,3.15,2.67.96.79,1.75,1.69,1.93,2.98-.28,2.44-.99,3.22-3.43,3.8-.56.13-1.1.3-1.65.45-1.25.13-2.47.45-3.68.78l-3.73.84c-2.46.54-4.92,1.07-7.39,1.61-1.18.18-2.35.41-3.49.79-.4.06-.81.14-1.21.18-.74.07-.86.37-.52,1.04.91,1.79,1.76,3.62,2.63,5.43,1.14,2.45,2.27,4.91,3.41,7.36,1.16,2.49,2.33,4.98,3.49,7.47.52,1.35,1.12,2.66,1.82,3.92.34.73.67,1.46,1.01,2.19.11.57.42,1.04.72,1.52.5,1.14.99,2.28,1.49,3.42.15,1.25.2,2.49-.11,3.72-.92,2.69-2.86,4.23-5.54,4.92-1.26.03-2.51-.05-3.72-.46-.49-.26-.97-.52-1.46-.79-.8-.72-1.49-1.53-2.11-2.41-.15-.46-.27-.93-.6-1.3-.5-1.27-1.03-2.53-1.75-3.7-.28-.97-.75-1.85-1.23-2.72-.03-.4-.22-.71-.49-.99-.44-1.3-1.05-2.52-1.71-3.72-.41-1.11-.86-2.21-1.52-3.2-.07-.17-.14-.34-.21-.51-.47-1.29-1.02-2.53-1.73-3.7-1.02-2.53-2.21-4.99-3.44-7.43-.51-1.15-1.03-2.29-1.52-3.45-.35-.84-.66-.44-.99-.01-2.4,1.86-4.8,3.73-7.21,5.59-.74.42-1.41.92-2,1.54-.63.33-1.17.76-1.66,1.26-1.14.75-2.22,1.56-3.22,2.48-.18.14-.35.28-.53.41-1.22.92-2.44,1.83-3.66,2.75-.33.1-.65.2-.98.3-.41,0-.82,0-1.23,0-.49-.21-.98-.42-1.47-.63-.85-.76-1.27-1.73-1.43-2.84.13-1.22.14-2.44,0-3.66.13-1.26.12-2.51,0-3.77.12-1.22.13-2.43,0-3.64.13-1.25.12-2.51,0-3.76.13-1.22.12-2.43,0-3.65.12-1.25.12-2.51,0-3.76.14-1.22.13-2.43,0-3.65.12-1.25.13-2.51,0-3.76.13-1.22.13-2.43,0-3.65.12-1.25.14-2.51,0-3.76.15-1.22.13-2.43,0-3.65.13-1.25.13-2.51,0-3.76.14-1.22.13-2.43,0-3.65.12-1.26.12-2.52,0-3.77.13-1.22.13-2.43,0-3.64.14-1.25.13-2.51,0-3.76.13-1.22.13-2.43,0-3.65.12-1.25.13-2.51,0-3.76.13-1.22.13-2.44,0-3.66.15-1.25-.05-2.57.74-3.69Z"/>
  </g>
  <path class="cls-1" d="M158.03,199.18c.11-1.22.12-2.43-.01-3.65.13-1.22.13-2.43,0-3.65.12-1.25.14-2.51,0-3.76.15-1.22.13-2.43,0-3.65.13-1.25.13-2.51,0-3.76.14-1.22.13-2.43,0-3.65.12-1.26.12-2.52,0-3.77.13-1.22.13-2.43,0-3.64.14-1.25.13-2.51,0-3.76.13-1.22.13-2.43,0-3.65.12-1.25.13-2.51,0-3.76.13-1.22.13-2.44,0-3.66.15-1.25-.05-2.57.74-3.69.24-.23.49-.46.73-.68,1.16-.64,2.36-.77,3.61-.3.42.31.84.63,1.25.94.75.75,1.55,1.45,2.44,2.03.58.66,1.27,1.19,1.99,1.68.51.58,1.1,1.06,1.75,1.47,3.65,3.17,7.33,6.32,11.12,9.33.16.29.37.52.71.61.85.82,1.73,1.59,2.7,2.26,1.23-40.09.85-78.39.93-81.11,0-.05.02-.58,0-1.31,0,0-.02-1.02-.13-2.04-.72-6.88-5.41-13.33-5.42-13.33-3.1-4.25-8.82-9.86-12.63-12.33-.62-.4-2.39-1.52-3.38-3.66-.61-1.33-.68-2.51-.7-2.97-1.07-20.17-1.5-30.26-.57-34.58.96-4.45,2.51-9.38.16-11.36-.71-.6-1.49-.76-2.65-.81-6.57-.31-13.14-.34-19.7.15-1.5.11-2.29.34-3.01.99-2.31,2.09-.93,6.84-.03,10.68,0,0,1.61,6.66,1.02,34.38-.02.71-.06,2.08-.75,3.53-.86,1.8-2.43,3.16-2.43,3.16-.01,0-.02.02-.03.02-1.54,1.33-3.75,3.93-5.74,6.42.16,3.36.35,7.09.57,11.28.02.46.08,1.64.7,2.97.99,2.14,2.77,3.26,3.38,3.66,3.8,2.48,9.53,8.09,12.63,12.33,0,0,4.7,6.45,5.42,13.33.11,1.02.13,2.04.13,2.04.02.72,0,1.25,0,1.31-.08,2.88.35,45.56-1.16,88.07,2.13,0,4.26-.04,6.35-.09Z"/>
</svg>